<svg xmlns="http://www.w3.org/2000/svg" version="1.1" xmlns:xlink="http://www.w3.org/1999/xlink" xmlns:svgjs="http://svgjs.com/svgjs" width="180" height="86"><svg width="180" height="86" viewBox="0 0 180 86" fill="none" xmlns="http://www.w3.org/2000/svg">
<g id="SvgjsG1009">
<g id="SvgjsG1008">
<g id="SvgjsG1007">
<path id="SvgjsPath1006" d="M98.5965 64.0353C85.4829 64.0353 75.9531 54.9128 75.9531 40.7403C75.9531 26.5678 85.2385 17.4453 98.5965 17.4453C111.954 17.4453 120.833 26.3235 120.833 39.7629C120.833 41.229 120.751 42.6951 120.507 44.1612H87.5192C88.0893 50.8402 92.6506 54.587 98.3521 54.587C103.239 54.587 105.927 52.1434 107.393 49.1297H119.692C117.249 57.4377 109.755 64.0353 98.5965 64.0353ZM87.6006 36.5048H109.022C108.859 30.5589 104.135 26.8122 98.2707 26.8122C92.8135 26.8122 88.4966 30.3146 87.6006 36.5048Z" fill="#273349"></path>
<path id="SvgjsPath1005" d="M128.38 27.545H123.249V18.1781H128.38V15.8975C128.38 4.82018 134.652 -0.311229 147.359 0.0145753V9.62579C141.82 9.46289 139.946 11.2548 139.946 16.3048V18.1781H147.847V27.545H139.946V63.302H128.38V27.545Z" fill="#273349"></path>
<path id="SvgjsPath1004" d="M158.028 27.5458H152.652V18.1789H158.028V9.57227H169.513V18.1789H179.613V27.5458H169.513V49.3746C169.513 52.3883 170.734 53.6915 174.318 53.6915H179.613V63.3028H172.445C163.811 63.3028 158.028 59.6375 158.028 49.2932V27.5458Z" fill="#273349"></path>
<g id="SvgjsG1003">
<path id="SvgjsPath1002" d="M40.0467 41.2843L26.8245 54.5065L0 23.3379V53.2847C0 58.7012 4.4255 63.0995 9.88272 63.0995L61.2647 63.2896C66.7219 63.2896 71.1474 58.8912 71.1474 53.4748V37.3067L53.4454 54.5065L40.0332 41.2843H40.0467Z" fill="#5AFBC4"></path>
<path id="SvgjsPath1001" d="M62.2693 0.0969793L53.3911 9.16519L40.0739 0.192005L26.4444 13.3599L13.5209 0.192005L0 0.00195312L26.811 31.1841L40.0467 17.9483L53.3775 31.0619L71.1474 14.4459V0.0969793H62.2693Z" fill="#5AFBC4"></path>
</g>
</g>
</g>
<g id="SvgjsG1000">
<path d="M0 84.8222V69.2481H9.37906V70.5257H1.48007V76.3888H8.64298V77.6663H1.48007V84.8222H0Z" fill="#273349"></path>
<path d="M29.0268 69.2481V84.8222H27.5467V69.2481H29.0268Z" fill="#273349"></path>
<path d="M60.4478 69.2481V84.8222H59.0073L49.4304 71.7804H49.3038V84.8222H47.8237V69.2481H49.2563L58.8649 82.3051H58.9915V69.2481H60.4478Z" fill="#273349"></path>
<path d="M79.2685 84.8222H77.7172L83.6137 69.2481H85.1967L91.0932 84.8222H89.5419L84.4606 71.096H84.3498L79.2685 84.8222ZM80.3845 78.8526H88.4259V80.1302H80.3845V78.8526Z" fill="#273349"></path>
<path d="M120.983 69.2481V84.8222H119.542L109.965 71.7804H109.839V84.8222H108.359V69.2481H109.791L119.4 82.3051H119.526V69.2481H120.983Z" fill="#273349"></path>
<path d="M152.475 74.115H150.987C150.876 73.5827 150.676 73.0909 150.386 72.6397C150.101 72.1834 149.742 71.7855 149.309 71.4458C148.876 71.1061 148.386 70.8425 147.837 70.6549C147.288 70.4673 146.695 70.3736 146.056 70.3736C145.032 70.3736 144.099 70.6296 143.254 71.1416C142.415 71.6537 141.743 72.4065 141.236 73.4002C140.735 74.3888 140.484 75.6004 140.484 77.0352C140.484 78.48 140.735 79.6968 141.236 80.6853C141.743 81.6739 142.415 82.4243 143.254 82.9363C144.099 83.4433 145.032 83.6968 146.056 83.6968C146.695 83.6968 147.288 83.603 147.837 83.4154C148.386 83.2278 148.876 82.9667 149.309 82.6321C149.742 82.2924 150.101 81.8945 150.386 81.4382C150.676 80.9819 150.876 80.4876 150.987 79.9553H152.475C152.343 80.6701 152.095 81.3368 151.731 81.9553C151.372 82.5687 150.913 83.1061 150.354 83.5675C149.8 84.0288 149.161 84.3888 148.438 84.6473C147.716 84.9059 146.921 85.0352 146.056 85.0352C144.695 85.0352 143.486 84.7082 142.431 84.0542C141.376 83.3951 140.547 82.4673 139.946 81.2709C139.35 80.0744 139.051 78.6625 139.051 77.0352C139.051 75.4078 139.35 73.9959 139.946 72.7994C140.547 71.603 141.376 70.6777 142.431 70.0237C143.486 69.3647 144.695 69.0352 146.056 69.0352C146.921 69.0352 147.716 69.1644 148.438 69.423C149.161 69.6765 149.8 70.0364 150.354 70.5028C150.913 70.9642 151.372 71.5016 151.731 72.115C152.095 72.7284 152.343 73.3951 152.475 74.115Z" fill="#273349"></path>
<path d="M170.439 84.8222V69.2481H179.842V70.5257H171.919V76.3888H179.343V77.6663H171.919V83.5447H180V84.8222H170.439Z" fill="#273349"></path>
</g>
</g>
</svg><style>@media (prefers-color-scheme: light) { :root { filter: none; } }
</style></svg>