<svg width="211" height="234" viewBox="0 0 211 234" fill="none" xmlns="http://www.w3.org/2000/svg">
<g id="arrow_string_pink">
<path id="Vector" d="M0.276214 0.535156L70.7101 77.2304L105.928 38.8819L132.279 67.5895L105.928 97.0263L70.7101 136.35L0.276214 58.057V0.535156Z" fill="url(#paint0_linear_363_1257)" fill-opacity="0.19"/>
<path id="Vector_2" d="M105.925 38.878L132.276 67.5856L141.141 77.2265L210.487 0.53125V58.0531L141.141 136.346L79.5624 67.5856L105.925 38.878Z" fill="url(#paint1_linear_363_1257)" fill-opacity="0.19"/>
<path id="Vector_3" d="M105.928 136.532L132.279 165.24L141.144 174.881L210.49 98.1836V155.705L141.144 234L79.5653 165.24L105.928 136.532Z" fill="#FF00F2"/>
<path id="Vector_4" d="M-0.000154646 99.3027L70.4338 175.366L105.652 137.335L132.003 165.805L105.652 194.998L70.4338 233.998L-0.000154646 156.35V99.3027Z" fill="#FF00F2"/>
</g>
<defs>
<linearGradient id="paint0_linear_363_1257" x1="66.2778" y1="0.535156" x2="66.2778" y2="136.35" gradientUnits="userSpaceOnUse">
<stop stop-color="#DBDBEB" stop-opacity="0.17"/>
<stop offset="1" stop-color="#273349"/>
</linearGradient>
<linearGradient id="paint1_linear_363_1257" x1="145.025" y1="0.53125" x2="145.025" y2="136.346" gradientUnits="userSpaceOnUse">
<stop stop-color="#DBDBEB" stop-opacity="0.17"/>
<stop offset="1" stop-color="#273349"/>
</linearGradient>
</defs>
</svg>
