<svg width="211" height="330" viewBox="0 0 211 330" fill="none" xmlns="http://www.w3.org/2000/svg">
<path d="M0.276215 0L70.7101 76.0617L105.928 38.0318L132.279 66.5004L105.928 95.6948L70.7101 134.693L0.276215 57.0476V0Z" fill="url(#paint0_linear_270_549)" fill-opacity="0.19"/>
<path d="M105.928 38.0318L132.279 66.5004L141.144 76.0617L210.49 0V57.0476L141.144 134.693L79.5653 66.5004L105.928 38.0318Z" fill="url(#paint1_linear_270_549)" fill-opacity="0.19"/>
<path d="M0.276215 96.5342L70.7101 173.229L105.928 134.881L132.279 163.588L105.928 193.025L70.7101 232.349L0.276215 154.056V96.5342Z" fill="url(#paint2_linear_270_549)" fill-opacity="0.19"/>
<path d="M105.925 134.878L132.277 163.586L141.141 173.226L210.487 96.5312V154.053L141.141 232.346L79.5626 163.586L105.925 134.878Z" fill="url(#paint3_linear_270_549)" fill-opacity="0.19"/>
<path d="M105.928 232.532L132.279 261.24L141.144 270.881L210.49 194.184V251.705L141.144 330L79.5653 261.24L105.928 232.532Z" fill="#FF00F2"/>
<path d="M-0.000152588 195.304L70.4338 271.367L105.652 233.336L132.003 261.806L105.652 290.999L70.4338 329.999L-0.000152588 252.351V195.304Z" fill="#FF00F2"/>
<defs>
<linearGradient id="paint0_linear_270_549" x1="66.2778" y1="0" x2="66.2778" y2="134.693" gradientUnits="userSpaceOnUse">
<stop stop-color="#DBDBEB" stop-opacity="0.17"/>
<stop offset="1" stop-color="#273349"/>
</linearGradient>
<linearGradient id="paint1_linear_270_549" x1="145.028" y1="0" x2="145.028" y2="134.693" gradientUnits="userSpaceOnUse">
<stop stop-color="#DBDBEB" stop-opacity="0.17"/>
<stop offset="1" stop-color="#273349"/>
</linearGradient>
<linearGradient id="paint2_linear_270_549" x1="66.2778" y1="96.5342" x2="66.2778" y2="232.349" gradientUnits="userSpaceOnUse">
<stop stop-color="#DBDBEB" stop-opacity="0.17"/>
<stop offset="1" stop-color="#273349"/>
</linearGradient>
<linearGradient id="paint3_linear_270_549" x1="145.025" y1="96.5312" x2="145.025" y2="232.346" gradientUnits="userSpaceOnUse">
<stop stop-color="#DBDBEB" stop-opacity="0.17"/>
<stop offset="1" stop-color="#273349"/>
</linearGradient>
</defs>
</svg>
