<svg width="241" height="491" viewBox="0 0 241 491" fill="none" xmlns="http://www.w3.org/2000/svg">
<path d="M241 0L160.252 87.9263L119.877 43.9642L89.6665 76.8735L119.877 110.621L160.252 155.704L241 65.9453V0Z" fill="url(#paint0_linear_270_657)" fill-opacity="0.19"/>
<path d="M119.874 43.9642L89.6638 76.8735L79.501 87.9263L0.000244141 0L0.000244141 65.9453L79.501 155.704L150.097 76.8735L119.874 43.9642Z" fill="url(#paint1_linear_270_657)" fill-opacity="0.19"/>
<path d="M240.999 111.953L160.251 199.153L119.876 155.552L89.6655 188.192L119.876 221.661L160.251 266.37L240.999 177.353V111.953Z" fill="url(#paint2_linear_270_657)" fill-opacity="0.19"/>
<path d="M119.874 155.552L89.6636 188.192L79.5008 199.153L0 111.953L0 177.353L79.5008 266.37L150.097 188.192L119.874 155.552Z" fill="url(#paint3_linear_270_657)" fill-opacity="0.19"/>
<path d="M241 223.904L160.252 311.107L119.876 267.505L89.6663 300.145L119.876 333.612L160.252 378.324L241 289.306V223.904Z" fill="#2007CD"/>
<path d="M119.874 267.505L89.6638 300.145L79.501 311.107L0.000244141 223.904L0.000244141 289.306L79.501 378.324L150.097 300.145L119.874 267.505Z" fill="#2007CD"/>
<path d="M240.999 334.57L160.251 422.497L119.876 378.535L89.6655 411.444L119.876 445.191L160.251 490.274L240.999 400.516V334.57Z" fill="url(#paint4_linear_270_657)" fill-opacity="0.19"/>
<path d="M119.874 378.535L89.6636 411.444L79.5008 422.497L0 334.57L0 400.516L79.5008 490.274L150.097 411.444L119.874 378.535Z" fill="url(#paint5_linear_270_657)" fill-opacity="0.19"/>
<defs>
<linearGradient id="paint0_linear_270_657" x1="165.333" y1="0" x2="165.333" y2="155.704" gradientUnits="userSpaceOnUse">
<stop stop-color="#F9F9FB" stop-opacity="0.17"/>
<stop offset="1" stop-color="#273349"/>
</linearGradient>
<linearGradient id="paint1_linear_270_657" x1="75.0487" y1="0" x2="75.0487" y2="155.704" gradientUnits="userSpaceOnUse">
<stop stop-color="#F9F9FB" stop-opacity="0.17"/>
<stop offset="1" stop-color="#273349"/>
</linearGradient>
<linearGradient id="paint2_linear_270_657" x1="165.332" y1="111.953" x2="165.332" y2="266.37" gradientUnits="userSpaceOnUse">
<stop stop-color="#F9F9FB" stop-opacity="0.17"/>
<stop offset="1" stop-color="#273349"/>
</linearGradient>
<linearGradient id="paint3_linear_270_657" x1="75.0484" y1="111.953" x2="75.0484" y2="266.37" gradientUnits="userSpaceOnUse">
<stop stop-color="#F9F9FB" stop-opacity="0.17"/>
<stop offset="1" stop-color="#273349"/>
</linearGradient>
<linearGradient id="paint4_linear_270_657" x1="165.332" y1="334.57" x2="165.332" y2="490.274" gradientUnits="userSpaceOnUse">
<stop stop-color="#F9F9FB" stop-opacity="0.17"/>
<stop offset="1" stop-color="#273349"/>
</linearGradient>
<linearGradient id="paint5_linear_270_657" x1="75.0484" y1="334.57" x2="75.0484" y2="490.274" gradientUnits="userSpaceOnUse">
<stop stop-color="#F9F9FB" stop-opacity="0.17"/>
<stop offset="1" stop-color="#273349"/>
</linearGradient>
</defs>
</svg>
