<svg width="211" height="234" viewBox="0 0 211 234" fill="none" xmlns="http://www.w3.org/2000/svg">
<g id="arrow_string_pink">
<path id="Vector" d="M210.214 233.465L139.78 156.77L104.562 195.118L78.2104 166.411L104.562 136.974L139.78 97.6497L210.214 175.943L210.214 233.465Z" fill="url(#paint0_linear_363_2014)" fill-opacity="0.19"/>
<path id="Vector_2" d="M104.565 195.122L78.2135 166.414L69.3488 156.774L0.00292969 233.469L0.00292969 175.947L69.3488 97.6536L130.927 166.414L104.565 195.122Z" fill="url(#paint1_linear_363_2014)" fill-opacity="0.19"/>
<path id="Vector_3" d="M104.562 97.468L78.2105 68.7605L69.3458 59.1195L0 135.816L0 78.2947L69.3458 -0.000364622L130.924 68.7605L104.562 97.468Z" fill="#2007CD"/>
<path id="Vector_4" d="M210.49 134.697L140.056 58.6337L104.838 96.6655L78.4868 68.195L104.838 39.0025L140.056 0.00241351L210.49 77.6496L210.49 134.697Z" fill="#2007CD"/>
</g>
<defs>
<linearGradient id="paint0_linear_363_2014" x1="144.212" y1="233.465" x2="144.212" y2="97.6497" gradientUnits="userSpaceOnUse">
<stop stop-color="#DBDBEB" stop-opacity="0.17"/>
<stop offset="1" stop-color="#273349"/>
</linearGradient>
<linearGradient id="paint1_linear_363_2014" x1="65.4651" y1="233.469" x2="65.4651" y2="97.6536" gradientUnits="userSpaceOnUse">
<stop stop-color="#DBDBEB" stop-opacity="0.17"/>
<stop offset="1" stop-color="#273349"/>
</linearGradient>
</defs>
</svg>
