<svg width="1422" height="2089" viewBox="0 0 1422 2089" fill="none" xmlns="http://www.w3.org/2000/svg">
<path d="M483.445 249L1010.02 779.585L746.74 1044.88L943.83 1243.39L1145.94 1044.88L1415.93 779.585L878.382 249L483.445 249Z" fill="url(#paint0_linear_363_1799)" fill-opacity="0.19"/>
<path d="M2.99361 249L529.573 779.585L266.289 1044.88L463.379 1243.39L665.489 1044.88L935.482 779.585L397.931 249L2.99361 249Z" fill="url(#paint1_linear_363_1799)" fill-opacity="0.19"/>
<path d="M744.49 1042.14L941.58 1240.55L1007.77 1307.3L481.195 1829.42L876.132 1829.42L1413.68 1307.3L941.58 843.653L744.49 1042.14Z" fill="url(#paint2_linear_363_1799)" fill-opacity="0.19"/>
<path d="M266.289 1042.41L463.379 1240.82L529.573 1307.56L2.99365 1829.69L397.931 1829.69L935.482 1307.56L463.379 843.919L266.289 1042.41Z" fill="url(#paint3_linear_363_1799)" fill-opacity="0.19"/>
<g filter="url(#filter0_d_363_1799)">
<rect y="51" width="1422" height="1987" fill="url(#paint4_linear_363_1799)" shape-rendering="crispEdges"/>
</g>
<defs>
<filter id="filter0_d_363_1799" x="-51" y="0" width="1524" height="2089" filterUnits="userSpaceOnUse" color-interpolation-filters="sRGB">
<feFlood flood-opacity="0" result="BackgroundImageFix"/>
<feColorMatrix in="SourceAlpha" type="matrix" values="0 0 0 0 0 0 0 0 0 0 0 0 0 0 0 0 0 0 127 0" result="hardAlpha"/>
<feMorphology radius="11" operator="dilate" in="SourceAlpha" result="effect1_dropShadow_363_1799"/>
<feOffset/>
<feGaussianBlur stdDeviation="20"/>
<feComposite in2="hardAlpha" operator="out"/>
<feColorMatrix type="matrix" values="0 0 0 0 0 0 0 0 0 0 0 0 0 0 0 0 0 0 0.07 0"/>
<feBlend mode="normal" in2="BackgroundImageFix" result="effect1_dropShadow_363_1799"/>
<feBlend mode="normal" in="SourceGraphic" in2="effect1_dropShadow_363_1799" result="shape"/>
</filter>
<linearGradient id="paint0_linear_363_1799" x1="483.445" y1="746.195" x2="1415.93" y2="746.195" gradientUnits="userSpaceOnUse">
<stop stop-color="#5AFBC4" stop-opacity="0.81"/>
<stop offset="1" stop-color="#FF00F2" stop-opacity="0.13"/>
</linearGradient>
<linearGradient id="paint1_linear_363_1799" x1="2.99363" y1="746.195" x2="935.482" y2="746.195" gradientUnits="userSpaceOnUse">
<stop stop-color="#FF00F2" stop-opacity="0.35"/>
<stop offset="1" stop-color="#5AFBC4" stop-opacity="0.81"/>
</linearGradient>
<linearGradient id="paint2_linear_363_1799" x1="481.195" y1="1336.54" x2="1413.68" y2="1336.54" gradientUnits="userSpaceOnUse">
<stop stop-color="#5AFBC4" stop-opacity="0.81"/>
<stop offset="1" stop-color="#FF00F2" stop-opacity="0.13"/>
</linearGradient>
<linearGradient id="paint3_linear_363_1799" x1="2.99363" y1="1336.8" x2="935.482" y2="1336.8" gradientUnits="userSpaceOnUse">
<stop stop-color="#FF00F2" stop-opacity="0.35"/>
<stop offset="1" stop-color="#5AFBC4" stop-opacity="0.81"/>
</linearGradient>
<linearGradient id="paint4_linear_363_1799" x1="711" y1="51" x2="711" y2="2038" gradientUnits="userSpaceOnUse">
<stop stop-color="#5AFBC4" stop-opacity="0.81"/>
<stop offset="0.505208" stop-color="#0038FF" stop-opacity="0.54"/>
<stop offset="1" stop-color="#FF00F2" stop-opacity="0.35"/>
</linearGradient>
</defs>
</svg>
