<svg width="571" height="871" viewBox="0 0 571 871" fill="none" xmlns="http://www.w3.org/2000/svg">
<g opacity="0.3">
<path d="M490.268 0L342.071 161.371L267.97 80.6837L212.525 141.086L267.97 203.023L342.071 285.763L490.268 121.029V0Z" fill="url(#paint0_linear_363_1864)" fill-opacity="0.19"/>
<path d="M267.972 80.6837L212.527 141.086L193.876 161.371L47.9678 0V121.029L193.876 285.763L323.441 141.086L267.972 80.6837Z" fill="url(#paint1_linear_363_1864)" fill-opacity="0.19"/>
<path d="M267.977 285.492L212.532 345.395L193.88 365.513L47.9722 205.471V325.502L193.88 488.877L323.445 345.395L267.977 285.492Z" fill="url(#paint2_linear_363_1864)" fill-opacity="0.19"/>
<path d="M492.192 382.127L343.995 542.165L269.894 462.148L214.45 522.048L269.894 583.475L343.995 665.529L492.192 502.159V382.127Z" fill="#5AFBC4"/>
<path d="M269.894 462.148L214.449 522.048L195.797 542.165L49.8892 382.127V502.159L195.797 665.529L325.362 522.048L269.894 462.148Z" fill="#5AFBC4" fill-opacity="0.26"/>
<path d="M492.193 587.598L343.996 747.636L269.895 667.615L214.451 727.518L269.895 788.945L343.996 871L492.193 707.625V587.598Z" fill="url(#paint3_linear_363_1864)" fill-opacity="0.19"/>
<path d="M269.891 667.615L214.446 727.518L195.795 747.636L49.8867 587.598V707.625L195.795 871L325.36 727.518L269.891 667.615Z" fill="url(#paint4_linear_363_1864)" fill-opacity="0.19"/>
<path d="M490.85 205.471L342.653 365.509L268.552 285.492L213.107 345.392L268.552 406.818L342.653 488.873L490.85 325.502V205.471Z" fill="url(#paint5_linear_363_1864)" fill-opacity="0.19"/>
</g>
<path d="M69.9392 148.193H74.2945V166.454H81.4495V169.907H69.9392V148.193Z" fill="#273349"/>
<path d="M83.0978 161.228C83.0978 155.846 86.5821 152.393 90.9684 152.393C93.7372 152.393 95.6348 153.7 96.6614 155.131V152.673H101.048V169.907H96.6614V167.388C95.6348 168.881 93.6749 170.187 90.9373 170.187C86.5821 170.187 83.0978 166.61 83.0978 161.228ZM96.6614 161.29C96.6614 158.024 94.4838 156.219 92.0884 156.219C89.7552 156.219 87.5464 157.962 87.5464 161.228C87.5464 164.494 89.7552 166.361 92.0884 166.361C94.4838 166.361 96.6614 164.557 96.6614 161.29Z" fill="#273349"/>
<path d="M121.572 152.673V169.907H117.185V167.73C116.096 169.192 114.199 170.125 112.052 170.125C108.039 170.125 105.146 167.512 105.146 162.783V152.673H109.501V162.161C109.501 164.93 111.026 166.423 113.328 166.423C115.692 166.423 117.185 164.93 117.185 162.161V152.673H121.572Z" fill="#273349"/>
<path d="M137.939 169.907V160.388C137.939 157.619 136.415 156.126 134.113 156.126C131.748 156.126 130.224 157.619 130.224 160.388V169.907H125.869V152.673H130.224V154.82C131.344 153.357 133.21 152.424 135.419 152.424C139.432 152.424 142.294 155.037 142.294 159.797V169.907H137.939Z" fill="#273349"/>
<path d="M145.316 161.29C145.316 155.877 148.862 152.393 153.84 152.393C158.133 152.393 161.026 154.633 161.959 158.49H157.262C156.764 157.028 155.613 156.095 153.809 156.095C151.382 156.095 149.765 157.93 149.765 161.29C149.765 164.65 151.382 166.454 153.809 166.454C155.613 166.454 156.733 165.646 157.262 164.09H161.959C161.026 167.761 158.133 170.187 153.84 170.187C148.862 170.187 145.316 166.703 145.316 161.29Z" fill="#273349"/>
<path d="M165.15 169.907V146.887H169.505V154.82C170.625 153.357 172.554 152.424 174.856 152.424C178.745 152.424 181.576 155.037 181.576 159.797V169.907H177.22V160.388C177.22 157.619 175.696 156.126 173.394 156.126C171.03 156.126 169.505 157.619 169.505 160.388V169.907H165.15Z" fill="#273349"/>
<path d="M74.3256 216.602L68.4771 194.857H73.1434L76.9698 211.718L81.3873 194.857H86.2403L90.409 211.625L94.2665 194.857H98.964L92.8977 216.571H87.7647L83.6894 201.11L79.4275 216.571L74.3256 216.602Z" fill="#273349"/>
<path d="M109.212 202.634C107.127 202.634 105.479 203.972 105.136 206.336H113.318C113.256 204.065 111.452 202.634 109.212 202.634ZM117.393 211.158C116.46 214.331 113.598 216.851 109.336 216.851C104.328 216.851 100.688 213.367 100.688 207.954C100.688 202.51 104.234 199.057 109.336 199.057C114.314 199.057 117.829 202.448 117.829 207.581C117.829 208.141 117.798 208.7 117.705 209.26H105.105C105.323 211.811 107.065 213.242 109.243 213.242C111.109 213.242 112.136 212.309 112.696 211.158H117.393Z" fill="#273349"/>
<path d="M121.475 216.571V202.914H119.515V199.337H121.475V198.466C121.475 194.235 123.87 192.275 128.723 192.399V196.07C126.608 196.008 125.892 196.692 125.892 198.621V199.337H128.91V202.914H125.892V216.571H121.475Z" fill="#273349"/>
<path d="M132.416 211.22V202.914H130.363V199.337H132.416V195.075H136.803V199.337H140.66V202.914H136.803V211.251C136.803 212.402 137.269 212.9 138.638 212.9H140.66V216.571H137.923C134.625 216.571 132.416 215.171 132.416 211.22Z" fill="#273349"/>
<path d="M150.086 207.892C150.086 202.51 153.57 199.057 157.987 199.057C160.258 199.057 162.436 200.114 163.618 201.732V193.55H168.036V216.571H163.618V214.02C162.592 215.607 160.663 216.851 157.956 216.851C153.57 216.851 150.086 213.274 150.086 207.892ZM163.649 207.954C163.649 204.687 161.472 202.883 159.076 202.883C156.743 202.883 154.534 204.625 154.534 207.892C154.534 211.158 156.743 213.025 159.076 213.025C161.472 213.025 163.649 211.22 163.649 207.954Z" fill="#273349"/>
<path d="M187.035 216.571L185.604 212.434H176.956L175.525 216.571H170.952L178.76 194.826H183.831L191.639 216.571H187.035ZM184.422 208.949L181.28 199.865L178.138 208.949H184.422Z" fill="#273349"/>
<path d="M198.913 201.825C199.94 200.363 201.931 199.057 204.606 199.057C209.024 199.057 212.477 202.51 212.477 207.892C212.477 213.274 209.024 216.851 204.606 216.851C201.9 216.851 199.971 215.513 198.913 214.113V224.784H194.558V199.337H198.913V201.825ZM208.028 207.892C208.028 204.625 205.819 202.883 203.455 202.883C201.122 202.883 198.913 204.687 198.913 207.954C198.913 211.22 201.122 213.025 203.455 213.025C205.819 213.025 208.028 211.158 208.028 207.892Z" fill="#273349"/>
<path d="M219.997 201.825C221.023 200.363 223.014 199.057 225.69 199.057C230.107 199.057 233.56 202.51 233.56 207.892C233.56 213.274 230.107 216.851 225.69 216.851C222.983 216.851 221.055 215.513 219.997 214.113V224.784H215.642V199.337H219.997V201.825ZM229.112 207.892C229.112 204.625 226.903 202.883 224.539 202.883C222.206 202.883 219.997 204.687 219.997 207.954C219.997 211.22 222.206 213.025 224.539 213.025C226.903 213.025 229.112 211.158 229.112 207.892Z" fill="#273349"/>
<path d="M203.987 151.112L214.959 162.606L218.65 166.466L247.447 135.688L247.475 158.745L218.679 190.163L193.039 162.632L203.987 151.112Z" fill="#2007CD"/>
<path d="M530.016 173.869L540.242 184.582L543.683 188.18L570.524 159.492L570.55 180.983L543.71 210.268L519.811 184.607L530.016 173.869Z" fill="#5AFBC4"/>
<path d="M413.511 149.346C413.511 143.286 417.947 138.994 423.775 138.994C428.27 138.994 431.923 141.401 433.286 145.547H428.618C427.661 143.605 425.921 142.648 423.746 142.648C420.209 142.648 417.686 145.228 417.686 149.346C417.686 153.434 420.209 156.044 423.746 156.044C425.921 156.044 427.661 155.087 428.618 153.115H433.286C431.923 157.291 428.27 159.668 423.775 159.668C417.947 159.668 413.511 155.406 413.511 149.346Z" fill="#273349"/>
<path d="M452.266 151.463C452.266 156.508 448.555 159.755 443.887 159.755C439.247 159.755 435.739 156.508 435.739 151.463C435.739 146.388 439.363 143.17 444.003 143.17C448.642 143.17 452.266 146.388 452.266 151.463ZM439.856 151.463C439.856 154.652 441.712 156.218 443.887 156.218C446.032 156.218 448.091 154.652 448.091 151.463C448.091 148.244 446.09 146.707 443.945 146.707C441.799 146.707 439.856 148.244 439.856 151.463Z" fill="#273349"/>
<path d="M466.495 159.494V150.622C466.495 148.041 465.074 146.649 462.928 146.649C460.725 146.649 459.304 148.041 459.304 150.622V159.494H455.244V143.431H459.304V145.431C460.348 144.068 462.087 143.199 464.146 143.199C467.887 143.199 470.554 145.634 470.554 150.071V159.494H466.495Z" fill="#273349"/>
<path d="M485.665 159.494V150.622C485.665 148.041 484.244 146.649 482.099 146.649C479.895 146.649 478.474 148.041 478.474 150.622V159.494H474.415V143.431H478.474V145.431C479.518 144.068 481.258 143.199 483.316 143.199C487.057 143.199 489.725 145.634 489.725 150.071V159.494H485.665Z" fill="#273349"/>
<path d="M500.486 146.504C498.543 146.504 497.007 147.751 496.688 149.955H504.314C504.256 147.838 502.574 146.504 500.486 146.504ZM508.112 154.449C507.242 157.407 504.575 159.755 500.602 159.755C495.934 159.755 492.541 156.508 492.541 151.463C492.541 146.388 495.847 143.17 500.602 143.17C505.241 143.17 508.518 146.33 508.518 151.115C508.518 151.637 508.489 152.158 508.402 152.68H496.659C496.862 155.058 498.485 156.392 500.515 156.392C502.255 156.392 503.212 155.522 503.734 154.449H508.112Z" fill="#273349"/>
<path d="M510.437 151.463C510.437 146.417 513.743 143.17 518.382 143.17C522.384 143.17 525.08 145.257 525.95 148.853H521.572C521.108 147.49 520.035 146.62 518.353 146.62C516.092 146.62 514.584 148.331 514.584 151.463C514.584 154.594 516.092 156.276 518.353 156.276C520.035 156.276 521.079 155.522 521.572 154.072H525.95C525.08 157.494 522.384 159.755 518.382 159.755C513.743 159.755 510.437 156.508 510.437 151.463Z" fill="#273349"/>
<path d="M529.562 154.507V146.765H527.648V143.431H529.562V139.458H533.651V143.431H537.246V146.765H533.651V154.536C533.651 155.609 534.086 156.073 535.361 156.073H537.246V159.494H534.694C531.621 159.494 529.562 158.19 529.562 154.507Z" fill="#273349"/>
<path d="M425.225 177.443C425.225 175.645 424.21 174.515 421.949 174.515H418.556V180.459H421.949C424.21 180.459 425.225 179.27 425.225 177.443ZM414.497 171.151H422.094C426.965 171.151 429.401 173.964 429.401 177.356C429.401 179.821 428.038 182.315 424.79 183.184L429.633 191.39H424.935L420.47 183.503H418.556V191.39H414.497V171.151Z" fill="#273349"/>
<path d="M432.028 183.3C432.028 178.284 435.276 175.065 439.365 175.065C441.945 175.065 443.714 176.283 444.671 177.617V175.326H448.759V191.39H444.671V189.042C443.714 190.433 441.887 191.651 439.336 191.651C435.276 191.651 432.028 188.317 432.028 183.3ZM444.671 183.358C444.671 180.314 442.641 178.632 440.408 178.632C438.234 178.632 436.175 180.256 436.175 183.3C436.175 186.345 438.234 188.085 440.408 188.085C442.641 188.085 444.671 186.403 444.671 183.358Z" fill="#273349"/>
<path d="M451.68 183.3C451.68 178.284 454.928 175.065 459.045 175.065C461.162 175.065 463.192 176.051 464.294 177.559V169.933H468.411V191.39H464.294V189.013C463.337 190.491 461.539 191.651 459.016 191.651C454.928 191.651 451.68 188.317 451.68 183.3ZM464.323 183.358C464.323 180.314 462.293 178.632 460.06 178.632C457.885 178.632 455.827 180.256 455.827 183.3C455.827 186.345 457.885 188.085 460.06 188.085C462.293 188.085 464.323 186.403 464.323 183.358Z" fill="#273349"/>
<path d="M472.376 191.39V175.326H476.435V191.39H472.376ZM474.435 173.413C472.985 173.413 471.941 172.369 471.941 171.035C471.941 169.701 472.985 168.657 474.435 168.657C475.855 168.657 476.928 169.701 476.928 171.035C476.928 172.369 475.855 173.413 474.435 173.413Z" fill="#273349"/>
<path d="M489.319 191.39L486.013 186.403L483.085 191.39H478.735L483.984 183.329L478.677 175.326H483.259L486.535 180.285L489.493 175.326H493.842L488.565 183.329L493.9 191.39H489.319Z" fill="#273349"/>
<path d="M418.585 223.315L413.134 203.047H417.483L421.05 218.763L425.167 203.047H429.691L433.576 218.676L437.172 203.047H441.55L435.896 223.286H431.111L427.313 208.875L423.34 223.286L418.585 223.315Z" fill="#273349"/>
<path d="M443.157 215.196C443.157 210.18 446.404 206.961 450.493 206.961C453.074 206.961 454.842 208.179 455.799 209.513V207.222H459.888V223.286H455.799V220.938C454.842 222.329 453.016 223.547 450.464 223.547C446.404 223.547 443.157 220.213 443.157 215.196ZM455.799 215.254C455.799 212.21 453.77 210.528 451.537 210.528C449.362 210.528 447.303 212.152 447.303 215.196C447.303 218.241 449.362 219.981 451.537 219.981C453.77 219.981 455.799 218.299 455.799 215.254Z" fill="#273349"/>
<path d="M463.853 223.286V201.829H467.912V223.286H463.853Z" fill="#273349"/>
<path d="M471.923 223.286V201.829H475.982V223.286H471.923Z" fill="#273349"/>
<path d="M486.894 210.296C484.951 210.296 483.415 211.543 483.096 213.746H490.722C490.664 211.63 488.982 210.296 486.894 210.296ZM494.52 218.241C493.65 221.199 490.983 223.547 487.01 223.547C482.342 223.547 478.949 220.3 478.949 215.254C478.949 210.18 482.255 206.961 487.01 206.961C491.65 206.961 494.926 210.122 494.926 214.906C494.926 215.428 494.897 215.95 494.81 216.472H483.067C483.27 218.85 484.893 220.184 486.923 220.184C488.663 220.184 489.62 219.314 490.142 218.241H494.52Z" fill="#273349"/>
<path d="M498.527 218.299V210.557H496.613V207.222H498.527V203.25H502.616V207.222H506.211V210.557H502.616V218.328C502.616 219.401 503.05 219.865 504.326 219.865H506.211V223.286H503.659C500.586 223.286 498.527 221.981 498.527 218.299Z" fill="#273349"/>
<path d="M116.717 402.969V380.459H121.845L129.004 397.196L136.163 380.459H141.258V402.969H136.744V388.328L130.713 402.969H127.295L121.232 388.328V402.969H116.717Z" fill="#273349"/>
<path d="M145.722 402.969V385.103H150.237V402.969H145.722ZM148.012 382.974C146.399 382.974 145.238 381.813 145.238 380.33C145.238 378.847 146.399 377.686 148.012 377.686C149.592 377.686 150.785 378.847 150.785 380.33C150.785 381.813 149.592 382.974 148.012 382.974Z" fill="#273349"/>
<path d="M167.211 402.969V393.101C167.211 390.23 165.63 388.683 163.244 388.683C160.793 388.683 159.213 390.23 159.213 393.101V402.969H154.698V385.103H159.213V387.328C160.374 385.812 162.309 384.845 164.598 384.845C168.758 384.845 171.725 387.554 171.725 392.488V402.969H167.211Z" fill="#273349"/>
<path d="M176.728 397.422V388.812H174.6V385.103H176.728V380.685H181.275V385.103H185.274V388.812H181.275V397.454C181.275 398.648 181.759 399.163 183.178 399.163H185.274V402.969H182.436C179.018 402.969 176.728 401.518 176.728 397.422Z" fill="#273349"/>
<path d="M121.264 451.375L115.201 428.833H120.039L124.005 446.312L128.585 428.833H133.615L137.937 446.215L141.936 428.833H146.805L140.517 451.343H135.196L130.971 435.315L126.553 451.343L121.264 451.375Z" fill="#273349"/>
<path d="M157.429 436.895C155.268 436.895 153.559 438.282 153.204 440.733H161.686C161.621 438.378 159.751 436.895 157.429 436.895ZM165.91 445.731C164.943 449.021 161.976 451.633 157.558 451.633C152.366 451.633 148.592 448.021 148.592 442.41C148.592 436.766 152.269 433.186 157.558 433.186C162.718 433.186 166.362 436.702 166.362 442.023C166.362 442.603 166.329 443.184 166.233 443.764H153.172C153.398 446.409 155.203 447.892 157.461 447.892C159.396 447.892 160.46 446.925 161.041 445.731H165.91Z" fill="#273349"/>
<path d="M170.141 451.343V437.185H168.109V433.477H170.141V432.574C170.141 428.188 172.624 426.156 177.655 426.285V430.09C175.462 430.026 174.72 430.735 174.72 432.735V433.477H177.848V437.185H174.72V451.343H170.141Z" fill="#273349"/>
<path d="M181.484 445.796V437.185H179.355V433.477H181.484V429.058H186.031V433.477H190.03V437.185H186.031V445.828C186.031 447.021 186.515 447.537 187.934 447.537H190.03V451.343H187.192C183.773 451.343 181.484 449.891 181.484 445.796Z" fill="#273349"/>
<path d="M200.888 445.957L205.564 433.477H210.369L199.308 459.792H194.503L198.373 450.891L191.213 433.477H196.276L200.888 445.957Z" fill="#273349"/>
<path d="M205.692 383.482L217.065 395.397L220.892 399.398L250.744 367.492L250.773 391.394L220.922 423.964L194.342 395.424L205.692 383.482Z" fill="#5AFBC4"/>
<path d="M421.681 419.049C421.681 421.836 419.159 424.344 414.602 424.344C410.446 424.344 407.236 422.419 407.178 419.074H411.478C411.592 420.493 412.653 421.43 414.516 421.43C416.407 421.43 417.525 420.544 417.525 419.277C417.525 415.45 407.207 417.756 407.236 411.345C407.236 408.153 410.159 406.227 414.286 406.227C418.385 406.227 421.194 408.077 421.452 411.269H417.038C416.952 410.104 415.892 409.192 414.172 409.166C412.595 409.116 411.42 409.8 411.42 411.244C411.42 414.792 421.681 412.815 421.681 419.049Z" fill="#273349"/>
<path d="M440.15 410.129V424.167H436.108V422.393C435.105 423.584 433.357 424.344 431.379 424.344C427.682 424.344 425.017 422.216 425.017 418.364V410.129H429.029V417.858C429.029 420.113 430.433 421.329 432.554 421.329C434.733 421.329 436.108 420.113 436.108 417.858V410.129H440.15Z" fill="#273349"/>
<path d="M448.121 412.156C449.067 410.965 450.901 409.901 453.366 409.901C457.436 409.901 460.618 412.714 460.618 417.097C460.618 421.481 457.436 424.395 453.366 424.395C450.873 424.395 449.096 423.306 448.121 422.165V430.857H444.109V410.129H448.121V412.156ZM456.519 417.097C456.519 414.437 454.484 413.018 452.306 413.018C450.156 413.018 448.121 414.487 448.121 417.148C448.121 419.809 450.156 421.278 452.306 421.278C454.484 421.278 456.519 419.758 456.519 417.097Z" fill="#273349"/>
<path d="M467.546 412.156C468.492 410.965 470.326 409.901 472.791 409.901C476.861 409.901 480.042 412.714 480.042 417.097C480.042 421.481 476.861 424.395 472.791 424.395C470.297 424.395 468.52 423.306 467.546 422.165V430.857H463.533V410.129H467.546V412.156ZM475.944 417.097C475.944 414.437 473.909 413.018 471.731 413.018C469.581 413.018 467.546 414.487 467.546 417.148C467.546 419.809 469.581 421.278 471.731 421.278C473.909 421.278 475.944 419.758 475.944 417.097Z" fill="#273349"/>
<path d="M482.958 424.167V405.416H486.971V424.167H482.958Z" fill="#273349"/>
<path d="M497.699 419.935L501.855 410.129H506.126L496.295 430.806H492.024L495.464 423.812L489.101 410.129H493.601L497.699 419.935Z" fill="#273349"/>
<path d="M406.663 455.157C406.663 450.748 409.93 447.91 414.516 447.91C418.471 447.91 421.137 449.734 421.996 452.876H417.669C417.21 451.686 416.149 450.925 414.487 450.925C412.252 450.925 410.761 452.42 410.761 455.157C410.761 457.894 412.252 459.363 414.487 459.363C416.149 459.363 417.181 458.705 417.669 457.438H421.996C421.137 460.428 418.471 462.404 414.516 462.404C409.93 462.404 406.663 459.566 406.663 455.157Z" fill="#273349"/>
<path d="M440.27 455.157C440.27 459.566 436.601 462.404 431.987 462.404C427.401 462.404 423.933 459.566 423.933 455.157C423.933 450.723 427.515 447.91 432.101 447.91C436.687 447.91 440.27 450.723 440.27 455.157ZM428.003 455.157C428.003 457.944 429.837 459.313 431.987 459.313C434.108 459.313 436.142 457.944 436.142 455.157C436.142 452.344 434.165 451.001 432.044 451.001C429.923 451.001 428.003 452.344 428.003 455.157Z" fill="#273349"/>
<path d="M443.213 462.176V443.425H447.226V462.176H443.213Z" fill="#273349"/>
<path d="M451.19 462.176V443.425H455.203V462.176H451.19Z" fill="#273349"/>
<path d="M458.135 455.106C458.135 450.723 461.345 447.91 465.387 447.91C467.937 447.91 469.686 448.974 470.632 450.14V448.138H474.673V462.176H470.632V460.124C469.686 461.34 467.88 462.404 465.358 462.404C461.345 462.404 458.135 459.49 458.135 455.106ZM470.632 455.157C470.632 452.496 468.625 451.027 466.418 451.027C464.269 451.027 462.234 452.446 462.234 455.106C462.234 457.767 464.269 459.287 466.418 459.287C468.625 459.287 470.632 457.818 470.632 455.157Z" fill="#273349"/>
<path d="M479.222 457.818V451.052H477.331V448.138H479.222V444.667H483.264V448.138H486.818V451.052H483.264V457.843C483.264 458.781 483.693 459.186 484.955 459.186H486.818V462.176H484.295C481.257 462.176 479.222 461.036 479.222 457.818Z" fill="#273349"/>
<path d="M496.525 450.824C494.605 450.824 493.086 451.914 492.77 453.839H500.308C500.251 451.99 498.589 450.824 496.525 450.824ZM504.063 457.767C503.203 460.352 500.566 462.404 496.64 462.404C492.025 462.404 488.672 459.566 488.672 455.157C488.672 450.723 491.939 447.91 496.64 447.91C501.225 447.91 504.464 450.672 504.464 454.853C504.464 455.309 504.435 455.765 504.349 456.221H492.742C492.942 458.299 494.547 459.465 496.554 459.465C498.273 459.465 499.219 458.705 499.735 457.767H504.063Z" fill="#273349"/>
<path d="M511.405 455.182V462.176H507.393V448.138H511.405V450.317C512.409 448.873 514.071 447.935 516.278 447.935V451.66H515.217C512.839 451.66 511.405 452.471 511.405 455.182Z" fill="#273349"/>
<path d="M517.949 455.106C517.949 450.723 521.159 447.91 525.2 447.91C527.751 447.91 529.499 448.974 530.445 450.14V448.138H534.486V462.176H530.445V460.124C529.499 461.34 527.694 462.404 525.171 462.404C521.159 462.404 517.949 459.49 517.949 455.106ZM530.445 455.157C530.445 452.496 528.439 451.027 526.232 451.027C524.082 451.027 522.047 452.446 522.047 455.106C522.047 457.767 524.082 459.287 526.232 459.287C528.439 459.287 530.445 457.818 530.445 455.157Z" fill="#273349"/>
<path d="M538.405 462.176V443.425H542.418V462.176H538.405Z" fill="#273349"/>
<path d="M530.708 402.146L540.816 411.508L544.217 414.652L570.748 389.582L570.773 408.363L544.243 433.954L520.621 411.529L530.708 402.146Z" fill="#505A6C"/>
<path d="M570.748 369.689C570.748 370.242 570.3 370.689 569.748 370.689H388.316C387.764 370.689 387.316 370.242 387.316 369.689V343.071C387.316 342.519 387.764 342.071 388.316 342.071H569.748C570.3 342.071 570.748 342.519 570.748 343.071V369.689Z" fill="#5AFBC4"/>
<path d="M395.159 351.862H397.291L399.078 355.939H399.19L402.492 351.862H404.625L399.749 357.639L399.103 361.077H397.22L397.867 357.639L395.159 351.862Z" fill="black"/>
<path d="M406.125 361.212C405.355 361.212 404.713 361.062 404.201 360.762C403.692 360.462 403.334 360.04 403.127 359.497C402.92 358.954 402.883 358.325 403.015 357.608C403.148 356.9 403.412 356.28 403.809 355.75C404.21 355.219 404.713 354.808 405.321 354.517C405.931 354.223 406.615 354.076 407.371 354.076C408.142 354.076 408.781 354.227 409.29 354.53C409.799 354.83 410.157 355.252 410.364 355.795C410.574 356.337 410.613 356.97 410.481 357.693C410.352 358.398 410.086 359.014 409.682 359.542C409.282 360.07 408.778 360.481 408.17 360.775C407.563 361.066 406.881 361.212 406.125 361.212ZM406.277 359.907C406.705 359.907 407.08 359.805 407.402 359.601C407.728 359.394 407.994 359.116 408.201 358.769C408.411 358.418 408.557 358.028 408.639 357.599C408.713 357.185 408.715 356.81 408.644 356.474C408.572 356.135 408.42 355.867 408.186 355.669C407.955 355.468 407.634 355.367 407.224 355.367C406.796 355.367 406.418 355.472 406.089 355.682C405.763 355.889 405.497 356.168 405.29 356.519C405.083 356.867 404.941 357.255 404.863 357.684C404.785 358.098 404.781 358.473 404.852 358.809C404.924 359.145 405.076 359.412 405.31 359.61C405.545 359.808 405.867 359.907 406.277 359.907Z" fill="black"/>
<path d="M416.94 358.17L417.698 354.166H419.541L418.238 361.077H416.452L416.686 359.848H416.604C416.36 360.235 416.01 360.552 415.556 360.798C415.105 361.044 414.586 361.167 413.999 361.167C413.486 361.167 413.054 361.066 412.701 360.865C412.348 360.661 412.097 360.366 411.948 359.979C411.802 359.589 411.78 359.118 411.882 358.566L412.716 354.166H414.558L413.775 358.314C413.697 358.752 413.768 359.1 413.988 359.358C414.212 359.616 414.545 359.745 414.986 359.745C415.257 359.745 415.53 359.686 415.805 359.569C416.083 359.452 416.326 359.278 416.533 359.047C416.74 358.814 416.876 358.521 416.94 358.17Z" fill="black"/>
<path d="M430.816 355.993L429.122 356.155C429.105 356.002 429.052 355.859 428.964 355.727C428.876 355.595 428.744 355.49 428.567 355.412C428.394 355.331 428.17 355.291 427.895 355.291C427.495 355.291 427.144 355.37 426.842 355.529C426.54 355.688 426.369 355.892 426.328 356.141C426.291 356.327 426.342 356.478 426.481 356.595C426.62 356.712 426.878 356.811 427.254 356.892L428.547 357.144C429.259 357.285 429.772 357.513 430.084 357.828C430.399 358.143 430.509 358.556 430.414 359.065C430.333 359.491 430.123 359.866 429.783 360.19C429.444 360.511 429.01 360.762 428.481 360.942C427.955 361.122 427.371 361.212 426.73 361.212C425.756 361.212 425.007 361.033 424.481 360.676C423.958 360.316 423.699 359.821 423.702 359.191L425.514 359.038C425.534 359.35 425.658 359.586 425.885 359.745C426.113 359.901 426.428 359.98 426.832 359.983C427.286 359.986 427.67 359.902 427.982 359.731C428.297 359.557 428.476 359.346 428.516 359.097C428.55 358.911 428.498 358.76 428.359 358.643C428.223 358.526 427.98 358.433 427.631 358.364L426.348 358.116C425.622 357.975 425.105 357.737 424.796 357.401C424.491 357.062 424.387 356.634 424.486 356.119C424.567 355.699 424.766 355.337 425.081 355.034C425.4 354.728 425.809 354.493 426.308 354.328C426.806 354.16 427.364 354.076 427.982 354.076C428.912 354.076 429.612 354.248 430.084 354.593C430.555 354.938 430.8 355.405 430.816 355.993Z" fill="black"/>
<path d="M436.758 354.166L436.519 355.426H432.03L432.264 354.166H436.758ZM433.679 352.51H435.521L434.3 358.998C434.263 359.217 434.269 359.385 434.32 359.502C434.375 359.616 434.461 359.694 434.58 359.736C434.702 359.778 434.839 359.799 434.992 359.799C435.104 359.799 435.209 359.791 435.308 359.776C435.406 359.758 435.484 359.745 435.542 359.736L435.623 361.009C435.511 361.039 435.36 361.072 435.17 361.108C434.984 361.144 434.76 361.165 434.498 361.171C434.03 361.18 433.623 361.117 433.277 360.982C432.934 360.844 432.683 360.633 432.524 360.348C432.368 360.06 432.332 359.7 432.417 359.268L433.679 352.51Z" fill="black"/>
<path d="M439.225 361.216C438.729 361.216 438.299 361.138 437.932 360.982C437.566 360.823 437.296 360.589 437.123 360.28C436.953 359.971 436.911 359.59 436.996 359.137C437.07 358.748 437.213 358.425 437.423 358.17C437.637 357.915 437.898 357.711 438.207 357.558C438.519 357.402 438.858 357.285 439.225 357.207C439.595 357.129 439.971 357.072 440.355 357.036C440.823 356.994 441.201 356.955 441.489 356.919C441.781 356.883 442 356.829 442.146 356.757C442.292 356.682 442.38 356.568 442.41 356.415V356.388C442.472 356.05 442.41 355.787 442.227 355.601C442.044 355.415 441.739 355.322 441.311 355.322C440.863 355.322 440.487 355.409 440.182 355.583C439.876 355.757 439.654 355.963 439.515 356.199L437.846 355.984C438.056 355.564 438.344 355.213 438.711 354.931C439.077 354.646 439.5 354.433 439.978 354.292C440.46 354.148 440.974 354.076 441.52 354.076C441.893 354.076 442.258 354.115 442.614 354.193C442.974 354.271 443.291 354.4 443.566 354.58C443.844 354.757 444.047 354.998 444.176 355.304C444.309 355.61 444.331 355.993 444.243 356.451L443.372 361.077H441.601L441.785 360.127H441.723C441.578 360.319 441.388 360.499 441.154 360.667C440.919 360.832 440.641 360.966 440.319 361.068C439.997 361.167 439.632 361.216 439.225 361.216ZM439.922 360.019C440.292 360.019 440.624 359.955 440.919 359.826C441.215 359.694 441.457 359.52 441.647 359.304C441.837 359.088 441.956 358.853 442.003 358.598L442.156 357.783C442.088 357.825 441.983 357.864 441.841 357.9C441.698 357.936 441.539 357.968 441.362 357.995C441.189 358.022 441.018 358.046 440.848 358.067C440.679 358.088 440.533 358.106 440.411 358.121C440.129 358.154 439.871 358.208 439.637 358.283C439.406 358.358 439.215 358.463 439.062 358.598C438.913 358.73 438.819 358.9 438.782 359.11C438.728 359.407 438.807 359.634 439.021 359.79C439.235 359.943 439.535 360.019 439.922 360.019Z" fill="black"/>
<path d="M445.225 361.077L446.527 354.166H448.314L448.095 355.318H448.176C448.39 354.919 448.692 354.611 449.082 354.395C449.476 354.176 449.896 354.067 450.344 354.067C450.449 354.067 450.563 354.071 450.685 354.08C450.807 354.086 450.913 354.097 451.001 354.112L450.716 355.61C450.638 355.586 450.516 355.565 450.349 355.547C450.186 355.526 450.025 355.516 449.866 355.516C449.53 355.516 449.218 355.58 448.93 355.709C448.645 355.835 448.404 356.011 448.207 356.235C448.01 356.46 447.883 356.72 447.825 357.014L447.067 361.077H445.225Z" fill="black"/>
<path d="M456.546 354.166L456.307 355.426H451.819L452.053 354.166H456.546ZM453.468 352.51H455.31L454.088 358.998C454.051 359.217 454.058 359.385 454.109 359.502C454.163 359.616 454.25 359.694 454.368 359.736C454.491 359.778 454.628 359.799 454.781 359.799C454.893 359.799 454.998 359.791 455.096 359.776C455.194 359.758 455.273 359.745 455.33 359.736L455.412 361.009C455.3 361.039 455.149 361.072 454.959 361.108C454.772 361.144 454.548 361.165 454.287 361.171C453.819 361.18 453.412 361.117 453.066 360.982C452.723 360.844 452.472 360.633 452.312 360.348C452.156 360.06 452.121 359.7 452.206 359.268L453.468 352.51Z" fill="black"/>
<path d="M460.42 361.077L462.151 351.862H468.929L468.665 353.262H463.774L463.306 355.763H467.845L467.581 357.162H463.041L462.573 359.677H467.504L467.24 361.077H460.42Z" fill="black"/>
<path d="M470.464 361.077H468.448L473.848 351.862H476.179L478.123 361.077H476.107L474.708 353.752H474.626L470.464 361.077ZM471.207 357.464H476.703L476.448 358.805H470.952L471.207 357.464Z" fill="black"/>
<path d="M479.495 361.077L481.226 351.862H485.134C485.935 351.862 486.584 351.985 487.083 352.231C487.582 352.477 487.929 352.822 488.126 353.266C488.323 353.707 488.365 354.221 488.253 354.809C488.145 355.397 487.907 355.909 487.541 356.343C487.178 356.775 486.698 357.11 486.101 357.347C485.507 357.584 484.81 357.702 484.009 357.702H481.226L481.49 356.316H484.024C484.493 356.316 484.886 356.259 485.205 356.146C485.524 356.029 485.775 355.859 485.958 355.637C486.145 355.412 486.269 355.136 486.33 354.809C486.387 354.482 486.365 354.203 486.264 353.972C486.165 353.738 485.977 353.561 485.699 353.442C485.424 353.319 485.052 353.257 484.584 353.257H482.854L481.383 361.077H479.495ZM485.663 356.901L487.46 361.077H485.353L483.602 356.901H485.663Z" fill="black"/>
<path d="M499.167 351.862L497.437 361.077H495.757L492.027 354.8H491.945L490.76 361.077H488.872L490.602 351.862H492.292L496.017 358.143H496.113L497.289 351.862H499.167Z" fill="black"/>
<path d="M503.112 351.862L501.382 361.077H499.494L501.224 351.862H503.112Z" fill="black"/>
<path d="M513.721 351.862L511.991 361.077H510.312L506.581 354.8H506.5L505.314 361.077H503.426L505.157 351.862H506.846L510.571 358.143H510.668L511.843 351.862H513.721Z" fill="black"/>
<path d="M522.201 354.805C522.164 354.562 522.096 354.344 521.997 354.152C521.899 353.957 521.767 353.792 521.6 353.657C521.434 353.519 521.232 353.415 520.995 353.343C520.757 353.271 520.481 353.235 520.165 353.235C519.605 353.235 519.075 353.359 518.572 353.608C518.07 353.857 517.641 354.223 517.285 354.706C516.929 355.186 516.686 355.771 516.557 356.46C516.428 357.156 516.435 357.746 516.578 358.229C516.72 358.712 516.981 359.079 517.361 359.331C517.745 359.58 518.226 359.704 518.806 359.704C519.339 359.704 519.823 359.614 520.257 359.434C520.691 359.254 521.051 358.999 521.336 358.67C521.624 358.337 521.807 357.947 521.885 357.5L522.303 357.558H519.468L519.723 356.253H523.951L523.738 357.36C523.592 358.152 523.275 358.836 522.786 359.412C522.301 359.985 521.695 360.427 520.969 360.739C520.247 361.048 519.454 361.203 518.593 361.203C517.636 361.203 516.83 361.012 516.175 360.631C515.524 360.247 515.063 359.703 514.791 358.998C514.52 358.29 514.476 357.45 514.659 356.478C514.795 355.735 515.036 355.07 515.382 354.485C515.731 353.9 516.159 353.404 516.664 352.996C517.173 352.585 517.738 352.273 518.359 352.06C518.98 351.844 519.631 351.736 520.313 351.736C520.886 351.736 521.409 351.811 521.88 351.961C522.352 352.108 522.756 352.318 523.091 352.591C523.431 352.864 523.69 353.188 523.87 353.563C524.05 353.938 524.135 354.352 524.124 354.805H522.201Z" fill="black"/>
<path d="M530.945 357.027L530.192 361.077H528.345L530.075 351.862H531.881L531.23 355.34H531.327C531.574 354.947 531.912 354.638 532.339 354.413C532.77 354.188 533.288 354.076 533.892 354.076C534.428 354.076 534.879 354.176 535.245 354.377C535.612 354.578 535.869 354.872 536.019 355.259C536.171 355.646 536.197 356.119 536.095 356.676L535.26 361.077H533.413L534.197 356.928C534.282 356.463 534.212 356.102 533.988 355.844C533.768 355.583 533.418 355.453 532.94 355.453C532.611 355.453 532.307 355.516 532.029 355.642C531.751 355.765 531.517 355.943 531.327 356.177C531.14 356.411 531.013 356.694 530.945 357.027Z" fill="black"/>
<path d="M540.568 361.212C539.785 361.212 539.137 361.068 538.624 360.78C538.112 360.489 537.752 360.078 537.545 359.547C537.342 359.013 537.308 358.385 537.444 357.662C537.576 356.951 537.846 356.327 538.253 355.79C538.66 355.25 539.169 354.83 539.78 354.53C540.394 354.227 541.072 354.076 541.815 354.076C542.297 354.076 542.74 354.145 543.143 354.283C543.547 354.418 543.888 354.628 544.166 354.913C544.444 355.198 544.636 355.561 544.741 356.002C544.846 356.439 544.841 356.961 544.726 357.567L544.639 358.067H538.227L538.426 356.969H543.067C543.128 356.657 543.108 356.379 543.006 356.137C542.904 355.891 542.735 355.697 542.497 355.556C542.26 355.415 541.963 355.345 541.606 355.345C541.243 355.345 540.904 355.427 540.589 355.592C540.277 355.754 540.014 355.964 539.8 356.222C539.586 356.48 539.45 356.751 539.393 357.036L539.184 358.089C539.109 358.521 539.126 358.873 539.235 359.146C539.344 359.419 539.534 359.62 539.805 359.749C540.076 359.878 540.419 359.943 540.833 359.943C541.104 359.943 541.355 359.91 541.586 359.844C541.817 359.778 542.022 359.679 542.202 359.547C542.385 359.412 542.538 359.247 542.66 359.052L544.344 359.223C544.158 359.625 543.885 359.976 543.525 360.276C543.165 360.573 542.735 360.804 542.232 360.969C541.734 361.131 541.179 361.212 540.568 361.212Z" fill="black"/>
<path d="M545.637 361.077L546.94 354.166H548.726L548.507 355.318H548.589C548.802 354.919 549.104 354.611 549.494 354.395C549.888 354.176 550.309 354.067 550.756 354.067C550.862 354.067 550.975 354.071 551.097 354.08C551.22 354.086 551.325 354.097 551.413 354.112L551.128 355.61C551.05 355.586 550.928 355.565 550.762 355.547C550.599 355.526 550.438 355.516 550.278 355.516C549.942 355.516 549.63 355.58 549.342 355.709C549.057 355.835 548.816 356.011 548.619 356.235C548.422 356.46 548.295 356.72 548.237 357.014L547.479 361.077H545.637Z" fill="black"/>
<path d="M554.451 361.212C553.667 361.212 553.019 361.068 552.507 360.78C551.995 360.489 551.635 360.078 551.428 359.547C551.225 359.013 551.191 358.385 551.326 357.662C551.459 356.951 551.728 356.327 552.136 355.79C552.543 355.25 553.052 354.83 553.662 354.53C554.276 354.227 554.955 354.076 555.698 354.076C556.18 354.076 556.622 354.145 557.026 354.283C557.43 354.418 557.771 354.628 558.049 354.913C558.327 355.198 558.519 355.561 558.624 356.002C558.729 356.439 558.724 356.961 558.609 357.567L558.522 358.067H552.11L552.309 356.969H556.95C557.011 356.657 556.99 356.379 556.889 356.137C556.787 355.891 556.617 355.697 556.38 355.556C556.142 355.415 555.845 355.345 555.489 355.345C555.126 355.345 554.787 355.427 554.471 355.592C554.159 355.754 553.896 355.964 553.683 356.222C553.469 356.48 553.333 356.751 553.276 357.036L553.067 358.089C552.992 358.521 553.009 358.873 553.118 359.146C553.226 359.419 553.416 359.62 553.688 359.749C553.959 359.878 554.302 359.943 554.716 359.943C554.987 359.943 555.238 359.91 555.469 359.844C555.7 359.778 555.905 359.679 556.085 359.547C556.268 359.412 556.421 359.247 556.543 359.052L558.227 359.223C558.041 359.625 557.767 359.976 557.408 360.276C557.048 360.573 556.617 360.804 556.115 360.969C555.616 361.131 555.062 361.212 554.451 361.212Z" fill="black"/>
<path d="M563.494 351.862L562.11 358.368H560.482L561.535 351.862H563.494ZM560.904 361.176C560.592 361.176 560.334 361.08 560.13 360.888C559.927 360.696 559.832 360.462 559.845 360.186C559.859 359.916 559.983 359.686 560.217 359.497C560.451 359.308 560.721 359.214 561.026 359.214C561.328 359.214 561.584 359.31 561.795 359.502C562.008 359.694 562.105 359.922 562.085 360.186C562.071 360.372 562.007 360.54 561.891 360.69C561.779 360.84 561.637 360.958 561.464 361.045C561.291 361.132 561.104 361.176 560.904 361.176Z" fill="black"/>
<path d="M104.353 631.909C104.353 630.169 102.974 629.125 100.794 629.125H96.3696V634.577H100.89C103.07 634.577 104.353 633.62 104.353 631.909ZM103.807 623.47C103.807 621.846 102.589 620.918 100.473 620.918H96.3696V625.993H100.473C102.589 625.993 103.807 625.123 103.807 623.47ZM108.905 632.402C108.905 635.621 106.18 637.883 101.531 637.883H91.8812V617.641H101.114C105.795 617.641 108.392 619.845 108.392 622.861C108.392 625.326 106.757 626.863 104.577 627.501C107.11 627.907 108.905 630.024 108.905 632.402Z" fill="#273349"/>
<path d="M129.634 629.85C129.634 634.896 125.531 638.144 120.369 638.144C115.239 638.144 111.36 634.896 111.36 629.85C111.36 624.775 115.368 621.556 120.497 621.556C125.627 621.556 129.634 624.775 129.634 629.85ZM115.913 629.85C115.913 633.04 117.964 634.606 120.369 634.606C122.741 634.606 125.018 633.04 125.018 629.85C125.018 626.631 122.805 625.094 120.433 625.094C118.061 625.094 115.913 626.631 115.913 629.85Z" fill="#273349"/>
<path d="M137.415 629.879V637.883H132.927V621.817H137.415V624.311C138.537 622.658 140.397 621.585 142.865 621.585V625.848H141.679C139.018 625.848 137.415 626.776 137.415 629.879Z" fill="#273349"/>
<path d="M150.377 629.879V637.883H145.888V621.817H150.377V624.311C151.499 622.658 153.358 621.585 155.827 621.585V625.848H154.641C151.98 625.848 150.377 626.776 150.377 629.879Z" fill="#273349"/>
<path d="M176.002 629.85C176.002 634.896 171.898 638.144 166.737 638.144C161.607 638.144 157.728 634.896 157.728 629.85C157.728 624.775 161.735 621.556 166.865 621.556C171.995 621.556 176.002 624.775 176.002 629.85ZM162.28 629.85C162.28 633.04 164.332 634.606 166.737 634.606C169.109 634.606 171.385 633.04 171.385 629.85C171.385 626.631 169.173 625.094 166.801 625.094C164.428 625.094 162.28 626.631 162.28 629.85Z" fill="#273349"/>
<path d="M182.533 637.883L177.307 621.817H181.859L185.001 634.055L188.4 621.817H193.144L196.479 634.026L199.62 621.817H203.916L198.723 637.883H193.882L190.644 626.66L187.406 637.883H182.533Z" fill="#273349"/>
<path d="M90.7271 672.568C90.7271 667.551 94.3178 664.332 98.8382 664.332C101.692 664.332 103.647 665.55 104.705 666.884V664.593H109.226V680.659H104.705V678.31C103.647 679.702 101.627 680.92 98.8061 680.92C94.3178 680.92 90.7271 677.585 90.7271 672.568ZM104.705 672.626C104.705 669.581 102.461 667.899 99.9924 667.899C97.5879 667.899 95.3116 669.523 95.3116 672.568C95.3116 675.613 97.5879 677.353 99.9924 677.353C102.461 677.353 104.705 675.671 104.705 672.626Z" fill="#273349"/>
<path d="M127.395 676.077C127.395 678.832 124.734 680.92 120.406 680.92C115.95 680.92 112.84 678.571 112.647 675.584H117.168C117.328 676.802 118.579 677.73 120.374 677.73C122.137 677.73 123.099 677.005 123.099 676.077C123.099 673.206 113.064 675.033 113.064 669.146C113.064 666.478 115.693 664.332 120.085 664.332C124.381 664.332 126.978 666.449 127.235 669.639H122.939C122.81 668.392 121.72 667.551 119.957 667.551C118.29 667.551 117.424 668.16 117.424 669.088C117.424 672.017 127.267 670.19 127.395 676.077Z" fill="#273349"/>
<path d="M144.865 676.077C144.865 678.832 142.204 680.92 137.876 680.92C133.42 680.92 130.31 678.571 130.118 675.584H134.638C134.798 676.802 136.049 677.73 137.844 677.73C139.607 677.73 140.569 677.005 140.569 676.077C140.569 673.206 130.534 675.033 130.534 669.146C130.534 666.478 133.163 664.332 137.556 664.332C141.852 664.332 144.448 666.449 144.705 669.639H140.409C140.281 668.392 139.191 667.551 137.427 667.551C135.76 667.551 134.895 668.16 134.895 669.088C134.895 672.017 144.737 670.19 144.865 676.077Z" fill="#273349"/>
<path d="M156.18 667.667C154.032 667.667 152.333 668.914 151.98 671.118H160.412C160.348 669.001 158.488 667.667 156.18 667.667ZM164.612 675.613C163.65 678.571 160.7 680.92 156.308 680.92C151.146 680.92 147.395 677.672 147.395 672.626C147.395 667.551 151.05 664.332 156.308 664.332C161.438 664.332 165.06 667.493 165.06 672.278C165.06 672.8 165.028 673.322 164.932 673.844H151.948C152.172 676.222 153.968 677.556 156.212 677.556C158.135 677.556 159.193 676.686 159.771 675.613H164.612Z" fill="#273349"/>
<path d="M169.042 675.671V667.928H166.926V664.593H169.042V660.62H173.562V664.593H177.538V667.928H173.562V675.7C173.562 676.773 174.043 677.237 175.454 677.237H177.538V680.659H174.716C171.318 680.659 169.042 679.354 169.042 675.671Z" fill="#273349"/>
<path d="M194.552 676.077C194.552 678.832 191.891 680.92 187.563 680.92C183.106 680.92 179.997 678.571 179.804 675.584H184.325C184.485 676.802 185.735 677.73 187.531 677.73C189.294 677.73 190.256 677.005 190.256 676.077C190.256 673.206 180.221 675.033 180.221 669.146C180.221 666.478 182.85 664.332 187.242 664.332C191.538 664.332 194.135 666.449 194.391 669.639H190.095C189.967 668.392 188.877 667.551 187.114 667.551C185.447 667.551 184.581 668.16 184.581 669.088C184.581 672.017 194.424 670.19 194.552 676.077Z" fill="#273349"/>
<path d="M204.379 638.487L215.685 649.201L219.489 652.8L249.167 624.107L249.195 645.602L219.519 674.891L193.096 649.226L204.379 638.487Z" fill="#505A6C"/>
<path d="M525.076 638.483L536.383 649.197L540.187 652.796L569.864 624.104L569.893 645.598L540.217 674.887L513.794 649.222L525.076 638.483Z" fill="#FF00F2"/>
<path d="M336.271 451.078V439.572L365.121 394.119H375.042V410.046H369.17L350.983 438.829V439.369H391.981V451.078H336.271ZM369.44 463.226V447.569L369.71 442.473V394.119H383.41V463.226H369.44Z" fill="#5AFBC4"/>
<path fill-rule="evenodd" clip-rule="evenodd" d="M333.895 453.454V438.882L363.815 391.744H385.786V436.994H394.357V453.454H385.786V465.602H367.065V453.454H333.895ZM369.44 451.079V463.226H383.41V451.079H391.981V439.37H383.41V394.12H365.121L336.271 439.572V451.079H369.44ZM369.71 410.047H369.17L350.983 438.83V439.37H369.71V410.047ZM367.335 417.399L354.953 436.994H367.335V417.399Z" fill="#505A6C"/>
<path d="M335.884 223.299V210.139L366.632 181.668C369.247 179.137 371.441 176.859 373.212 174.835C375.012 172.81 376.376 170.828 377.304 168.887C378.232 166.919 378.696 164.796 378.696 162.518C378.696 159.987 378.119 157.808 376.966 155.98C375.813 154.125 374.239 152.705 372.242 151.72C370.246 150.708 367.982 150.202 365.451 150.202C362.808 150.202 360.502 150.736 358.534 151.805C356.566 152.873 355.047 154.406 353.979 156.402C352.91 158.399 352.376 160.775 352.376 163.531H335.04C335.04 157.879 336.319 152.972 338.878 148.81C341.437 144.648 345.022 141.429 349.634 139.151C354.246 136.873 359.56 135.734 365.578 135.734C371.764 135.734 377.149 136.831 381.733 139.024C386.344 141.19 389.929 144.198 392.488 148.051C395.047 151.903 396.327 156.318 396.327 161.295C396.327 164.557 395.68 167.777 394.386 170.954C393.121 174.132 390.857 177.661 387.595 181.541C384.334 185.393 379.736 190.019 373.803 195.418L361.191 207.777V208.367H397.465V223.299H335.884Z" fill="#FF00F2"/>
<path d="M47.7518 462.032C41.4531 462.032 35.8432 460.95 30.9223 458.785C26.0295 456.591 22.1631 453.582 19.323 449.758C16.511 445.906 15.0629 441.463 14.9785 436.43H33.3687C33.4812 438.538 34.1701 440.394 35.4355 441.997C36.729 443.572 38.4443 444.795 40.5813 445.667C42.7184 446.539 45.1227 446.974 47.794 446.974C50.5778 446.974 53.0383 446.482 55.1754 445.498C57.3125 444.514 58.9856 443.15 60.1947 441.407C61.4039 439.663 62.0084 437.653 62.0084 435.375C62.0084 433.069 61.3617 431.031 60.0682 429.259C58.8028 427.459 56.975 426.053 54.5849 425.041C52.2228 424.029 49.4109 423.523 46.149 423.523H38.0928V410.11H46.149C48.9047 410.11 51.3371 409.632 53.446 408.676C55.5831 407.719 57.2422 406.398 58.4232 404.711C59.6042 402.995 60.1947 400.999 60.1947 398.721C60.1947 396.556 59.6745 394.658 58.6341 393.027C57.6218 391.368 56.1877 390.074 54.3318 389.147C52.504 388.219 50.3669 387.755 47.9205 387.755C45.446 387.755 43.1824 388.205 41.1297 389.104C39.077 389.976 37.432 391.227 36.1947 392.858C34.9574 394.489 34.2966 396.401 34.2123 398.595H16.7079C16.7922 393.618 18.2123 389.231 20.968 385.435C23.7237 381.639 27.4355 378.672 32.1033 376.535C36.7993 374.37 42.0998 373.287 48.0049 373.287C53.9662 373.287 59.1824 374.37 63.6534 376.535C68.1244 378.7 71.5972 381.625 74.0717 385.308C76.5744 388.964 77.8116 393.069 77.7835 397.625C77.8116 402.461 76.3072 406.496 73.2703 409.73C70.2615 412.964 66.3388 415.016 61.5023 415.888V416.563C67.8573 417.379 72.6939 419.586 76.012 423.185C79.3582 426.756 81.0172 431.227 80.9891 436.598C81.0172 441.519 79.5972 445.892 76.729 449.716C73.8889 453.54 69.9663 456.549 64.961 458.742C59.9557 460.936 54.2193 462.032 47.7518 462.032Z" fill="#505A6C"/>
<path d="M45.8662 697.213C39.9049 697.213 34.5903 696.116 29.9224 693.923C25.2827 691.729 21.599 688.707 18.8714 684.854C16.1438 681.002 14.7238 676.587 14.6113 671.61H32.3266C32.5235 674.956 33.9294 677.67 36.5446 679.75C39.1597 681.831 42.2669 682.872 45.8662 682.872C48.7344 682.872 51.2651 682.239 53.4585 680.974C55.6799 679.68 57.4093 677.895 58.6465 675.617C59.9119 673.311 60.5446 670.668 60.5446 667.687C60.5446 664.65 59.8978 661.979 58.6043 659.673C57.339 657.367 55.5815 655.568 53.3319 654.274C51.0824 652.981 48.5094 652.32 45.6131 652.292C43.0824 652.292 40.6219 652.812 38.2317 653.852C35.8697 654.893 34.0279 656.313 32.7063 658.112L16.4672 655.202L20.5586 609.648H73.3671V624.58H35.6166L33.3811 646.218H33.8873C35.4057 644.081 37.6975 642.309 40.7625 640.903C43.8275 639.497 47.2581 638.794 51.0542 638.794C56.2564 638.794 60.8961 640.018 64.9734 642.464C69.0507 644.91 72.2704 648.271 74.6325 652.545C76.9945 656.791 78.1615 661.684 78.1334 667.223C78.1615 673.044 76.8117 678.218 74.0841 682.745C71.3847 687.244 67.6026 690.787 62.7379 693.374C57.9014 695.933 52.2774 697.213 45.8662 697.213Z" fill="#2007CD"/>
<path d="M367.239 697.21C362.796 697.182 358.508 696.437 354.374 694.975C350.269 693.512 346.585 691.136 343.323 687.846C340.061 684.556 337.474 680.198 335.562 674.771C333.678 669.344 332.736 662.679 332.736 654.778C332.764 647.523 333.594 641.041 335.225 635.333C336.884 629.597 339.246 624.732 342.311 620.739C345.404 616.746 349.102 613.709 353.404 611.628C357.706 609.519 362.529 608.465 367.872 608.465C373.636 608.465 378.726 609.59 383.141 611.839C387.555 614.061 391.098 617.083 393.77 620.908C396.469 624.732 398.1 629.02 398.663 633.772H380.652C379.949 630.764 378.473 628.402 376.223 626.686C373.974 624.971 371.19 624.113 367.872 624.113C362.248 624.113 357.974 626.56 355.049 631.453C352.153 636.345 350.677 642.996 350.62 651.403H351.211C352.504 648.844 354.248 646.665 356.441 644.866C358.663 643.038 361.179 641.646 363.991 640.69C366.831 639.706 369.826 639.214 372.975 639.214C378.093 639.214 382.649 640.423 386.641 642.841C390.634 645.231 393.784 648.521 396.09 652.711C398.395 656.901 399.548 661.695 399.548 667.094C399.548 672.943 398.185 678.145 395.457 682.7C392.757 687.256 388.975 690.827 384.111 693.414C379.274 695.973 373.65 697.238 367.239 697.21ZM367.155 682.869C369.967 682.869 372.483 682.194 374.705 680.845C376.926 679.495 378.67 677.667 379.935 675.361C381.2 673.055 381.833 670.468 381.833 667.6C381.833 664.732 381.2 662.159 379.935 659.881C378.698 657.604 376.982 655.79 374.789 654.44C372.596 653.091 370.093 652.416 367.281 652.416C365.172 652.416 363.218 652.809 361.418 653.597C359.647 654.384 358.086 655.481 356.736 656.887C355.415 658.293 354.374 659.924 353.615 661.779C352.856 663.607 352.476 665.562 352.476 667.642C352.476 670.426 353.109 672.971 354.374 675.277C355.668 677.583 357.411 679.424 359.605 680.802C361.826 682.18 364.343 682.869 367.155 682.869Z" fill="#505A6C"/>
<path d="M40.9274 136.918V223.301H22.6637V154.254H22.1576L2.37549 166.654V150.458L23.7604 136.918H40.9274Z" fill="#5AFBC4"/>
<path fill-rule="evenodd" clip-rule="evenodd" d="M43.303 134.541V225.675H20.2882V158.228L0 170.946V149.149L23.0717 134.541H43.303ZM22.1576 154.252H22.6638V223.3H40.9274V136.917H23.7604L2.37554 150.456V166.653L22.1576 154.252Z" fill="#505A6C"/>
<path d="M432.565 621.468V624.718H425.011V629.706H431.71V632.871H425.011V638.144H432.565V641.394H421.02V621.468H432.565Z" fill="#273349"/>
<path d="M447.252 641.394V632.671C447.252 630.134 445.856 628.766 443.746 628.766C441.58 628.766 440.183 630.134 440.183 632.671V641.394H436.192V625.601H440.183V627.568C441.209 626.229 442.919 625.373 444.943 625.373C448.621 625.373 451.243 627.768 451.243 632.129V641.394H447.252Z" fill="#273349"/>
<path d="M457.062 623.72C455.609 623.72 454.582 622.694 454.582 621.382C454.582 620.071 455.609 619.045 457.062 619.045C458.459 619.045 459.485 620.071 459.485 621.382C459.485 622.694 458.459 623.72 457.062 623.72ZM455.038 625.601H459.029V643.988C459.029 647.637 457.062 648.92 454.012 648.92H452.245V645.527H453.385C454.611 645.527 455.038 645.071 455.038 644.017V625.601Z" fill="#273349"/>
<path d="M478.223 633.498C478.223 638.458 474.575 641.651 469.985 641.651C465.424 641.651 461.975 638.458 461.975 633.498C461.975 628.509 465.538 625.345 470.099 625.345C474.66 625.345 478.223 628.509 478.223 633.498ZM466.023 633.498C466.023 636.633 467.847 638.173 469.985 638.173C472.094 638.173 474.118 636.633 474.118 633.498C474.118 630.333 472.151 628.823 470.042 628.823C467.933 628.823 466.023 630.333 466.023 633.498Z" fill="#273349"/>
<path d="M487.878 636.633L492.012 625.601H496.259L486.482 648.863H482.234L485.655 640.995L479.326 625.601H483.802L487.878 636.633Z" fill="#273349"/>
<path d="M431.093 664.256C437.45 664.256 441.584 668.19 441.584 674.233C441.584 680.248 437.45 684.154 431.093 684.154H424.138V664.256H431.093ZM428.129 680.761H430.951C435.141 680.761 437.507 678.367 437.507 674.233C437.507 670.1 435.141 667.62 430.951 667.62H428.129V680.761Z" fill="#273349"/>
<path d="M451.356 671.383C449.446 671.383 447.935 672.609 447.621 674.775H455.119C455.062 672.694 453.408 671.383 451.356 671.383ZM458.853 679.194C457.998 682.101 455.375 684.41 451.47 684.41C446.88 684.41 443.545 681.218 443.545 676.257C443.545 671.269 446.795 668.105 451.47 668.105C456.031 668.105 459.252 671.212 459.252 675.915C459.252 676.428 459.224 676.942 459.138 677.455H447.593C447.792 679.792 449.389 681.103 451.384 681.103C453.095 681.103 454.035 680.248 454.549 679.194H458.853Z" fill="#273349"/>
<path d="M462.165 684.154V664.256H474.451V667.477H466.156V672.58H472.513V675.744H466.156V684.154H462.165Z" fill="#273349"/>
<path d="M477.281 684.154V668.361H481.272V684.154H477.281ZM479.305 666.48C477.88 666.48 476.854 665.453 476.854 664.142C476.854 662.831 477.88 661.805 479.305 661.805C480.702 661.805 481.757 662.831 481.757 664.142C481.757 665.453 480.702 666.48 479.305 666.48Z" fill="#273349"/>
<path d="M486.555 677.683L486.07 663.914H490.375L489.919 677.683H486.555ZM490.745 682.016C490.745 683.327 489.719 684.353 488.322 684.353C486.869 684.353 485.842 683.327 485.842 682.016C485.842 680.704 486.869 679.678 488.322 679.678C489.719 679.678 490.745 680.704 490.745 682.016Z" fill="#273349"/>
<defs>
<linearGradient id="paint0_linear_363_1864" x1="351.397" y1="0" x2="351.397" y2="285.763" gradientUnits="userSpaceOnUse">
<stop stop-color="white" stop-opacity="0.58"/>
<stop offset="1" stop-color="#273349"/>
</linearGradient>
<linearGradient id="paint1_linear_363_1864" x1="185.704" y1="0" x2="185.704" y2="285.763" gradientUnits="userSpaceOnUse">
<stop stop-color="white" stop-opacity="0.58"/>
<stop offset="1" stop-color="#273349"/>
</linearGradient>
<linearGradient id="paint2_linear_363_1864" x1="185.709" y1="205.471" x2="185.709" y2="488.877" gradientUnits="userSpaceOnUse">
<stop stop-color="white" stop-opacity="0.58"/>
<stop offset="1" stop-color="#273349"/>
</linearGradient>
<linearGradient id="paint3_linear_363_1864" x1="353.322" y1="587.598" x2="353.322" y2="871" gradientUnits="userSpaceOnUse">
<stop stop-color="white" stop-opacity="0.58"/>
<stop offset="1" stop-color="#273349"/>
</linearGradient>
<linearGradient id="paint4_linear_363_1864" x1="187.623" y1="587.598" x2="187.623" y2="871" gradientUnits="userSpaceOnUse">
<stop stop-color="white" stop-opacity="0.58"/>
<stop offset="1" stop-color="#273349"/>
</linearGradient>
<linearGradient id="paint5_linear_363_1864" x1="351.979" y1="205.471" x2="351.979" y2="488.873" gradientUnits="userSpaceOnUse">
<stop stop-color="white" stop-opacity="0.58"/>
<stop offset="1" stop-color="#273349"/>
</linearGradient>
</defs>
</svg>
