<svg width="826" height="902" viewBox="0 0 826 902" fill="none" xmlns="http://www.w3.org/2000/svg">
<g filter="url(#filter0_d_267_91)">
<rect x="51" y="51" width="723.871" height="800" rx="10" fill="#FBFCFF"/>
</g>
<path d="M221.813 429.065V411.052H225.916L231.645 424.446L237.374 411.052H241.452V429.065H237.839V417.349L233.013 429.065H230.278L225.426 417.349V429.065H221.813Z" fill="#273349"/>
<path d="M245.024 429.065V414.768H248.637V429.065H245.024ZM246.856 413.065C245.566 413.065 244.637 412.136 244.637 410.949C244.637 409.762 245.566 408.833 246.856 408.833C248.12 408.833 249.075 409.762 249.075 410.949C249.075 412.136 248.12 413.065 246.856 413.065Z" fill="#273349"/>
<path d="M262.219 429.065V421.168C262.219 418.872 260.955 417.633 259.045 417.633C257.084 417.633 255.819 418.872 255.819 421.168V429.065H252.206V414.768H255.819V416.549C256.748 415.336 258.296 414.562 260.129 414.562C263.458 414.562 265.832 416.73 265.832 420.678V429.065H262.219Z" fill="#273349"/>
<path d="M269.835 424.627V417.736H268.132V414.768H269.835V411.233H273.474V414.768H276.674V417.736H273.474V424.652C273.474 425.607 273.861 426.02 274.997 426.02H276.674V429.065H274.403C271.668 429.065 269.835 427.904 269.835 424.627Z" fill="#273349"/>
<path d="M225.452 467.801L220.6 449.762H224.471L227.645 463.749L231.31 449.762H235.336L238.794 463.672L241.994 449.762H245.89L240.858 467.775H236.6L233.219 454.949L229.684 467.775L225.452 467.801Z" fill="#273349"/>
<path d="M254.391 456.214C252.662 456.214 251.295 457.323 251.011 459.285H257.798C257.746 457.401 256.249 456.214 254.391 456.214ZM261.179 463.285C260.404 465.917 258.03 468.007 254.495 468.007C250.34 468.007 247.32 465.117 247.32 460.627C247.32 456.11 250.262 453.246 254.495 453.246C258.624 453.246 261.54 456.059 261.54 460.317C261.54 460.781 261.514 461.246 261.437 461.71H250.985C251.166 463.827 252.611 465.014 254.417 465.014C255.966 465.014 256.817 464.239 257.282 463.285H261.179Z" fill="#273349"/>
<path d="M264.564 467.775V456.446H262.938V453.478H264.564V452.756C264.564 449.246 266.551 447.62 270.577 447.723V450.768C268.822 450.717 268.229 451.285 268.229 452.885V453.478H270.732V456.446H268.229V467.775H264.564Z" fill="#273349"/>
<path d="M273.641 463.336V456.446H271.938V453.478H273.641V449.943H277.28V453.478H280.48V456.446H277.28V463.362C277.28 464.317 277.667 464.73 278.802 464.73H280.48V467.775H278.209C275.473 467.775 273.641 466.614 273.641 463.336Z" fill="#273349"/>
<path d="M289.168 463.465L292.91 453.478H296.756L287.904 474.536H284.059L287.156 467.414L281.427 453.478H285.478L289.168 463.465Z" fill="#273349"/>
<g filter="url(#filter1_d_267_91)">
<path d="M293.012 413.473L302.114 423.007L305.176 426.21L329.064 400.678L329.088 419.805L305.2 445.868L283.93 423.03L293.012 413.473Z" fill="#5AFBC4"/>
</g>
<g filter="url(#filter2_d_267_91)">
<path d="M168.485 475.252C163.207 475.252 158.515 474.348 154.409 472.539C150.328 470.731 147.102 468.214 144.732 464.988C142.361 461.762 141.103 458.036 140.956 453.808H154.739C154.861 455.836 155.533 457.608 156.755 459.123C157.977 460.614 159.602 461.775 161.631 462.605C163.659 463.436 165.932 463.852 168.449 463.852C171.137 463.852 173.52 463.387 175.597 462.459C177.674 461.506 179.299 460.186 180.472 458.5C181.645 456.814 182.219 454.871 182.195 452.671C182.219 450.399 181.633 448.395 180.436 446.66C179.238 444.925 177.503 443.568 175.23 442.591C172.982 441.613 170.269 441.125 167.092 441.125H160.458V430.641H167.092C169.707 430.641 171.992 430.189 173.947 429.284C175.927 428.38 177.479 427.109 178.603 425.472C179.727 423.81 180.277 421.892 180.252 419.717C180.277 417.591 179.8 415.746 178.823 414.182C177.87 412.593 176.513 411.359 174.754 410.479C173.019 409.6 170.978 409.16 168.632 409.16C166.335 409.16 164.209 409.575 162.254 410.406C160.299 411.237 158.722 412.422 157.525 413.962C156.328 415.477 155.692 417.285 155.619 419.387H142.532C142.63 415.184 143.84 411.494 146.161 408.317C148.507 405.115 151.635 402.623 155.545 400.839C159.456 399.03 163.842 398.126 168.705 398.126C173.715 398.126 178.065 399.067 181.755 400.949C185.47 402.806 188.341 405.311 190.37 408.463C192.398 411.616 193.412 415.098 193.412 418.91C193.437 423.138 192.19 426.682 189.673 429.541C187.18 432.4 183.906 434.27 179.849 435.149V435.736C185.128 436.469 189.172 438.424 191.982 441.601C194.817 444.754 196.222 448.676 196.198 453.368C196.198 457.571 195.001 461.335 192.606 464.658C190.235 467.957 186.96 470.548 182.782 472.429C178.627 474.311 173.862 475.252 168.485 475.252Z" fill="white"/>
</g>
<g filter="url(#filter3_d_267_91)">
<path fill-rule="evenodd" clip-rule="evenodd" d="M153.369 474.902L153.364 474.899C148.92 472.93 145.319 470.146 142.652 466.517C139.956 462.848 138.541 458.613 138.377 453.898L138.284 451.228H157.169L157.315 453.653C157.406 455.167 157.892 456.419 158.758 457.496C159.672 458.608 160.926 459.529 162.609 460.218C164.284 460.904 166.218 461.272 168.449 461.272C170.834 461.272 172.843 460.861 174.532 460.109C176.233 459.326 177.475 458.29 178.354 457.027C179.198 455.813 179.634 454.404 179.615 452.701L179.614 452.672L179.615 452.644C179.634 450.861 179.182 449.388 178.312 448.126C177.435 446.855 176.116 445.782 174.211 444.962L174.206 444.96L174.201 444.958C172.359 444.157 170.016 443.706 167.092 443.706H157.877V428.061H167.092C169.412 428.061 171.313 427.66 172.864 426.943L172.87 426.94L172.875 426.938C174.468 426.21 175.636 425.231 176.47 424.019C177.272 422.831 177.691 421.439 177.672 419.746L177.671 419.717L177.672 419.688C177.691 417.978 177.312 416.634 176.634 415.55L176.622 415.53L176.61 415.51C175.925 414.369 174.949 413.463 173.6 412.788L173.593 412.785L173.587 412.782C172.28 412.119 170.655 411.741 168.632 411.741C166.653 411.741 164.874 412.097 163.263 412.782C161.675 413.456 160.466 414.384 159.562 415.547L159.556 415.555L159.55 415.562C158.724 416.607 158.254 417.874 158.198 419.478L158.111 421.968H139.891L139.952 419.328C140.062 414.636 141.424 410.427 144.078 406.795L144.08 406.792C146.707 403.207 150.194 400.446 154.468 398.494C158.758 396.511 163.519 395.546 168.705 395.546C174.034 395.546 178.799 396.547 182.919 398.646C186.997 400.687 190.236 403.487 192.54 407.067C194.84 410.642 195.991 414.608 195.993 418.904C196.019 423.684 194.592 427.857 191.614 431.242C190.295 432.754 188.792 434.019 187.115 435.041C189.769 436.185 192.051 437.787 193.908 439.884C197.213 443.563 198.804 448.121 198.779 453.374C198.778 458.101 197.419 462.392 194.701 466.165C192.034 469.877 188.381 472.738 183.844 474.782C179.301 476.839 174.163 477.833 168.485 477.833C162.911 477.833 157.855 476.878 153.369 474.902ZM192.606 464.659C195.001 461.335 196.198 457.572 196.198 453.368C196.222 448.676 194.817 444.754 191.983 441.602C189.944 439.298 187.257 437.636 183.921 436.618C182.695 436.243 181.381 435.956 179.98 435.755C179.937 435.749 179.893 435.743 179.849 435.737V435.15C179.877 435.144 179.905 435.138 179.933 435.132C181.298 434.83 182.574 434.416 183.761 433.889C186.068 432.866 188.039 431.416 189.673 429.542C192.19 426.682 193.437 423.139 193.412 418.911C193.412 415.099 192.398 411.616 190.37 408.464C188.341 405.311 185.47 402.806 181.755 400.949C178.065 399.067 173.715 398.127 168.705 398.127C163.842 398.127 159.456 399.031 155.546 400.839C151.635 402.623 148.507 405.116 146.161 408.317C144.327 410.827 143.187 413.657 142.741 416.807C142.622 417.644 142.553 418.505 142.532 419.388H155.619C155.692 417.286 156.328 415.477 157.525 413.962C158.722 412.423 160.299 411.237 162.254 410.407C164.209 409.576 166.335 409.16 168.632 409.16C170.978 409.16 173.019 409.6 174.754 410.48C176.513 411.36 177.87 412.594 178.823 414.182C179.8 415.746 180.277 417.591 180.252 419.717C180.277 421.892 179.727 423.811 178.603 425.473C177.479 427.11 175.927 428.381 173.947 429.285C171.992 430.189 169.707 430.641 167.092 430.641H160.458V441.125H167.092C170.269 441.125 172.982 441.614 175.23 442.591C177.503 443.569 179.238 444.925 180.436 446.66C181.633 448.395 182.22 450.399 182.195 452.672C182.22 454.871 181.645 456.814 180.472 458.5C179.299 460.187 177.674 461.506 175.597 462.459C173.52 463.388 171.137 463.852 168.449 463.852C165.932 463.852 163.659 463.437 161.631 462.606C159.602 461.775 157.977 460.614 156.755 459.124C155.533 457.608 154.861 455.837 154.739 453.808H140.956C140.987 454.69 141.066 455.551 141.193 456.389C141.676 459.569 142.856 462.436 144.732 464.989C147.102 468.215 150.328 470.732 154.409 472.54C158.515 474.348 163.207 475.253 168.485 475.253C173.862 475.253 178.627 474.312 182.782 472.43C186.961 470.548 190.235 467.958 192.606 464.659Z" fill="#5AFBC4" fill-opacity="0.81" shape-rendering="crispEdges"/>
</g>
<path d="M212.497 666.329C212.497 664.78 211.387 663.851 209.632 663.851H206.071V668.703H209.71C211.465 668.703 212.497 667.851 212.497 666.329ZM212.058 658.819C212.058 657.374 211.077 656.548 209.374 656.548H206.071V661.064H209.374C211.077 661.064 212.058 660.29 212.058 658.819ZM216.161 666.767C216.161 669.632 213.968 671.645 210.226 671.645H202.458V653.632H209.89C213.658 653.632 215.748 655.593 215.748 658.277C215.748 660.471 214.432 661.838 212.677 662.406C214.716 662.767 216.161 664.651 216.161 666.767Z" fill="#273349"/>
<path d="M232.847 664.496C232.847 668.987 229.544 671.877 225.389 671.877C221.26 671.877 218.138 668.987 218.138 664.496C218.138 659.98 221.363 657.116 225.492 657.116C229.621 657.116 232.847 659.98 232.847 664.496ZM221.802 664.496C221.802 667.335 223.454 668.729 225.389 668.729C227.299 668.729 229.131 667.335 229.131 664.496C229.131 661.632 227.35 660.264 225.441 660.264C223.531 660.264 221.802 661.632 221.802 664.496Z" fill="#273349"/>
<path d="M239.11 664.522V671.645H235.497V657.348H239.11V659.567C240.014 658.096 241.51 657.142 243.497 657.142V660.935H242.543C240.401 660.935 239.11 661.761 239.11 664.522Z" fill="#273349"/>
<path d="M249.544 664.522V671.645H245.931V657.348H249.544V659.567C250.447 658.096 251.944 657.142 253.931 657.142V660.935H252.976C250.834 660.935 249.544 661.761 249.544 664.522Z" fill="#273349"/>
<path d="M270.171 664.496C270.171 668.987 266.868 671.877 262.713 671.877C258.584 671.877 255.461 668.987 255.461 664.496C255.461 659.98 258.687 657.116 262.816 657.116C266.945 657.116 270.171 659.98 270.171 664.496ZM259.126 664.496C259.126 667.335 260.777 668.729 262.713 668.729C264.622 668.729 266.455 667.335 266.455 664.496C266.455 661.632 264.674 660.264 262.764 660.264C260.855 660.264 259.126 661.632 259.126 664.496Z" fill="#273349"/>
<path d="M275.427 671.645L271.221 657.348H274.886L277.415 668.238L280.15 657.348H283.969L286.653 668.212L289.182 657.348H292.64L288.46 671.645H284.563L281.956 661.658L279.35 671.645H275.427Z" fill="#273349"/>
<path d="M201.529 702.509C201.529 698.045 204.419 695.18 208.058 695.18C210.355 695.18 211.929 696.264 212.781 697.451V695.412H216.419V709.709H212.781V707.619C211.929 708.858 210.303 709.942 208.032 709.942C204.419 709.942 201.529 706.974 201.529 702.509ZM212.781 702.561C212.781 699.851 210.974 698.354 208.987 698.354C207.052 698.354 205.219 699.8 205.219 702.509C205.219 705.219 207.052 706.767 208.987 706.767C210.974 706.767 212.781 705.271 212.781 702.561Z" fill="#273349"/>
<path d="M231.045 705.632C231.045 708.083 228.903 709.942 225.419 709.942C221.832 709.942 219.329 707.851 219.174 705.193H222.813C222.942 706.277 223.948 707.103 225.393 707.103C226.813 707.103 227.587 706.458 227.587 705.632C227.587 703.077 219.509 704.703 219.509 699.464C219.509 697.09 221.625 695.18 225.161 695.18C228.619 695.18 230.709 697.064 230.916 699.903H227.458C227.354 698.793 226.477 698.045 225.058 698.045C223.716 698.045 223.019 698.587 223.019 699.412C223.019 702.019 230.942 700.393 231.045 705.632Z" fill="#273349"/>
<path d="M245.107 705.632C245.107 708.083 242.965 709.942 239.481 709.942C235.894 709.942 233.391 707.851 233.236 705.193H236.875C237.004 706.277 238.011 707.103 239.456 707.103C240.875 707.103 241.649 706.458 241.649 705.632C241.649 703.077 233.572 704.703 233.572 699.464C233.572 697.09 235.688 695.18 239.223 695.18C242.681 695.18 244.772 697.064 244.978 699.903H241.52C241.417 698.793 240.54 698.045 239.12 698.045C237.778 698.045 237.081 698.587 237.081 699.412C237.081 702.019 245.004 700.393 245.107 705.632Z" fill="#273349"/>
<path d="M254.215 698.148C252.486 698.148 251.118 699.258 250.834 701.219H257.621C257.57 699.335 256.073 698.148 254.215 698.148ZM261.002 705.219C260.228 707.851 257.854 709.942 254.318 709.942C250.163 709.942 247.144 707.051 247.144 702.561C247.144 698.045 250.086 695.18 254.318 695.18C258.447 695.18 261.363 697.993 261.363 702.251C261.363 702.716 261.338 703.18 261.26 703.645H250.808C250.989 705.761 252.434 706.948 254.241 706.948C255.789 706.948 256.641 706.174 257.105 705.219H261.002Z" fill="#273349"/>
<path d="M264.568 705.271V698.38H262.865V695.412H264.568V691.877H268.207V695.412H271.407V698.38H268.207V705.296C268.207 706.251 268.594 706.664 269.729 706.664H271.407V709.709H269.136C266.4 709.709 264.568 708.548 264.568 705.271Z" fill="#273349"/>
<path d="M285.102 705.632C285.102 708.083 282.96 709.942 279.476 709.942C275.889 709.942 273.386 707.851 273.231 705.193H276.87C276.999 706.277 278.005 707.103 279.451 707.103C280.87 707.103 281.644 706.458 281.644 705.632C281.644 703.077 273.567 704.703 273.567 699.464C273.567 697.09 275.683 695.18 279.218 695.18C282.676 695.18 284.767 697.064 284.973 699.903H281.515C281.412 698.793 280.534 698.045 279.115 698.045C277.773 698.045 277.076 698.587 277.076 699.412C277.076 702.019 284.999 700.393 285.102 705.632Z" fill="#273349"/>
<path d="M293.012 672.182L302.114 681.716L305.176 684.919L329.064 659.387L329.088 678.514L305.2 704.577L283.93 681.739L293.012 672.182Z" fill="#505A6C"/>
<g filter="url(#filter4_d_267_91)">
<path d="M167.642 719.769C162.755 719.769 158.38 718.852 154.519 717.019C150.658 715.162 147.591 712.621 145.318 709.395C143.07 706.169 141.872 702.479 141.726 698.324H154.922C155.167 701.404 156.499 703.921 158.918 705.876C161.337 707.806 164.245 708.772 167.642 708.772C170.306 708.772 172.676 708.161 174.754 706.939C176.831 705.717 178.468 704.018 179.666 701.843C180.863 699.668 181.45 697.188 181.425 694.402C181.45 691.567 180.851 689.05 179.629 686.851C178.407 684.651 176.733 682.928 174.607 681.682C172.481 680.411 170.037 679.776 167.276 679.776C165.027 679.752 162.816 680.167 160.641 681.022C158.466 681.878 156.743 683.002 155.472 684.395L143.192 682.379L147.114 643.669H190.663V655.033H158.368L156.205 674.937H156.645C158.038 673.3 160.005 671.944 162.547 670.868C165.088 669.769 167.874 669.219 170.905 669.219C175.45 669.219 179.507 670.294 183.075 672.445C186.643 674.571 189.453 677.503 191.506 681.242C193.559 684.981 194.585 689.258 194.585 694.072C194.585 699.033 193.436 703.456 191.139 707.342C188.867 711.203 185.702 714.246 181.645 716.47C177.613 718.669 172.945 719.769 167.642 719.769Z" fill="#5AFBC4"/>
</g>
<path d="M181.813 180.084H185.426V195.232H191.361V198.097H181.813V180.084Z" fill="#273349"/>
<path d="M192.728 190.897C192.728 186.432 195.619 183.568 199.258 183.568C201.554 183.568 203.128 184.652 203.98 185.839V183.8H207.619V198.097H203.98V196.006C203.128 197.245 201.503 198.329 199.232 198.329C195.619 198.329 192.728 195.361 192.728 190.897ZM203.98 190.948C203.98 188.239 202.174 186.742 200.187 186.742C198.251 186.742 196.419 188.187 196.419 190.897C196.419 193.606 198.251 195.155 200.187 195.155C202.174 195.155 203.98 193.658 203.98 190.948Z" fill="#273349"/>
<path d="M224.644 183.8V198.097H221.005V196.29C220.102 197.503 218.528 198.277 216.747 198.277C213.418 198.277 211.018 196.11 211.018 192.187V183.8H214.631V191.671C214.631 193.968 215.896 195.206 217.805 195.206C219.767 195.206 221.005 193.968 221.005 191.671V183.8H224.644Z" fill="#273349"/>
<path d="M238.222 198.097V190.2C238.222 187.903 236.957 186.665 235.048 186.665C233.086 186.665 231.822 187.903 231.822 190.2V198.097H228.209V183.8H231.822V185.581C232.751 184.368 234.299 183.594 236.132 183.594C239.461 183.594 241.835 185.761 241.835 189.71V198.097H238.222Z" fill="#273349"/>
<path d="M244.341 190.948C244.341 186.458 247.283 183.568 251.412 183.568C254.974 183.568 257.374 185.426 258.148 188.626H254.251C253.838 187.413 252.883 186.639 251.387 186.639C249.374 186.639 248.032 188.161 248.032 190.948C248.032 193.735 249.374 195.232 251.387 195.232C252.883 195.232 253.812 194.561 254.251 193.271H258.148C257.374 196.316 254.974 198.329 251.412 198.329C247.283 198.329 244.341 195.439 244.341 190.948Z" fill="#273349"/>
<path d="M260.795 198.097V179H264.408V185.581C265.337 184.368 266.937 183.594 268.846 183.594C272.072 183.594 274.42 185.761 274.42 189.71V198.097H270.808V190.2C270.808 187.903 269.543 186.665 267.633 186.665C265.672 186.665 264.408 187.903 264.408 190.2V198.097H260.795Z" fill="#273349"/>
<path d="M185.451 236.832L180.6 218.794H184.471L187.645 232.781L191.31 218.794H195.335L198.793 232.703L201.993 218.794H205.89L200.858 236.806H196.6L193.219 223.981L189.684 236.806L185.451 236.832Z" fill="#273349"/>
<path d="M214.391 225.245C212.662 225.245 211.294 226.355 211.011 228.316H217.798C217.746 226.432 216.249 225.245 214.391 225.245ZM221.178 232.316C220.404 234.948 218.03 237.039 214.494 237.039C210.34 237.039 207.32 234.148 207.32 229.658C207.32 225.142 210.262 222.277 214.494 222.277C218.623 222.277 221.54 225.09 221.54 229.348C221.54 229.813 221.514 230.277 221.436 230.742H210.985C211.165 232.858 212.611 234.045 214.417 234.045C215.965 234.045 216.817 233.271 217.282 232.316H221.178Z" fill="#273349"/>
<path d="M224.564 236.806V225.477H222.938V222.51H224.564V221.787C224.564 218.277 226.551 216.652 230.577 216.755V219.8C228.822 219.748 228.228 220.316 228.228 221.916V222.51H230.732V225.477H228.228V236.806H224.564Z" fill="#273349"/>
<path d="M233.641 232.368V225.477H231.937V222.51H233.641V218.974H237.279V222.51H240.479V225.477H237.279V232.394C237.279 233.348 237.666 233.761 238.802 233.761H240.479V236.806H238.208C235.473 236.806 233.641 235.645 233.641 232.368Z" fill="#273349"/>
<path d="M248.298 229.606C248.298 225.142 251.188 222.277 254.853 222.277C256.737 222.277 258.543 223.155 259.524 224.497V217.71H263.188V236.806H259.524V234.69C258.672 236.006 257.072 237.039 254.827 237.039C251.188 237.039 248.298 234.071 248.298 229.606ZM259.55 229.658C259.55 226.948 257.743 225.452 255.756 225.452C253.821 225.452 251.988 226.897 251.988 229.606C251.988 232.316 253.821 233.865 255.756 233.865C257.743 233.865 259.55 232.368 259.55 229.658Z" fill="#273349"/>
<path d="M278.949 236.806L277.762 233.374H270.588L269.401 236.806H265.607L272.085 218.768H276.291L282.769 236.806H278.949ZM276.782 230.484L274.175 222.948L271.569 230.484H276.782Z" fill="#273349"/>
<path d="M288.803 224.574C289.654 223.361 291.306 222.277 293.525 222.277C297.19 222.277 300.054 225.142 300.054 229.606C300.054 234.071 297.19 237.039 293.525 237.039C291.28 237.039 289.68 235.929 288.803 234.768V243.619H285.19V222.51H288.803V224.574ZM296.364 229.606C296.364 226.897 294.532 225.452 292.57 225.452C290.635 225.452 288.803 226.948 288.803 229.658C288.803 232.368 290.635 233.865 292.57 233.865C294.532 233.865 296.364 232.316 296.364 229.606Z" fill="#273349"/>
<path d="M306.293 224.574C307.144 223.361 308.796 222.277 311.015 222.277C314.68 222.277 317.544 225.142 317.544 229.606C317.544 234.071 314.68 237.039 311.015 237.039C308.77 237.039 307.17 235.929 306.293 234.768V243.619H302.68V222.51H306.293V224.574ZM313.854 229.606C313.854 226.897 312.022 225.452 310.06 225.452C308.125 225.452 306.293 226.948 306.293 229.658C306.293 232.368 308.125 233.865 310.06 233.865C312.022 233.865 313.854 232.316 313.854 229.606Z" fill="#273349"/>
<path d="M293.012 182.504L302.114 192.039L305.176 195.241L329.064 169.709L329.088 188.836L305.2 214.899L283.93 192.061L293.012 182.504Z" fill="#273349"/>
<g filter="url(#filter5_d_267_91)">
<path d="M168.207 172.056V247.129H154.607V185.289H154.167L136.608 196.506V184.042L155.267 172.056H168.207Z" fill="#5AFBC4"/>
</g>
<path fill-rule="evenodd" clip-rule="evenodd" d="M170.787 169.475V249.709H152.026V189.718L134.028 201.216V182.633L154.509 169.475H170.787ZM154.167 185.288H154.607V247.129H168.207V172.055H155.267L136.608 184.042V196.505L154.167 185.288Z" fill="#5AFBC4"/>
<path d="M572.91 554.561C572.91 557.399 570.639 559.954 566.536 559.954C562.794 559.954 559.903 557.993 559.852 554.586H563.723C563.826 556.032 564.781 556.986 566.458 556.986C568.161 556.986 569.168 556.083 569.168 554.793C569.168 550.896 559.878 553.244 559.903 546.715C559.903 543.464 562.536 541.503 566.252 541.503C569.942 541.503 572.471 543.386 572.703 546.638H568.729C568.652 545.451 567.697 544.522 566.148 544.496C564.729 544.444 563.671 545.141 563.671 546.612C563.671 550.225 572.91 548.212 572.91 554.561Z" fill="#273349"/>
<path d="M589.539 545.477V559.774H585.9V557.967C584.997 559.18 583.423 559.954 581.642 559.954C578.313 559.954 575.913 557.786 575.913 553.864V545.477H579.526V553.348C579.526 555.645 580.79 556.883 582.7 556.883C584.661 556.883 585.9 555.645 585.9 553.348V545.477H589.539Z" fill="#273349"/>
<path d="M596.716 547.541C597.568 546.328 599.22 545.244 601.439 545.244C605.104 545.244 607.968 548.109 607.968 552.574C607.968 557.038 605.104 560.006 601.439 560.006C599.194 560.006 597.594 558.896 596.716 557.735V566.586H593.104V545.477H596.716V547.541ZM604.278 552.574C604.278 549.864 602.445 548.419 600.484 548.419C598.549 548.419 596.716 549.915 596.716 552.625C596.716 555.335 598.549 556.832 600.484 556.832C602.445 556.832 604.278 555.283 604.278 552.574Z" fill="#273349"/>
<path d="M614.206 547.541C615.058 546.328 616.71 545.244 618.929 545.244C622.593 545.244 625.458 548.109 625.458 552.574C625.458 557.038 622.593 560.006 618.929 560.006C616.684 560.006 615.084 558.896 614.206 557.735V566.586H610.593V545.477H614.206V547.541ZM621.768 552.574C621.768 549.864 619.935 548.419 617.974 548.419C616.039 548.419 614.206 549.915 614.206 552.625C614.206 555.335 616.039 556.832 617.974 556.832C619.935 556.832 621.768 555.283 621.768 552.574Z" fill="#273349"/>
<path d="M628.083 559.774V540.677H631.696V559.774H628.083Z" fill="#273349"/>
<path d="M641.356 555.464L645.098 545.477H648.943L640.092 566.535H636.246L639.343 559.412L633.614 545.477H637.666L641.356 555.464Z" fill="#273349"/>
<path d="M559.387 591.335C559.387 586.844 562.329 583.954 566.458 583.954C570.019 583.954 572.419 585.812 573.194 589.012H569.297C568.884 587.799 567.929 587.025 566.432 587.025C564.419 587.025 563.078 588.548 563.078 591.335C563.078 594.122 564.419 595.619 566.432 595.619C567.929 595.619 568.858 594.948 569.297 593.657H573.194C572.419 596.703 570.019 598.715 566.458 598.715C562.329 598.715 559.387 595.825 559.387 591.335Z" fill="#273349"/>
<path d="M589.647 591.335C589.647 595.825 586.344 598.715 582.189 598.715C578.06 598.715 574.937 595.825 574.937 591.335C574.937 586.819 578.163 583.954 582.292 583.954C586.421 583.954 589.647 586.819 589.647 591.335ZM578.602 591.335C578.602 594.174 580.253 595.567 582.189 595.567C584.099 595.567 585.931 594.174 585.931 591.335C585.931 588.47 584.15 587.103 582.24 587.103C580.331 587.103 578.602 588.47 578.602 591.335Z" fill="#273349"/>
<path d="M592.297 598.483V579.386H595.91V598.483H592.297Z" fill="#273349"/>
<path d="M599.48 598.483V579.386H603.092V598.483H599.48Z" fill="#273349"/>
<path d="M605.733 591.283C605.733 586.819 608.623 583.954 612.262 583.954C614.559 583.954 616.133 585.038 616.985 586.225V584.186H620.623V598.483H616.985V596.393C616.133 597.632 614.507 598.715 612.236 598.715C608.623 598.715 605.733 595.748 605.733 591.283ZM616.985 591.335C616.985 588.625 615.178 587.128 613.191 587.128C611.256 587.128 609.423 588.574 609.423 591.283C609.423 593.993 611.256 595.541 613.191 595.541C615.178 595.541 616.985 594.044 616.985 591.335Z" fill="#273349"/>
<path d="M624.72 594.044V587.154H623.016V584.186H624.72V580.651H628.358V584.186H631.558V587.154H628.358V594.07C628.358 595.025 628.745 595.438 629.881 595.438H631.558V598.483H629.287C626.552 598.483 624.72 597.322 624.72 594.044Z" fill="#273349"/>
<path d="M640.299 586.922C638.57 586.922 637.202 588.032 636.918 589.993H643.705C643.654 588.109 642.157 586.922 640.299 586.922ZM647.086 593.993C646.312 596.625 643.938 598.715 640.402 598.715C636.247 598.715 633.228 595.825 633.228 591.335C633.228 586.819 636.17 583.954 640.402 583.954C644.531 583.954 647.447 586.767 647.447 591.025C647.447 591.49 647.421 591.954 647.344 592.419H636.892C637.073 594.535 638.518 595.722 640.325 595.722C641.873 595.722 642.725 594.948 643.189 593.993H647.086Z" fill="#273349"/>
<path d="M653.697 591.361V598.483H650.084V584.186H653.697V586.406C654.601 584.935 656.097 583.98 658.084 583.98V587.774H657.13C654.988 587.774 653.697 588.599 653.697 591.361Z" fill="#273349"/>
<path d="M659.589 591.283C659.589 586.819 662.479 583.954 666.118 583.954C668.415 583.954 669.989 585.038 670.84 586.225V584.186H674.479V598.483H670.84V596.393C669.989 597.632 668.363 598.715 666.092 598.715C662.479 598.715 659.589 595.748 659.589 591.283ZM670.84 591.335C670.84 588.625 669.034 587.128 667.047 587.128C665.111 587.128 663.279 588.574 663.279 591.283C663.279 593.993 665.111 595.541 667.047 595.541C669.034 595.541 670.84 594.044 670.84 591.335Z" fill="#273349"/>
<path d="M678.008 598.483V579.386H681.621V598.483H678.008Z" fill="#273349"/>
<path d="M671.077 537.343L680.178 546.878L683.24 550.08L707.129 524.548L707.152 543.675L683.264 569.738L661.995 546.9L671.077 537.343Z" fill="#505A6C"/>
<g filter="url(#filter6_d_267_91)">
<path d="M495.67 585.457V574.643L527.525 524.313H536.543V539.709H531.044L509.6 573.69V574.277H554.065V585.457H495.67ZM531.484 599.387V582.158L531.631 577.319V524.313H544.46V599.387H531.484Z" fill="white"/>
</g>
<g filter="url(#filter7_d_267_91)">
<path fill-rule="evenodd" clip-rule="evenodd" d="M493.09 588.037V573.895L526.104 521.732H547.041V571.696H556.645V588.037H547.041V601.967H528.903V588.037H493.09ZM531.484 585.457V599.386H544.461V585.457H554.065V574.276H544.461V524.313H527.525L495.67 574.643V585.457H531.484ZM531.631 539.709H531.044L509.6 573.69V574.276H531.631V539.709ZM529.05 547.704L513.91 571.696H529.05V547.704Z" fill="#273349"/>
</g>
<path d="M707.129 495.309C707.129 500.831 702.652 505.309 697.129 505.309H551.968C546.445 505.309 541.968 500.831 541.968 495.309V486.162C541.968 480.64 546.445 476.162 551.968 476.162H697.129C702.652 476.162 707.129 480.64 707.129 486.162V495.309Z" fill="#5AFBC4"/>
<path d="M549.03 486.133H550.95L552.558 490.285H552.659L555.633 486.133H557.553L553.163 492.017L552.581 495.517H550.886L551.467 492.017L549.03 486.133Z" fill="black"/>
<path d="M558.903 495.655C558.21 495.655 557.632 495.502 557.171 495.197C556.713 494.891 556.391 494.462 556.204 493.909C556.018 493.356 555.984 492.715 556.103 491.985C556.223 491.264 556.461 490.633 556.818 490.092C557.179 489.551 557.632 489.133 558.179 488.837C558.729 488.537 559.345 488.388 560.026 488.388C560.719 488.388 561.295 488.542 561.753 488.85C562.211 489.156 562.534 489.585 562.72 490.138C562.909 490.691 562.945 491.335 562.825 492.072C562.709 492.789 562.47 493.417 562.106 493.955C561.746 494.492 561.292 494.911 560.745 495.21C560.198 495.507 559.584 495.655 558.903 495.655ZM559.041 494.326C559.425 494.326 559.763 494.222 560.053 494.014C560.346 493.804 560.586 493.521 560.773 493.167C560.962 492.809 561.093 492.412 561.167 491.975C561.234 491.554 561.235 491.172 561.171 490.83C561.107 490.485 560.97 490.211 560.759 490.01C560.551 489.805 560.262 489.703 559.893 489.703C559.508 489.703 559.167 489.81 558.871 490.023C558.578 490.234 558.338 490.518 558.152 490.876C557.965 491.23 557.837 491.626 557.767 492.062C557.696 492.484 557.693 492.866 557.758 493.208C557.822 493.55 557.959 493.822 558.17 494.024C558.381 494.225 558.671 494.326 559.041 494.326Z" fill="black"/>
<path d="M568.641 492.557L569.324 488.479H570.983L569.81 495.517H568.201L568.412 494.266H568.339C568.119 494.66 567.804 494.983 567.395 495.233C566.989 495.484 566.521 495.609 565.993 495.609C565.531 495.609 565.142 495.507 564.824 495.302C564.507 495.094 564.281 494.793 564.146 494.399C564.015 494.002 563.995 493.523 564.087 492.961L564.838 488.479H566.497L565.791 492.704C565.721 493.15 565.785 493.504 565.984 493.767C566.185 494.03 566.485 494.161 566.882 494.161C567.126 494.161 567.372 494.101 567.619 493.982C567.87 493.863 568.088 493.686 568.275 493.451C568.461 493.213 568.583 492.915 568.641 492.557Z" fill="black"/>
<path d="M581.135 490.34L579.61 490.505C579.594 490.349 579.547 490.204 579.468 490.069C579.388 489.935 579.269 489.828 579.11 489.748C578.954 489.666 578.753 489.625 578.505 489.625C578.145 489.625 577.829 489.706 577.557 489.868C577.285 490.03 577.131 490.237 577.094 490.491C577.06 490.68 577.106 490.834 577.232 490.954C577.357 491.073 577.589 491.174 577.928 491.256L579.092 491.513C579.733 491.656 580.195 491.888 580.476 492.209C580.76 492.53 580.859 492.95 580.774 493.469C580.7 493.903 580.511 494.285 580.205 494.615C579.9 494.942 579.509 495.197 579.032 495.38C578.559 495.563 578.033 495.655 577.456 495.655C576.579 495.655 575.904 495.473 575.431 495.11C574.96 494.743 574.727 494.239 574.73 493.597L576.361 493.442C576.379 493.759 576.491 493.999 576.695 494.161C576.9 494.32 577.184 494.401 577.548 494.404C577.957 494.407 578.302 494.321 578.583 494.147C578.867 493.97 579.028 493.755 579.064 493.501C579.095 493.312 579.048 493.158 578.922 493.038C578.8 492.919 578.582 492.825 578.267 492.754L577.112 492.502C576.459 492.359 575.993 492.116 575.715 491.774C575.44 491.429 575.347 490.993 575.435 490.468C575.509 490.04 575.687 489.672 575.971 489.364C576.259 489.052 576.627 488.812 577.076 488.644C577.525 488.473 578.027 488.388 578.583 488.388C579.42 488.388 580.051 488.563 580.476 488.915C580.9 489.266 581.12 489.741 581.135 490.34Z" fill="black"/>
<path d="M586.485 488.479L586.27 489.762H582.228L582.439 488.479H586.485ZM583.713 486.793H585.372L584.272 493.4C584.238 493.623 584.244 493.794 584.29 493.914C584.339 494.03 584.417 494.109 584.524 494.152C584.634 494.195 584.758 494.216 584.895 494.216C584.996 494.216 585.091 494.208 585.179 494.193C585.268 494.175 585.338 494.161 585.39 494.152L585.463 495.449C585.362 495.479 585.227 495.513 585.055 495.549C584.887 495.586 584.686 495.607 584.451 495.614C584.029 495.623 583.663 495.559 583.351 495.421C583.042 495.281 582.816 495.065 582.673 494.775C582.532 494.482 582.5 494.115 582.577 493.675L583.713 486.793Z" fill="black"/>
<path d="M588.706 495.659C588.26 495.659 587.872 495.58 587.542 495.421C587.213 495.259 586.97 495.021 586.814 494.706C586.661 494.392 586.623 494.004 586.699 493.542C586.767 493.145 586.895 492.817 587.084 492.557C587.277 492.298 587.512 492.09 587.79 491.934C588.071 491.775 588.376 491.656 588.706 491.577C589.039 491.497 589.378 491.439 589.724 491.403C590.145 491.36 590.486 491.32 590.745 491.283C591.008 491.247 591.205 491.192 591.336 491.119C591.468 491.042 591.547 490.926 591.575 490.77V490.743C591.63 490.398 591.575 490.13 591.41 489.941C591.245 489.752 590.97 489.657 590.585 489.657C590.182 489.657 589.843 489.745 589.568 489.923C589.293 490.1 589.093 490.309 588.967 490.55L587.465 490.33C587.654 489.903 587.914 489.545 588.243 489.258C588.573 488.968 588.954 488.751 589.384 488.608C589.818 488.461 590.281 488.388 590.773 488.388C591.109 488.388 591.437 488.427 591.758 488.507C592.082 488.586 592.367 488.717 592.615 488.901C592.865 489.081 593.049 489.327 593.165 489.638C593.284 489.95 593.304 490.34 593.224 490.807L592.441 495.517H590.846L591.011 494.551H590.956C590.825 494.746 590.654 494.929 590.443 495.1C590.232 495.268 589.982 495.404 589.691 495.508C589.401 495.609 589.073 495.659 588.706 495.659ZM589.334 494.441C589.667 494.441 589.966 494.375 590.232 494.244C590.498 494.109 590.716 493.932 590.887 493.712C591.058 493.492 591.165 493.252 591.208 492.993L591.346 492.163C591.284 492.206 591.19 492.246 591.061 492.282C590.933 492.319 590.79 492.351 590.631 492.379C590.475 492.406 590.321 492.431 590.168 492.452C590.015 492.473 589.884 492.492 589.774 492.507C589.52 492.541 589.288 492.595 589.077 492.672C588.87 492.748 588.697 492.855 588.56 492.993C588.425 493.127 588.341 493.301 588.308 493.515C588.259 493.817 588.331 494.048 588.523 494.207C588.715 494.363 588.986 494.441 589.334 494.441Z" fill="black"/>
<path d="M594.109 495.517L595.282 488.479H596.89L596.693 489.652H596.766C596.959 489.246 597.231 488.933 597.582 488.713C597.936 488.49 598.315 488.378 598.718 488.378C598.813 488.378 598.915 488.383 599.025 488.392C599.135 488.398 599.23 488.409 599.309 488.424L599.053 489.95C598.982 489.926 598.872 489.904 598.723 489.886C598.576 489.865 598.431 489.854 598.287 489.854C597.985 489.854 597.704 489.92 597.444 490.051C597.188 490.179 596.971 490.358 596.794 490.587C596.617 490.816 596.502 491.08 596.45 491.38L595.767 495.517H594.109Z" fill="black"/>
<path d="M604.303 488.479L604.087 489.762H600.046L600.257 488.479H604.303ZM601.53 486.793H603.189L602.089 493.4C602.056 493.623 602.062 493.794 602.108 493.914C602.157 494.03 602.235 494.109 602.342 494.152C602.451 494.195 602.575 494.216 602.713 494.216C602.813 494.216 602.908 494.208 602.997 494.193C603.085 494.175 603.156 494.161 603.208 494.152L603.281 495.449C603.18 495.479 603.044 495.513 602.873 495.549C602.705 495.586 602.503 495.607 602.268 495.614C601.847 495.623 601.48 495.559 601.168 495.421C600.86 495.281 600.634 495.065 600.49 494.775C600.35 494.482 600.318 494.115 600.394 493.675L601.53 486.793Z" fill="black"/>
<path d="M607.791 495.517L609.349 486.133H615.452L615.214 487.558H610.81L610.389 490.106H614.476L614.238 491.531H610.151L609.729 494.092H614.169L613.931 495.517H607.791Z" fill="black"/>
<path d="M616.834 495.517H615.019L619.881 486.133H621.979L623.73 495.517H621.915L620.655 488.058H620.582L616.834 495.517ZM617.503 491.838H622.451L622.222 493.203H617.273L617.503 491.838Z" fill="black"/>
<path d="M624.966 495.517L626.524 486.133H630.043C630.764 486.133 631.349 486.258 631.798 486.509C632.247 486.759 632.56 487.111 632.737 487.563C632.914 488.012 632.952 488.536 632.851 489.134C632.754 489.733 632.54 490.254 632.21 490.697C631.883 491.137 631.451 491.477 630.913 491.719C630.379 491.96 629.751 492.081 629.03 492.081H626.524L626.762 490.669H629.044C629.465 490.669 629.82 490.611 630.107 490.495C630.394 490.376 630.62 490.204 630.785 489.978C630.953 489.748 631.064 489.467 631.119 489.134C631.171 488.801 631.152 488.517 631.06 488.282C630.971 488.044 630.802 487.864 630.551 487.742C630.304 487.616 629.969 487.554 629.548 487.554H627.99L626.666 495.517H624.966ZM630.519 491.265L632.137 495.517H630.24L628.663 491.265H630.519Z" fill="black"/>
<path d="M642.678 486.133L641.12 495.517H639.608L636.249 489.125H636.176L635.108 495.517H633.408L634.966 486.133H636.487L639.842 492.53H639.929L640.987 486.133H642.678Z" fill="black"/>
<path d="M646.23 486.133L644.672 495.517H642.972L644.53 486.133H646.23Z" fill="black"/>
<path d="M655.783 486.133L654.225 495.517H652.713L649.354 489.125H649.281L648.213 495.517H646.513L648.071 486.133H649.592L652.946 492.53H653.033L654.092 486.133H655.783Z" fill="black"/>
<path d="M663.418 489.13C663.384 488.882 663.323 488.661 663.234 488.465C663.146 488.267 663.027 488.099 662.877 487.961C662.727 487.821 662.545 487.714 662.332 487.641C662.118 487.567 661.869 487.531 661.585 487.531C661.081 487.531 660.603 487.657 660.151 487.911C659.698 488.165 659.312 488.537 658.991 489.029C658.671 489.518 658.452 490.114 658.336 490.816C658.22 491.525 658.226 492.125 658.354 492.617C658.483 493.109 658.718 493.483 659.06 493.739C659.405 493.993 659.839 494.12 660.361 494.12C660.841 494.12 661.276 494.028 661.667 493.845C662.058 493.662 662.382 493.402 662.639 493.066C662.898 492.727 663.063 492.33 663.134 491.875L663.509 491.934H660.957L661.186 490.605H664.994L664.801 491.733C664.67 492.539 664.384 493.235 663.945 493.822C663.508 494.405 662.962 494.856 662.309 495.174C661.658 495.488 660.945 495.646 660.169 495.646C659.307 495.646 658.582 495.452 657.992 495.064C657.406 494.673 656.99 494.118 656.746 493.4C656.502 492.679 656.462 491.824 656.627 490.834C656.749 490.077 656.966 489.4 657.278 488.805C657.592 488.209 657.977 487.703 658.432 487.288C658.89 486.869 659.399 486.552 659.958 486.335C660.517 486.115 661.104 486.005 661.718 486.005C662.234 486.005 662.704 486.081 663.129 486.234C663.554 486.384 663.917 486.598 664.219 486.875C664.525 487.153 664.759 487.483 664.921 487.865C665.082 488.247 665.159 488.669 665.15 489.13H663.418Z" fill="black"/>
<path d="M671.291 491.393L670.613 495.517H668.949L670.507 486.133H672.134L671.547 489.675H671.634C671.857 489.275 672.161 488.96 672.546 488.731C672.934 488.502 673.4 488.388 673.944 488.388C674.427 488.388 674.833 488.49 675.163 488.695C675.493 488.899 675.725 489.199 675.859 489.593C675.997 489.987 676.02 490.468 675.928 491.036L675.176 495.517H673.513L674.219 491.293C674.295 490.819 674.233 490.451 674.031 490.188C673.832 489.923 673.518 489.79 673.087 489.79C672.791 489.79 672.517 489.854 672.267 489.982C672.016 490.107 671.806 490.289 671.634 490.527C671.466 490.766 671.352 491.054 671.291 491.393Z" fill="black"/>
<path d="M679.956 495.655C679.25 495.655 678.666 495.508 678.205 495.215C677.744 494.919 677.42 494.5 677.234 493.959C677.051 493.416 677.02 492.776 677.142 492.04C677.261 491.316 677.504 490.68 677.871 490.133C678.237 489.584 678.696 489.156 679.245 488.85C679.798 488.542 680.409 488.388 681.078 488.388C681.512 488.388 681.911 488.458 682.274 488.598C682.638 488.736 682.945 488.95 683.195 489.24C683.446 489.53 683.618 489.9 683.713 490.349C683.808 490.795 683.803 491.326 683.699 491.943L683.621 492.452H677.848L678.027 491.334H682.205C682.26 491.016 682.242 490.734 682.15 490.486C682.059 490.236 681.906 490.039 681.692 489.895C681.478 489.752 681.211 489.68 680.89 489.68C680.563 489.68 680.258 489.764 679.974 489.932C679.693 490.097 679.456 490.311 679.264 490.573C679.071 490.836 678.949 491.112 678.897 491.403L678.709 492.475C678.642 492.915 678.657 493.274 678.755 493.552C678.853 493.83 679.024 494.034 679.268 494.166C679.513 494.297 679.821 494.363 680.194 494.363C680.438 494.363 680.664 494.329 680.872 494.262C681.08 494.195 681.265 494.094 681.426 493.959C681.591 493.822 681.729 493.654 681.839 493.455L683.356 493.63C683.188 494.039 682.942 494.396 682.618 494.702C682.294 495.004 681.906 495.239 681.454 495.407C681.005 495.572 680.505 495.655 679.956 495.655Z" fill="black"/>
<path d="M684.519 495.517L685.692 488.479H687.301L687.104 489.652H687.177C687.369 489.246 687.641 488.933 687.993 488.713C688.347 488.49 688.726 488.378 689.129 488.378C689.224 488.378 689.326 488.383 689.436 488.392C689.546 488.398 689.641 488.409 689.72 488.424L689.463 489.95C689.393 489.926 689.283 489.904 689.134 489.886C688.987 489.865 688.842 489.854 688.698 489.854C688.396 489.854 688.115 489.92 687.855 490.051C687.599 490.179 687.382 490.358 687.204 490.587C687.027 490.816 686.913 491.08 686.861 491.38L686.178 495.517H684.519Z" fill="black"/>
<path d="M692.456 495.655C691.75 495.655 691.166 495.508 690.705 495.215C690.244 494.919 689.92 494.5 689.734 493.959C689.551 493.416 689.52 492.776 689.642 492.04C689.761 491.316 690.004 490.68 690.371 490.133C690.737 489.584 691.196 489.156 691.745 488.85C692.298 488.542 692.909 488.388 693.578 488.388C694.012 488.388 694.411 488.458 694.774 488.598C695.138 488.736 695.445 488.95 695.695 489.24C695.946 489.53 696.118 489.9 696.213 490.349C696.308 490.795 696.303 491.326 696.199 491.943L696.121 492.452H690.348L690.527 491.334H694.705C694.76 491.016 694.742 490.734 694.65 490.486C694.559 490.236 694.406 490.039 694.192 489.895C693.978 489.752 693.711 489.68 693.39 489.68C693.063 489.68 692.758 489.764 692.474 489.932C692.193 490.097 691.956 490.311 691.764 490.573C691.571 490.836 691.449 491.112 691.397 491.403L691.209 492.475C691.142 492.915 691.157 493.274 691.255 493.552C691.353 493.83 691.524 494.034 691.768 494.166C692.013 494.297 692.321 494.363 692.694 494.363C692.938 494.363 693.164 494.329 693.372 494.262C693.58 494.195 693.765 494.094 693.926 493.959C694.091 493.822 694.229 493.654 694.339 493.455L695.856 493.63C695.688 494.039 695.442 494.396 695.118 494.702C694.794 495.004 694.406 495.239 693.954 495.407C693.505 495.572 693.005 495.655 692.456 495.655Z" fill="black"/>
<path d="M700.598 486.133L699.352 492.759H697.885L698.834 486.133H700.598ZM698.266 495.618C697.985 495.618 697.753 495.52 697.569 495.325C697.386 495.129 697.3 494.891 697.313 494.61C697.325 494.335 697.436 494.101 697.647 493.909C697.858 493.717 698.101 493.62 698.376 493.62C698.648 493.62 698.878 493.718 699.068 493.914C699.26 494.109 699.347 494.341 699.329 494.61C699.317 494.799 699.258 494.971 699.155 495.123C699.054 495.276 698.926 495.397 698.77 495.485C698.614 495.574 698.446 495.618 698.266 495.618Z" fill="black"/>
<path d="M671.077 276.053L680.178 285.588L683.24 288.79L707.129 263.258L707.152 282.385L683.264 308.448L661.995 285.61L671.077 276.053Z" fill="#5AFBC4"/>
<g filter="url(#filter8_d_267_91)">
<path d="M498.317 320.032V310.208L524.38 284.658C526.873 282.141 528.95 279.905 530.612 277.95C532.273 275.995 533.52 274.101 534.351 272.268C535.181 270.436 535.597 268.481 535.597 266.403C535.597 264.033 535.059 262.004 533.984 260.318C532.909 258.608 531.43 257.288 529.549 256.359C527.667 255.431 525.528 254.966 523.134 254.966C520.665 254.966 518.503 255.48 516.645 256.506C514.788 257.508 513.346 258.938 512.32 260.795C511.318 262.652 510.817 264.864 510.817 267.43H497.877C497.877 262.664 498.964 258.522 501.139 255.003C503.314 251.484 506.308 248.759 510.12 246.829C513.957 244.898 518.356 243.933 523.317 243.933C528.351 243.933 532.774 244.873 536.587 246.755C540.399 248.637 543.356 251.215 545.458 254.49C547.584 257.764 548.647 261.503 548.647 265.707C548.647 268.517 548.109 271.279 547.034 273.991C545.959 276.704 544.065 279.71 541.352 283.009C538.664 286.308 534.888 290.304 530.025 294.996L517.085 308.155V308.669H549.783V320.032H498.317Z" fill="#505A6C"/>
</g>
<path d="M567.387 254.226C567.387 248.832 571.335 245.013 576.522 245.013C580.522 245.013 583.774 247.155 584.987 250.845H580.832C579.981 249.116 578.432 248.264 576.497 248.264C573.348 248.264 571.103 250.561 571.103 254.226C571.103 257.864 573.348 260.187 576.497 260.187C578.432 260.187 579.981 259.335 580.832 257.58H584.987C583.774 261.297 580.522 263.413 576.522 263.413C571.335 263.413 567.387 259.619 567.387 254.226Z" fill="#273349"/>
<path d="M601.879 256.109C601.879 260.6 598.576 263.49 594.421 263.49C590.292 263.49 587.17 260.6 587.17 256.109C587.17 251.593 590.395 248.729 594.524 248.729C598.654 248.729 601.879 251.593 601.879 256.109ZM590.834 256.109C590.834 258.948 592.486 260.342 594.421 260.342C596.331 260.342 598.163 258.948 598.163 256.109C598.163 253.245 596.383 251.877 594.473 251.877C592.563 251.877 590.834 253.245 590.834 256.109Z" fill="#273349"/>
<path d="M614.542 263.258V255.361C614.542 253.064 613.278 251.826 611.368 251.826C609.407 251.826 608.142 253.064 608.142 255.361V263.258H604.53V248.961H608.142V250.742C609.071 249.529 610.62 248.755 612.452 248.755C615.781 248.755 618.155 250.922 618.155 254.871V263.258H614.542Z" fill="#273349"/>
<path d="M631.604 263.258V255.361C631.604 253.064 630.339 251.826 628.43 251.826C626.468 251.826 625.204 253.064 625.204 255.361V263.258H621.591V248.961H625.204V250.742C626.133 249.529 627.681 248.755 629.514 248.755C632.843 248.755 635.217 250.922 635.217 254.871V263.258H631.604Z" fill="#273349"/>
<path d="M644.794 251.697C643.065 251.697 641.698 252.806 641.414 254.768H648.201C648.149 252.884 646.653 251.697 644.794 251.697ZM651.582 258.768C650.807 261.4 648.433 263.49 644.898 263.49C640.743 263.49 637.723 260.6 637.723 256.109C637.723 251.593 640.665 248.729 644.898 248.729C649.027 248.729 651.943 251.542 651.943 255.8C651.943 256.264 651.917 256.729 651.84 257.193H641.388C641.569 259.309 643.014 260.497 644.82 260.497C646.369 260.497 647.22 259.722 647.685 258.768H651.582Z" fill="#273349"/>
<path d="M653.651 256.109C653.651 251.619 656.593 248.729 660.722 248.729C664.283 248.729 666.683 250.587 667.457 253.787H663.561C663.148 252.574 662.193 251.8 660.696 251.8C658.683 251.8 657.341 253.322 657.341 256.109C657.341 258.897 658.683 260.393 660.696 260.393C662.193 260.393 663.122 259.722 663.561 258.432H667.457C666.683 261.477 664.283 263.49 660.722 263.49C656.593 263.49 653.651 260.6 653.651 256.109Z" fill="#273349"/>
<path d="M670.672 258.819V251.929H668.969V248.961H670.672V245.426H674.311V248.961H677.511V251.929H674.311V258.845C674.311 259.8 674.698 260.213 675.833 260.213H677.511V263.258H675.24C672.504 263.258 670.672 262.097 670.672 258.819Z" fill="#273349"/>
<path d="M577.813 279.232C577.813 277.632 576.91 276.626 574.897 276.626H571.877V281.916H574.897C576.91 281.916 577.813 280.858 577.813 279.232ZM568.264 273.632H575.026C579.361 273.632 581.529 276.135 581.529 279.155C581.529 281.348 580.316 283.568 577.426 284.342L581.735 291.645H577.555L573.581 284.626H571.877V291.645H568.264V273.632Z" fill="#273349"/>
<path d="M583.868 284.445C583.868 279.98 586.758 277.116 590.397 277.116C592.693 277.116 594.268 278.2 595.119 279.387V277.348H598.758V291.645H595.119V289.555C594.268 290.793 592.642 291.877 590.371 291.877C586.758 291.877 583.868 288.909 583.868 284.445ZM595.119 284.497C595.119 281.787 593.313 280.29 591.326 280.29C589.39 280.29 587.558 281.735 587.558 284.445C587.558 287.155 589.39 288.703 591.326 288.703C593.313 288.703 595.119 287.206 595.119 284.497Z" fill="#273349"/>
<path d="M601.358 284.445C601.358 279.98 604.248 277.116 607.912 277.116C609.796 277.116 611.603 277.993 612.583 279.335V272.548H616.248V291.645H612.583V289.529C611.732 290.845 610.132 291.877 607.887 291.877C604.248 291.877 601.358 288.909 601.358 284.445ZM612.609 284.497C612.609 281.787 610.803 280.29 608.816 280.29C606.88 280.29 605.048 281.735 605.048 284.445C605.048 287.155 606.88 288.703 608.816 288.703C610.803 288.703 612.609 287.206 612.609 284.497Z" fill="#273349"/>
<path d="M619.777 291.645V277.348H623.389V291.645H619.777ZM621.609 275.645C620.318 275.645 619.389 274.716 619.389 273.529C619.389 272.342 620.318 271.413 621.609 271.413C622.873 271.413 623.828 272.342 623.828 273.529C623.828 274.716 622.873 275.645 621.609 275.645Z" fill="#273349"/>
<path d="M634.856 291.645L631.914 287.206L629.307 291.645H625.436L630.107 284.471L625.385 277.348H629.462L632.378 281.761L635.011 277.348H638.882L634.185 284.471L638.933 291.645H634.856Z" fill="#273349"/>
<path d="M571.903 320.058L567.052 302.019H570.922L574.097 316.006L577.761 302.019H581.787L585.245 315.929L588.445 302.019H592.342L587.31 320.032H583.052L579.671 307.206L576.135 320.032L571.903 320.058Z" fill="#273349"/>
<path d="M593.772 312.832C593.772 308.368 596.662 305.503 600.301 305.503C602.598 305.503 604.172 306.587 605.023 307.774V305.735H608.662V320.032H605.023V317.942C604.172 319.18 602.546 320.264 600.275 320.264C596.662 320.264 593.772 317.297 593.772 312.832ZM605.023 312.884C605.023 310.174 603.217 308.677 601.23 308.677C599.294 308.677 597.462 310.122 597.462 312.832C597.462 315.542 599.294 317.09 601.23 317.09C603.217 317.09 605.023 315.593 605.023 312.884Z" fill="#273349"/>
<path d="M612.191 320.032V300.935H615.804V320.032H612.191Z" fill="#273349"/>
<path d="M619.373 320.032V300.935H622.986V320.032H619.373Z" fill="#273349"/>
<path d="M632.698 308.471C630.969 308.471 629.601 309.58 629.317 311.542H636.104C636.053 309.658 634.556 308.471 632.698 308.471ZM639.485 315.542C638.711 318.174 636.336 320.264 632.801 320.264C628.646 320.264 625.627 317.374 625.627 312.884C625.627 308.368 628.569 305.503 632.801 305.503C636.93 305.503 639.846 308.316 639.846 312.574C639.846 313.038 639.82 313.503 639.743 313.968H629.291C629.472 316.084 630.917 317.271 632.723 317.271C634.272 317.271 635.123 316.497 635.588 315.542H639.485Z" fill="#273349"/>
<path d="M643.051 315.593V308.703H641.348V305.735H643.051V302.2H646.69V305.735H649.89V308.703H646.69V315.619C646.69 316.574 647.077 316.987 648.212 316.987H649.89V320.032H647.619C644.883 320.032 643.051 318.871 643.051 315.593Z" fill="#273349"/>
<g opacity="0.3">
<path d="M579.759 83.2588L459.445 214.268L399.286 148.762L354.273 197.8L399.286 248.083L459.445 315.256L579.759 181.517V83.2588Z" fill="url(#paint0_linear_267_91)" fill-opacity="0.19"/>
<path d="M399.288 148.762L354.275 197.8L339.133 214.268L220.677 83.2588V181.517L339.133 315.256L444.32 197.8L399.288 148.762Z" fill="url(#paint1_linear_267_91)" fill-opacity="0.19"/>
<path d="M399.292 315.035L354.279 363.667L339.137 380L220.681 250.069V347.517L339.137 480.153L444.325 363.667L399.292 315.035Z" fill="url(#paint2_linear_267_91)" fill-opacity="0.19"/>
<path d="M581.322 393.492L461.007 523.42L400.849 458.457L355.836 507.087L400.849 556.957L461.007 623.573L581.322 490.94V393.492Z" fill="#5AFBC4"/>
<path d="M400.848 458.457L355.835 507.087L340.693 523.42L222.237 393.492V490.94L340.693 623.573L445.88 507.087L400.848 458.457Z" fill="#5AFBC4" fill-opacity="0.26"/>
<path d="M581.323 560.303L461.008 690.23L400.85 625.265L355.837 673.898L400.85 723.767L461.008 790.383L581.323 657.747V560.303Z" fill="url(#paint3_linear_267_91)" fill-opacity="0.19"/>
<path d="M400.847 625.261L355.834 673.894L340.691 690.226L222.236 560.299V657.744L340.691 790.379L445.879 673.894L400.847 625.261Z" fill="url(#paint4_linear_267_91)" fill-opacity="0.19"/>
<path d="M580.232 250.069L459.918 379.997L399.759 315.035L354.746 363.664L399.759 413.534L459.918 480.15L580.232 347.517V250.069Z" fill="url(#paint5_linear_267_91)" fill-opacity="0.19"/>
</g>
<defs>
<filter id="filter0_d_267_91" x="0" y="0" width="825.871" height="902" filterUnits="userSpaceOnUse" color-interpolation-filters="sRGB">
<feFlood flood-opacity="0" result="BackgroundImageFix"/>
<feColorMatrix in="SourceAlpha" type="matrix" values="0 0 0 0 0 0 0 0 0 0 0 0 0 0 0 0 0 0 127 0" result="hardAlpha"/>
<feMorphology radius="11" operator="dilate" in="SourceAlpha" result="effect1_dropShadow_267_91"/>
<feOffset/>
<feGaussianBlur stdDeviation="20"/>
<feComposite in2="hardAlpha" operator="out"/>
<feColorMatrix type="matrix" values="0 0 0 0 0 0 0 0 0 0 0 0 0 0 0 0 0 0 0.07 0"/>
<feBlend mode="normal" in2="BackgroundImageFix" result="effect1_dropShadow_267_91"/>
<feBlend mode="normal" in="SourceGraphic" in2="effect1_dropShadow_267_91" result="shape"/>
</filter>
<filter id="filter1_d_267_91" x="279.93" y="397.678" width="53.1572" height="53.1904" filterUnits="userSpaceOnUse" color-interpolation-filters="sRGB">
<feFlood flood-opacity="0" result="BackgroundImageFix"/>
<feColorMatrix in="SourceAlpha" type="matrix" values="0 0 0 0 0 0 0 0 0 0 0 0 0 0 0 0 0 0 127 0" result="hardAlpha"/>
<feOffset dy="1"/>
<feGaussianBlur stdDeviation="2"/>
<feComposite in2="hardAlpha" operator="out"/>
<feColorMatrix type="matrix" values="0 0 0 0 0 0 0 0 0 0 0 0 0 0 0 0 0 0 0.25 0"/>
<feBlend mode="normal" in2="BackgroundImageFix" result="effect1_dropShadow_267_91"/>
<feBlend mode="normal" in="SourceGraphic" in2="effect1_dropShadow_267_91" result="shape"/>
</filter>
<filter id="filter2_d_267_91" x="136.956" y="398.126" width="63.2422" height="85.126" filterUnits="userSpaceOnUse" color-interpolation-filters="sRGB">
<feFlood flood-opacity="0" result="BackgroundImageFix"/>
<feColorMatrix in="SourceAlpha" type="matrix" values="0 0 0 0 0 0 0 0 0 0 0 0 0 0 0 0 0 0 127 0" result="hardAlpha"/>
<feOffset dy="4"/>
<feGaussianBlur stdDeviation="2"/>
<feComposite in2="hardAlpha" operator="out"/>
<feColorMatrix type="matrix" values="0 0 0 0 0 0 0 0 0 0 0 0 0 0 0 0 0 0 0.25 0"/>
<feBlend mode="normal" in2="BackgroundImageFix" result="effect1_dropShadow_267_91"/>
<feBlend mode="normal" in="SourceGraphic" in2="effect1_dropShadow_267_91" result="shape"/>
</filter>
<filter id="filter3_d_267_91" x="134.284" y="395.546" width="68.4946" height="90.2871" filterUnits="userSpaceOnUse" color-interpolation-filters="sRGB">
<feFlood flood-opacity="0" result="BackgroundImageFix"/>
<feColorMatrix in="SourceAlpha" type="matrix" values="0 0 0 0 0 0 0 0 0 0 0 0 0 0 0 0 0 0 127 0" result="hardAlpha"/>
<feOffset dy="4"/>
<feGaussianBlur stdDeviation="2"/>
<feComposite in2="hardAlpha" operator="out"/>
<feColorMatrix type="matrix" values="0 0 0 0 0 0 0 0 0 0 0 0 0 0 0 0 0 0 0.25 0"/>
<feBlend mode="normal" in2="BackgroundImageFix" result="effect1_dropShadow_267_91"/>
<feBlend mode="normal" in="SourceGraphic" in2="effect1_dropShadow_267_91" result="shape"/>
</filter>
<filter id="filter4_d_267_91" x="137.726" y="643.669" width="60.8591" height="84.0996" filterUnits="userSpaceOnUse" color-interpolation-filters="sRGB">
<feFlood flood-opacity="0" result="BackgroundImageFix"/>
<feColorMatrix in="SourceAlpha" type="matrix" values="0 0 0 0 0 0 0 0 0 0 0 0 0 0 0 0 0 0 127 0" result="hardAlpha"/>
<feOffset dy="4"/>
<feGaussianBlur stdDeviation="2"/>
<feComposite in2="hardAlpha" operator="out"/>
<feColorMatrix type="matrix" values="0 0 0 0 0 0 0 0 0 0 0 0 0 0 0 0 0 0 0.25 0"/>
<feBlend mode="normal" in2="BackgroundImageFix" result="effect1_dropShadow_267_91"/>
<feBlend mode="normal" in="SourceGraphic" in2="effect1_dropShadow_267_91" result="shape"/>
</filter>
<filter id="filter5_d_267_91" x="132.608" y="172.056" width="39.5981" height="83.0732" filterUnits="userSpaceOnUse" color-interpolation-filters="sRGB">
<feFlood flood-opacity="0" result="BackgroundImageFix"/>
<feColorMatrix in="SourceAlpha" type="matrix" values="0 0 0 0 0 0 0 0 0 0 0 0 0 0 0 0 0 0 127 0" result="hardAlpha"/>
<feOffset dy="4"/>
<feGaussianBlur stdDeviation="2"/>
<feComposite in2="hardAlpha" operator="out"/>
<feColorMatrix type="matrix" values="0 0 0 0 0 0 0 0 0 0 0 0 0 0 0 0 0 0 0.25 0"/>
<feBlend mode="normal" in2="BackgroundImageFix" result="effect1_dropShadow_267_91"/>
<feBlend mode="normal" in="SourceGraphic" in2="effect1_dropShadow_267_91" result="shape"/>
</filter>
<filter id="filter6_d_267_91" x="491.67" y="524.313" width="66.3945" height="83.0732" filterUnits="userSpaceOnUse" color-interpolation-filters="sRGB">
<feFlood flood-opacity="0" result="BackgroundImageFix"/>
<feColorMatrix in="SourceAlpha" type="matrix" values="0 0 0 0 0 0 0 0 0 0 0 0 0 0 0 0 0 0 127 0" result="hardAlpha"/>
<feOffset dy="4"/>
<feGaussianBlur stdDeviation="2"/>
<feComposite in2="hardAlpha" operator="out"/>
<feColorMatrix type="matrix" values="0 0 0 0 0 0 0 0 0 0 0 0 0 0 0 0 0 0 0.25 0"/>
<feBlend mode="normal" in2="BackgroundImageFix" result="effect1_dropShadow_267_91"/>
<feBlend mode="normal" in="SourceGraphic" in2="effect1_dropShadow_267_91" result="shape"/>
</filter>
<filter id="filter7_d_267_91" x="489.09" y="521.732" width="71.5557" height="88.2344" filterUnits="userSpaceOnUse" color-interpolation-filters="sRGB">
<feFlood flood-opacity="0" result="BackgroundImageFix"/>
<feColorMatrix in="SourceAlpha" type="matrix" values="0 0 0 0 0 0 0 0 0 0 0 0 0 0 0 0 0 0 127 0" result="hardAlpha"/>
<feOffset dy="4"/>
<feGaussianBlur stdDeviation="2"/>
<feComposite in2="hardAlpha" operator="out"/>
<feColorMatrix type="matrix" values="0 0 0 0 0 0 0 0 0 0 0 0 0 0 0 0 0 0 0.25 0"/>
<feBlend mode="normal" in2="BackgroundImageFix" result="effect1_dropShadow_267_91"/>
<feBlend mode="normal" in="SourceGraphic" in2="effect1_dropShadow_267_91" result="shape"/>
</filter>
<filter id="filter8_d_267_91" x="493.877" y="243.933" width="59.9062" height="84.0996" filterUnits="userSpaceOnUse" color-interpolation-filters="sRGB">
<feFlood flood-opacity="0" result="BackgroundImageFix"/>
<feColorMatrix in="SourceAlpha" type="matrix" values="0 0 0 0 0 0 0 0 0 0 0 0 0 0 0 0 0 0 127 0" result="hardAlpha"/>
<feOffset dy="4"/>
<feGaussianBlur stdDeviation="2"/>
<feComposite in2="hardAlpha" operator="out"/>
<feColorMatrix type="matrix" values="0 0 0 0 0 0 0 0 0 0 0 0 0 0 0 0 0 0 0.25 0"/>
<feBlend mode="normal" in2="BackgroundImageFix" result="effect1_dropShadow_267_91"/>
<feBlend mode="normal" in="SourceGraphic" in2="effect1_dropShadow_267_91" result="shape"/>
</filter>
<linearGradient id="paint0_linear_267_91" x1="467.016" y1="83.2588" x2="467.016" y2="315.256" gradientUnits="userSpaceOnUse">
<stop stop-color="white" stop-opacity="0.58"/>
<stop offset="1" stop-color="#273349"/>
</linearGradient>
<linearGradient id="paint1_linear_267_91" x1="332.499" y1="83.2588" x2="332.499" y2="315.256" gradientUnits="userSpaceOnUse">
<stop stop-color="white" stop-opacity="0.58"/>
<stop offset="1" stop-color="#273349"/>
</linearGradient>
<linearGradient id="paint2_linear_267_91" x1="332.503" y1="250.069" x2="332.503" y2="480.153" gradientUnits="userSpaceOnUse">
<stop stop-color="white" stop-opacity="0.58"/>
<stop offset="1" stop-color="#273349"/>
</linearGradient>
<linearGradient id="paint3_linear_267_91" x1="468.58" y1="560.303" x2="468.58" y2="790.383" gradientUnits="userSpaceOnUse">
<stop stop-color="white" stop-opacity="0.58"/>
<stop offset="1" stop-color="#273349"/>
</linearGradient>
<linearGradient id="paint4_linear_267_91" x1="334.057" y1="560.299" x2="334.057" y2="790.379" gradientUnits="userSpaceOnUse">
<stop stop-color="white" stop-opacity="0.58"/>
<stop offset="1" stop-color="#273349"/>
</linearGradient>
<linearGradient id="paint5_linear_267_91" x1="467.489" y1="250.069" x2="467.489" y2="480.15" gradientUnits="userSpaceOnUse">
<stop stop-color="white" stop-opacity="0.58"/>
<stop offset="1" stop-color="#273349"/>
</linearGradient>
</defs>
</svg>
