<svg width="93" height="32" viewBox="0 0 93 32" fill="none" xmlns="http://www.w3.org/2000/svg">
<g id="IMG">
<g id="Group">
<path id="Vector" d="M50.971 31.1103C44.1917 31.1103 39.2651 26.6781 39.2651 19.7925C39.2651 12.9068 44.0654 8.47461 50.971 8.47461C57.8766 8.47461 62.4664 12.7881 62.4664 19.3176C62.4664 20.0299 62.4243 20.7422 62.2979 21.4545H45.2444C45.5392 24.6995 47.8972 26.5199 50.8447 26.5199C53.3711 26.5199 54.7607 25.3327 55.5186 23.8685H61.8769C60.6136 27.9049 56.7397 31.1103 50.971 31.1103ZM45.2865 17.7347H56.3608C56.2766 14.8458 53.8343 13.0255 50.8026 13.0255C47.9814 13.0255 45.7497 14.7271 45.2865 17.7347Z" fill="#273349"/>
<path id="Vector_2" d="M66.3684 13.3827H63.7156V8.83184H66.3684V7.7238C66.3684 2.34188 69.6106 -0.15121 76.1794 0.00708138V4.67669C73.3161 4.59754 72.3476 5.46814 72.3476 7.92166V8.83184H76.432V13.3827H72.3476V30.7552H66.3684V13.3827Z" fill="#273349"/>
<path id="Vector_3" d="M81.6956 13.3828H78.9165V8.83193H81.6956V4.65039H87.6328V8.83193H92.8541V13.3828H87.6328V23.9884C87.6328 25.4526 88.2644 26.0857 90.1171 26.0857H92.8541V30.7553H89.1486C84.6852 30.7553 81.6956 28.9745 81.6956 23.9488V13.3828Z" fill="#273349"/>
<g id="Group_2">
<path id="Vector_4" d="M20.7028 20.0552L13.8674 26.4792L0 11.3359V25.8856C0 28.5172 2.28784 30.6541 5.10904 30.6541L31.6719 30.7465C34.4931 30.7465 36.7809 28.6095 36.7809 25.9779V18.1227L27.6295 26.4792L20.6958 20.0552H20.7028Z" fill="#0038FF"/>
<path id="Vector_5" d="M32.1912 0.0461684L27.6015 4.45195L20.7169 0.0923368L13.6709 6.48996L6.98984 0.0923368L0 0L13.8604 15.1498L20.7029 8.71923L27.5944 15.0905L36.7809 7.0176V0.0461684H32.1912Z" fill="#0038FF"/>
</g>
</g>
</g>
</svg>
