<?xml version="1.0" encoding="UTF-8"?>
<svg id="Layer_2" data-name="Layer 2" xmlns="http://www.w3.org/2000/svg" xmlns:xlink="http://www.w3.org/1999/xlink" viewBox="0 0 173.63 62.9">
  <defs>
    <linearGradient id="linear-gradient" x1="-10.26" y1="26.96" x2="75.68" y2="26.96" gradientUnits="userSpaceOnUse">
      <stop offset="0" stop-color="#54e3b5"/>
      <stop offset=".09" stop-color="#52dfb2"/>
      <stop offset=".19" stop-color="#4fd3ab"/>
      <stop offset=".28" stop-color="#4ac09f"/>
      <stop offset=".36" stop-color="#43a48e"/>
      <stop offset=".45" stop-color="#398178"/>
      <stop offset=".54" stop-color="#2e575e"/>
      <stop offset=".58" stop-color="#284050"/>
      <stop offset=".61" stop-color="#2b4d58"/>
      <stop offset=".73" stop-color="#3b887c"/>
      <stop offset=".84" stop-color="#47b396"/>
      <stop offset=".92" stop-color="#4ecda7"/>
      <stop offset=".97" stop-color="#51d7ad"/>
    </linearGradient>
  </defs>
  <g id="Layer_2-2" data-name="Layer 2">
    <g>
      <polygon points="39.81 17.39 26.71 30.42 0 .16 .15 23.25 26.71 53.76 39.81 40.73 53.1 53.76 70.62 36.82 70.62 13.48 53.1 30.42 39.81 17.39" style="fill: url(#linear-gradient); stroke-width: 0px;"/>
      <g>
        <path d="m97.86,62.9c-13.01,0-22.46-8.98-22.46-22.93s9.21-22.93,22.46-22.93,22.06,8.74,22.06,21.97c0,1.44-.08,2.89-.32,4.33h-32.72c.57,6.57,5.09,10.26,10.74,10.26,4.85,0,7.51-2.41,8.97-5.37h12.2c-2.42,8.18-9.86,14.67-20.92,14.67Zm-10.91-26.9h21.26c-.16-5.86-4.85-9.55-10.67-9.55-5.42,0-9.7,3.45-10.59,9.55Z" style="fill: #253348; stroke-width: 0px;"/>
        <path d="m125.33,27.2h-5.42v-9.29h4.93v-2.25C124.84,4.75,131.03-.31,143.57.01v9.75c-5.16-.15-6.9,1.51-6.9,6.17v1.97h7.89v9.29h-7.89v35.22h-11.34V27.2Z" style="fill: #253348; stroke-width: 0px;"/>
        <path d="m152.44,27.2h-5.42v-9.29h5.42V7.14h11.34v10.76h9.86v9.29h-9.86v21.64c0,2.99,1.19,4.28,4.69,4.28h5.17v9.29h-7.04c-8.48,0-14.16-3.61-14.16-13.8v-21.42Z" style="fill: #253348; stroke-width: 0px;"/>
      </g>
      <path d="m39.81,40.73l-13.1,13.03L.15,23.25v29.5c0,5.34,4.38,9.67,9.79,9.67h50.9c5.41,0,9.79-4.33,9.79-9.67v-15.93l-17.53,16.94-13.28-13.03Z" style="fill: #5afbc4; stroke-width: 0px;"/>
      <polygon points="61.81 .16 53 8.83 39.77 0 26.25 12.96 13.43 .16 0 .16 26.62 30.51 39.75 17.49 52.98 30.4 70.62 14.03 70.62 .16 61.81 .16" style="fill: #5afbc4; stroke-width: 0px;"/>
    </g>
  </g>
</svg>