<svg width="153" height="56" viewBox="0 0 153 56" fill="none" xmlns="http://www.w3.org/2000/svg">
<g id="IMG" filter="url(#filter0_d_236_85)">
<g id="Group">
<path id="Vector" d="M83.4621 51.1093C72.7604 51.1093 64.9834 44.1128 64.9834 33.2431C64.9834 22.3735 72.561 15.377 83.4621 15.377C94.3632 15.377 101.608 22.1861 101.608 32.4935C101.608 33.618 101.542 34.7424 101.343 35.8668H74.4222C74.8875 40.9893 78.6098 43.8629 83.2627 43.8629C87.2509 43.8629 89.4444 41.9888 90.6409 39.6775H100.678C98.6838 46.0493 92.5685 51.1093 83.4621 51.1093ZM74.4886 29.9947H91.9703C91.8374 25.4345 87.9821 22.5609 83.1962 22.5609C78.7427 22.5609 75.2198 25.2471 74.4886 29.9947Z" fill="#273349"/>
<path id="Vector_2" d="M107.768 23.1258H103.581V15.9418H107.768V14.1927C107.768 5.69686 112.886 1.7613 123.256 2.01118V9.38254C118.736 9.2576 117.207 10.6319 117.207 14.505V15.9418H123.655V23.1258H117.207V50.5497H107.768V23.1258Z" fill="#273349"/>
<path id="Vector_3" d="M131.963 23.1267H127.576V15.9427H131.963V9.3418H141.336V15.9427H149.578V23.1267H141.336V39.8684C141.336 42.1798 142.333 43.1793 145.258 43.1793H149.578V50.5506H143.729C136.683 50.5506 131.963 47.7395 131.963 39.8059V23.1267Z" fill="#273349"/>
<g id="Group_2">
<path id="Vector_4" d="M35.6812 33.6586L24.8909 43.7994L3 19.8945V42.8624C3 47.0166 6.61155 50.3899 11.0651 50.3899L52.9967 50.5357C57.4502 50.5357 61.0617 47.1623 61.0617 43.0081V30.608L46.6155 43.7994L35.6701 33.6586H35.6812Z" fill="#5AFBC4"/>
<path id="Vector_5" d="M53.8165 2.07288L46.5712 9.02778L35.7034 2.14576L24.5807 12.2449L14.0341 2.14576L3 2L24.8798 25.9153L35.6812 15.764L46.5602 25.8216L61.0617 13.0779V2.07288H53.8165Z" fill="#5AFBC4"/>
</g>
</g>
</g>
<defs>
<filter id="filter0_d_236_85" x="0" y="0" width="152.578" height="55.1094" filterUnits="userSpaceOnUse" color-interpolation-filters="sRGB">
<feFlood flood-opacity="0" result="BackgroundImageFix"/>
<feColorMatrix in="SourceAlpha" type="matrix" values="0 0 0 0 0 0 0 0 0 0 0 0 0 0 0 0 0 0 127 0" result="hardAlpha"/>
<feOffset dy="1"/>
<feGaussianBlur stdDeviation="1.5"/>
<feComposite in2="hardAlpha" operator="out"/>
<feColorMatrix type="matrix" values="0 0 0 0 0.116667 0 0 0 0 0.116667 0 0 0 0 0.116667 0 0 0 0.24 0"/>
<feBlend mode="normal" in2="BackgroundImageFix" result="effect1_dropShadow_236_85"/>
<feBlend mode="normal" in="SourceGraphic" in2="effect1_dropShadow_236_85" result="shape"/>
</filter>
</defs>
</svg>
