<svg width="134" height="63" viewBox="0 0 134 63" fill="none" xmlns="http://www.w3.org/2000/svg">
<g id="Logo_finance tag_blue">
<g id="IMG">
<g id="Group">
<path id="Vector" d="M73.0473 47.4409C63.3318 47.4409 56.2715 40.6823 56.2715 30.1824C56.2715 19.6824 63.1508 12.9238 73.0473 12.9238C82.9438 12.9238 89.5214 19.5014 89.5214 29.4582C89.5214 30.5445 89.461 31.6307 89.28 32.7169H64.8404C65.2628 37.6651 68.6421 40.441 72.8662 40.441C76.4869 40.441 78.4783 38.6306 79.5645 36.3979H88.6765C86.8662 42.553 81.3145 47.4409 73.0473 47.4409ZM64.9008 27.0445H80.7714C80.6507 22.6393 77.1507 19.8635 72.8059 19.8635C68.7628 19.8635 65.5646 22.4583 64.9008 27.0445Z" fill="#273349"/>
<path id="Vector_2" d="M95.1132 20.4073H91.3115V13.4676H95.1132V11.778C95.1132 3.57113 99.7598 -0.23058 109.174 0.0107984V7.13146C105.07 7.01077 103.682 8.33835 103.682 12.0797V13.4676H109.536V20.4073H103.682V46.8985H95.1132V20.4073Z" fill="#273349"/>
<path id="Vector_3" d="M117.078 20.4069H113.095V13.4672H117.078V7.09082H125.587V13.4672H133.07V20.4069H125.587V36.5792C125.587 38.812 126.492 39.7775 129.147 39.7775H133.07V46.8981H127.759C121.363 46.8981 117.078 44.1826 117.078 36.5189V20.4069Z" fill="#273349"/>
<g id="Group_2">
<path id="Vector_4" d="M29.6694 30.5879L19.8735 40.3839L0 17.292V39.4787C0 43.4916 3.27872 46.7502 7.32181 46.7502L45.3892 46.891C49.4323 46.891 52.711 43.6324 52.711 39.6195V27.6411L39.5961 40.3839L29.6594 30.5879H29.6694Z" fill="#0038FF"/>
<path id="Vector_5" d="M46.1334 0.0723552L39.5559 6.79072L29.6895 0.142757L19.5919 9.89847L10.0172 0.142757L0 0.00195312L19.8634 23.1039L29.6694 13.2979L39.5458 23.0134L52.711 10.7031V0.0723552H46.1334Z" fill="#0038FF"/>
</g>
</g>
</g>
<g id="FINANCE">
<path d="M0 62.8427V51.3042H6.94867V52.2507H1.09654V56.5946H6.40333V57.5411H1.09654V62.8427H0Z" fill="#273349"/>
<path d="M21.5051 51.3042V62.8427H20.4086V51.3042H21.5051Z" fill="#273349"/>
<path d="M44.784 51.3042V62.8427H43.7168L36.6215 53.1804H36.5277V62.8427H35.4312V51.3042H36.4925L43.6112 60.9778H43.705V51.3042H44.784Z" fill="#273349"/>
<path d="M58.7277 62.8427H57.5783L61.9469 51.3042H63.1197L67.4883 62.8427H66.3389L62.5743 52.6733H62.4922L58.7277 62.8427ZM59.5545 58.42H65.5121V59.3665H59.5545V58.42Z" fill="#273349"/>
<path d="M89.6325 51.3042V62.8427H88.5653L81.47 53.1804H81.3762V62.8427H80.2797V51.3042H81.341L88.4597 60.9778H88.5536V51.3042H89.6325Z" fill="#273349"/>
<path d="M112.964 54.91H111.862C111.78 54.5156 111.631 54.1513 111.416 53.817C111.205 53.479 110.939 53.1841 110.619 52.9325C110.298 52.6808 109.935 52.4855 109.528 52.3465C109.121 52.2076 108.682 52.1381 108.209 52.1381C107.45 52.1381 106.758 52.3277 106.133 52.7071C105.511 53.0865 105.013 53.6442 104.638 54.3804C104.266 55.1128 104.08 56.0105 104.08 57.0734C104.08 58.1439 104.266 59.0453 104.638 59.7778C105.013 60.5102 105.511 61.0661 106.133 61.4454C106.758 61.821 107.45 62.0088 108.209 62.0088C108.682 62.0088 109.121 61.9393 109.528 61.8004C109.935 61.6614 110.298 61.468 110.619 61.2201C110.939 60.9684 111.205 60.6736 111.416 60.3355C111.631 59.9975 111.78 59.6313 111.862 59.2369H112.964C112.866 59.7665 112.683 60.2604 112.413 60.7186C112.147 61.1731 111.807 61.5712 111.393 61.913C110.982 62.2548 110.509 62.5215 109.974 62.7131C109.438 62.9046 108.85 63.0004 108.209 63.0004C107.2 63.0004 106.305 62.7581 105.523 62.2736C104.741 61.7853 104.127 61.098 103.682 60.2116C103.24 59.3252 103.019 58.2791 103.019 57.0734C103.019 55.8678 103.24 54.8217 103.682 53.9353C104.127 53.0489 104.741 52.3634 105.523 51.8789C106.305 51.3906 107.2 51.1465 108.209 51.1465C108.85 51.1465 109.438 51.2423 109.974 51.4338C110.509 51.6216 110.982 51.8883 111.393 52.2338C111.807 52.5756 112.147 52.9738 112.413 53.4283C112.683 53.8827 112.866 54.3766 112.964 54.91Z" fill="#273349"/>
<path d="M126.273 62.8427V51.3042H133.239V52.2507H127.37V56.5946H132.87V57.5411H127.37V61.8961H133.357V62.8427H126.273Z" fill="#273349"/>
</g>
</g>
</svg>
