<svg width="106" height="49" viewBox="0 0 106 49" fill="none" xmlns="http://www.w3.org/2000/svg">
<g id="Logo_finance tag_blue">
<g id="IMG">
<g id="Group" filter="url(#filter0_d_339_735)">
<path id="Vector" d="M57.7759 37.3934C50.4906 37.3934 45.1963 32.3513 45.1963 24.518C45.1963 16.6847 50.3549 11.6426 57.7759 11.6426C65.197 11.6426 70.1293 16.5496 70.1293 23.9778C70.1293 24.7881 70.0841 25.5985 69.9483 26.4088H51.6219C51.9386 30.1004 54.4727 32.1712 57.6402 32.1712C60.3552 32.1712 61.8485 30.8207 62.663 29.155H69.4958C68.1383 33.7469 63.9753 37.3934 57.7759 37.3934ZM51.6671 22.177H63.568C63.4775 18.8906 60.853 16.8198 57.5949 16.8198C54.5632 16.8198 52.1649 18.7556 51.6671 22.177Z" fill="#273349"/>
<path id="Vector_2" d="M74.3225 17.2245H71.4717V12.0473H74.3225V10.7868C74.3225 4.66418 77.8068 1.82798 84.8658 2.00806V7.3203C81.7888 7.23026 80.748 8.22067 80.748 11.0119V12.0473H85.1374V17.2245H80.748V36.9878H74.3225V17.2245Z" fill="#273349"/>
<path id="Vector_3" d="M90.7937 17.2252H87.8071V12.048H90.7937V7.29102H97.174V12.048H102.785V17.2252H97.174V29.2903C97.174 30.956 97.8528 31.6763 99.8438 31.6763H102.785V36.9885H98.803C94.0065 36.9885 90.7937 34.9627 90.7937 29.2453V17.2252Z" fill="#273349"/>
<g id="Group_2">
<path id="Vector_4" d="M25.2482 24.8176L17.9025 32.1257L3 14.8984V31.4504C3 34.4442 5.45861 36.8752 8.4904 36.8752L37.036 36.9802C40.0677 36.9802 42.5264 34.5492 42.5264 31.5555V22.6192L32.6919 32.1257L25.2406 24.8176H25.2482Z" fill="#5AFBC4"/>
<path id="Vector_5" d="M37.594 2.05252L32.6617 7.06464L25.2633 2.10504L17.6913 9.38311L10.5116 2.10504L3 2L17.895 19.2348L25.2482 11.9192L32.6542 19.1672L42.5264 9.98337V2.05252H37.594Z" fill="#5AFBC4"/>
</g>
</g>
</g>
<g id="FINANCE">
<path d="M3 48.882V40.2739H8.21059V40.9801H3.82226V44.2207H7.80166V44.9268H3.82226V48.882H3Z" fill="#273349"/>
<path d="M19.126 40.2739V48.882H18.3037V40.2739H19.126Z" fill="#273349"/>
<path d="M36.5821 40.2739V48.882H35.7819L30.4613 41.6736H30.391V48.882H29.5687V40.2739H30.3646L35.7027 47.4907H35.7731V40.2739H36.5821Z" fill="#273349"/>
<path d="M47.0381 48.882H46.1762L49.4521 40.2739H50.3315L53.6074 48.882H52.7455L49.9226 41.2953H49.861L47.0381 48.882ZM47.658 45.5825H52.1255V46.2886H47.658V45.5825Z" fill="#273349"/>
<path d="M70.2126 40.2739V48.882H69.4124L64.0919 41.6736H64.0215V48.882H63.1992V40.2739H63.9951L69.3332 47.4907H69.4036V40.2739H70.2126Z" fill="#273349"/>
<path d="M87.7084 42.9639H86.8817C86.8201 42.6697 86.7087 42.3979 86.5475 42.1485C86.3892 41.8963 86.1899 41.6764 85.9495 41.4886C85.7091 41.3009 85.4365 41.1552 85.1316 41.0515C84.8268 40.9478 84.497 40.896 84.1423 40.896C83.5736 40.896 83.0547 41.0375 82.5857 41.3205C82.1196 41.6035 81.7459 42.0196 81.4644 42.5689C81.186 43.1153 81.0467 43.785 81.0467 44.578C81.0467 45.3765 81.186 46.049 81.4644 46.5955C81.7459 47.1419 82.1196 47.5566 82.5857 47.8396C83.0547 48.1198 83.5736 48.2599 84.1423 48.2599C84.497 48.2599 84.8268 48.2081 85.1316 48.1044C85.4365 48.0007 85.7091 47.8564 85.9495 47.6715C86.1899 47.4837 86.3892 47.2638 86.5475 47.0116C86.7087 46.7594 86.8201 46.4862 86.8817 46.192H87.7084C87.6351 46.5871 87.4973 46.9555 87.295 47.2974C87.0957 47.6364 86.8407 47.9335 86.5299 48.1884C86.2221 48.4434 85.8674 48.6424 85.4658 48.7853C85.0642 48.9282 84.623 48.9997 84.1423 48.9997C83.386 48.9997 82.7147 48.8189 82.1284 48.4574C81.5421 48.0932 81.0819 47.5804 80.7477 46.9191C80.4165 46.2578 80.2508 45.4774 80.2508 44.578C80.2508 43.6785 80.4165 42.8981 80.7477 42.2368C81.0819 41.5755 81.5421 41.0641 82.1284 40.7027C82.7147 40.3384 83.386 40.1562 84.1423 40.1562C84.623 40.1562 85.0642 40.2277 85.4658 40.3706C85.8674 40.5107 86.2221 40.7097 86.5299 40.9675C86.8407 41.2224 87.0957 41.5195 87.295 41.8585C87.4973 42.1976 87.6351 42.566 87.7084 42.9639Z" fill="#273349"/>
<path d="M97.6883 48.882V40.2739H102.912V40.9801H98.5105V44.2207H102.635V44.9268H98.5105V48.1758H103V48.882H97.6883Z" fill="#273349"/>
</g>
</g>
<defs>
<filter id="filter0_d_339_735" x="0" y="0" width="105.785" height="41.3926" filterUnits="userSpaceOnUse" color-interpolation-filters="sRGB">
<feFlood flood-opacity="0" result="BackgroundImageFix"/>
<feColorMatrix in="SourceAlpha" type="matrix" values="0 0 0 0 0 0 0 0 0 0 0 0 0 0 0 0 0 0 127 0" result="hardAlpha"/>
<feOffset dy="1"/>
<feGaussianBlur stdDeviation="1.5"/>
<feComposite in2="hardAlpha" operator="out"/>
<feColorMatrix type="matrix" values="0 0 0 0 0.116667 0 0 0 0 0.116667 0 0 0 0 0.116667 0 0 0 0.24 0"/>
<feBlend mode="normal" in2="BackgroundImageFix" result="effect1_dropShadow_339_735"/>
<feBlend mode="normal" in="SourceGraphic" in2="effect1_dropShadow_339_735" result="shape"/>
</filter>
</defs>
</svg>
