<svg width="147" height="54" viewBox="0 0 147 54" fill="none" xmlns="http://www.w3.org/2000/svg">
<g id="IMG" filter="url(#filter0_d_339_757)">
<g id="Group">
<path id="Vector" d="M80.3911 49.1775C70.11 49.1775 62.6387 42.456 62.6387 32.0136C62.6387 21.5712 69.9184 14.8496 80.3911 14.8496C90.8637 14.8496 97.8242 21.3911 97.8242 31.2934C97.8242 32.3736 97.7604 33.4539 97.5688 34.5341H71.7064C72.1535 39.4553 75.7295 42.2159 80.1995 42.2159C84.031 42.2159 86.1383 40.4155 87.2877 38.195H96.9302C95.0145 44.3164 89.1396 49.1775 80.3911 49.1775ZM71.7703 28.8928H88.5649C88.4371 24.5118 84.7334 21.7512 80.1357 21.7512C75.8572 21.7512 72.4727 24.3318 71.7703 28.8928Z" fill="#273349"/>
<path id="Vector_2" d="M103.742 22.2954H99.7192V15.3938H103.742V13.7134C103.742 5.55155 108.659 1.77068 118.621 2.01074V9.09237C114.279 8.97234 112.81 10.2926 112.81 14.0135V15.3938H119.004V22.2954H112.81V48.6415H103.742V22.2954Z" fill="#273349"/>
<path id="Vector_3" d="M126.986 22.2977H122.771V15.3961H126.986V9.05469H135.99V15.3961H143.908V22.2977H135.99V38.3814C135.99 40.602 136.948 41.5622 139.758 41.5622H143.908V48.6438H138.289C131.52 48.6438 126.986 45.9432 126.986 38.3214V22.2977Z" fill="#273349"/>
<g id="Group_2">
<path id="Vector_4" d="M34.4885 32.4144L24.1222 42.1567L3.0918 19.1914V41.2565C3.0918 45.2474 6.56139 48.4881 10.8399 48.4881L51.1234 48.6282C55.4018 48.6282 58.8714 45.3874 58.8714 41.3965V29.4838L44.993 42.1567L34.4778 32.4144H34.4885Z" fill="#5AFBC4"/>
<path id="Vector_5" d="M51.9109 2.07002L44.9505 8.75155L34.5097 2.14003L23.8242 11.8423L13.6922 2.14003L3.0918 2L24.1116 24.9753L34.4885 15.223L44.9398 24.8853L58.8714 12.6425V2.07002H51.9109Z" fill="#5AFBC4"/>
</g>
</g>
</g>
<defs>
<filter id="filter0_d_339_757" x="0.0917969" y="0" width="146.816" height="53.1777" filterUnits="userSpaceOnUse" color-interpolation-filters="sRGB">
<feFlood flood-opacity="0" result="BackgroundImageFix"/>
<feColorMatrix in="SourceAlpha" type="matrix" values="0 0 0 0 0 0 0 0 0 0 0 0 0 0 0 0 0 0 127 0" result="hardAlpha"/>
<feOffset dy="1"/>
<feGaussianBlur stdDeviation="1.5"/>
<feComposite in2="hardAlpha" operator="out"/>
<feColorMatrix type="matrix" values="0 0 0 0 0.116667 0 0 0 0 0.116667 0 0 0 0 0.116667 0 0 0 0.24 0"/>
<feBlend mode="normal" in2="BackgroundImageFix" result="effect1_dropShadow_339_757"/>
<feBlend mode="normal" in="SourceGraphic" in2="effect1_dropShadow_339_757" result="shape"/>
</filter>
</defs>
</svg>
