<svg width="1123" height="475" viewBox="0 0 1123 475" fill="none" xmlns="http://www.w3.org/2000/svg">
<g filter="url(#filter0_d_363_1274)">
<rect x="296" y="126" width="575" height="231" rx="10" fill="#FBFCFF"/>
</g>
<path d="M617.404 185.14L616.009 193.06H603.499L602.734 197.47H611.734L610.384 204.985H601.384L599.269 217H589.279L594.904 185.14H617.404Z" fill="#2007CD"/>
<path d="M636.448 212.185H625.828L623.398 217H612.913L630.193 185.14H641.713L647.698 217H637.168L636.448 212.185ZM635.368 204.67L634.063 195.805L629.608 204.67H635.368Z" fill="#2007CD"/>
<path d="M663.648 217.315C659.748 217.315 656.628 216.535 654.288 214.975C651.978 213.415 650.823 211.135 650.823 208.135C650.823 207.835 650.853 207.385 650.913 206.785H661.533C661.443 207.715 661.578 208.405 661.938 208.855C662.328 209.305 662.958 209.53 663.828 209.53C664.368 209.53 664.818 209.395 665.178 209.125C665.538 208.855 665.718 208.465 665.718 207.955C665.718 207.235 665.358 206.635 664.638 206.155C663.948 205.675 662.823 205.105 661.263 204.445C659.553 203.725 658.143 203.035 657.033 202.375C655.953 201.715 655.008 200.815 654.198 199.675C653.388 198.535 652.983 197.11 652.983 195.4C652.983 193.15 653.538 191.215 654.648 189.595C655.788 187.945 657.363 186.7 659.373 185.86C661.383 185.02 663.678 184.6 666.258 184.6C668.568 184.6 670.623 184.96 672.423 185.68C674.253 186.4 675.678 187.45 676.698 188.83C677.748 190.18 678.273 191.785 678.273 193.645C678.273 193.885 678.243 194.305 678.183 194.905H667.428C667.488 194.545 667.518 194.305 667.518 194.185C667.518 193.615 667.353 193.18 667.023 192.88C666.693 192.55 666.243 192.385 665.673 192.385C665.163 192.385 664.743 192.535 664.413 192.835C664.083 193.135 663.918 193.525 663.918 194.005C663.918 194.665 664.263 195.25 664.953 195.76C665.643 196.24 666.738 196.84 668.238 197.56C669.948 198.37 671.358 199.135 672.468 199.855C673.608 200.575 674.583 201.535 675.393 202.735C676.203 203.905 676.608 205.345 676.608 207.055C676.608 209.005 676.083 210.76 675.033 212.32C674.013 213.88 672.528 215.11 670.578 216.01C668.628 216.88 666.318 217.315 663.648 217.315Z" fill="#2007CD"/>
<path d="M709.485 185.14L708.09 193.06H699.63L695.4 217H685.41L689.64 193.06H681.27L682.665 185.14H709.485Z" fill="#2007CD"/>
<path d="M720.789 193.06L720.114 197.02H730.014L728.664 204.535H718.764L717.954 209.035H729.204L727.809 217H706.569L712.194 185.14H733.434L732.039 193.06H720.789Z" fill="#2007CD"/>
<path d="M752.049 185.14C755.469 185.14 758.064 185.905 759.834 187.435C761.604 188.965 762.489 191.005 762.489 193.555C762.489 194.305 762.429 194.98 762.309 195.58C761.919 197.74 760.989 199.645 759.519 201.295C758.049 202.915 756.144 204.085 753.804 204.805L758.574 217H747.594L743.589 205.57L741.564 217H731.574L737.199 185.14H752.049ZM744.759 198.91H748.719C749.679 198.91 750.429 198.7 750.969 198.28C751.539 197.83 751.914 197.14 752.094 196.21C752.124 196.06 752.139 195.865 752.139 195.625C752.139 194.965 751.929 194.455 751.509 194.095C751.089 193.705 750.474 193.51 749.664 193.51H745.704L744.759 198.91Z" fill="#2007CD"/>
<path d="M696.849 294.314C693.189 294.314 690.234 293.564 687.984 292.064C685.764 290.534 684.654 288.314 684.654 285.404C684.654 285.164 684.684 284.744 684.744 284.144H694.059C693.969 285.164 694.179 285.959 694.689 286.529C695.199 287.099 695.979 287.384 697.029 287.384C697.899 287.384 698.589 287.189 699.099 286.799C699.639 286.409 699.909 285.854 699.909 285.134C699.909 284.294 699.519 283.604 698.739 283.064C697.989 282.524 696.759 281.894 695.049 281.174C693.339 280.454 691.929 279.779 690.819 279.149C689.709 278.489 688.749 277.604 687.939 276.494C687.129 275.354 686.724 273.944 686.724 272.264C686.724 270.074 687.264 268.199 688.344 266.639C689.424 265.049 690.924 263.849 692.844 263.039C694.794 262.199 697.014 261.779 699.504 261.779C701.754 261.779 703.749 262.139 705.489 262.859C707.229 263.549 708.579 264.554 709.539 265.874C710.529 267.194 711.024 268.754 711.024 270.554C711.024 271.034 711.009 271.394 710.979 271.634H701.484C701.514 271.484 701.529 271.274 701.529 271.004C701.529 270.284 701.304 269.729 700.854 269.339C700.404 268.919 699.789 268.709 699.009 268.709C698.199 268.709 697.539 268.919 697.029 269.339C696.549 269.729 696.309 270.284 696.309 271.004C696.309 271.784 696.684 272.459 697.434 273.029C698.214 273.569 699.414 274.214 701.034 274.964C702.774 275.774 704.199 276.539 705.309 277.259C706.449 277.949 707.424 278.879 708.234 280.049C709.044 281.219 709.449 282.659 709.449 284.369C709.449 286.259 708.939 287.969 707.919 289.499C706.899 290.999 705.444 292.184 703.554 293.054C701.664 293.894 699.429 294.314 696.849 294.314Z" fill="#5AFBC4"/>
<path d="M733.157 288.824H721.907L719.297 293.999H710.027L727.172 262.274H737.342L743.282 293.999H733.967L733.157 288.824ZM732.122 282.119L730.547 271.814L725.327 282.119H732.122Z" fill="#5AFBC4"/>
<path d="M773.247 262.274L772.032 269.294H759.342L758.352 274.874H767.667L766.497 281.579H757.182L754.977 293.999H746.112L751.737 262.274H773.247Z" fill="#5AFBC4"/>
<path d="M784.566 269.249L783.666 274.514H793.791L792.576 281.219H782.451L781.416 286.979H792.891L791.676 293.999H771.336L776.961 262.274H797.256L796.041 269.249H784.566Z" fill="#5AFBC4"/>
<path d="M815.52 262.274C818.85 262.274 821.385 263.024 823.125 264.524C824.865 265.994 825.735 267.959 825.735 270.419C825.735 271.169 825.675 271.844 825.555 272.444C825.195 274.604 824.28 276.509 822.81 278.159C821.34 279.779 819.39 280.934 816.96 281.624L821.91 293.999H812.1L807.87 282.299H806.925L804.855 293.999H795.99L801.615 262.274H815.52ZM808.005 276.269H812.37C814.71 276.269 816.09 275.159 816.51 272.939C816.57 272.579 816.6 272.324 816.6 272.174C816.6 271.364 816.33 270.734 815.79 270.284C815.28 269.834 814.515 269.609 813.495 269.609H809.13L808.005 276.269Z" fill="#5AFBC4"/>
<path d="M625.641 256.314C621.981 256.314 619.026 255.564 616.776 254.064C614.556 252.534 613.446 250.314 613.446 247.404C613.446 247.164 613.476 246.744 613.536 246.144H622.851C622.761 247.164 622.971 247.959 623.481 248.529C623.991 249.099 624.771 249.384 625.821 249.384C626.691 249.384 627.381 249.189 627.891 248.799C628.431 248.409 628.701 247.854 628.701 247.134C628.701 246.294 628.311 245.604 627.531 245.064C626.781 244.524 625.551 243.894 623.841 243.174C622.131 242.454 620.721 241.779 619.611 241.149C618.501 240.489 617.541 239.604 616.731 238.494C615.921 237.354 615.516 235.944 615.516 234.264C615.516 232.074 616.056 230.199 617.136 228.639C618.216 227.049 619.716 225.849 621.636 225.039C623.586 224.199 625.806 223.779 628.296 223.779C630.546 223.779 632.541 224.139 634.281 224.859C636.021 225.549 637.371 226.554 638.331 227.874C639.321 229.194 639.816 230.754 639.816 232.554C639.816 233.034 639.801 233.394 639.771 233.634H630.276C630.306 233.484 630.321 233.274 630.321 233.004C630.321 232.284 630.096 231.729 629.646 231.339C629.196 230.919 628.581 230.709 627.801 230.709C626.991 230.709 626.331 230.919 625.821 231.339C625.341 231.729 625.101 232.284 625.101 233.004C625.101 233.784 625.476 234.459 626.226 235.029C627.006 235.569 628.206 236.214 629.826 236.964C631.566 237.774 632.991 238.539 634.101 239.259C635.241 239.949 636.216 240.879 637.026 242.049C637.836 243.219 638.241 244.659 638.241 246.369C638.241 248.259 637.731 249.969 636.711 251.499C635.691 252.999 634.236 254.184 632.346 255.054C630.456 255.894 628.221 256.314 625.641 256.314Z" fill="#FF00F2"/>
<path d="M655.378 224.274L649.798 255.999H640.933L646.558 224.274H655.378Z" fill="#FF00F2"/>
<path d="M697.436 224.274L691.811 255.999H683.036L686.141 238.449L677.006 255.999H669.626L666.746 238.359L663.641 255.999H654.776L660.401 224.274H671.066L675.431 244.839L686.816 224.274H697.436Z" fill="#FF00F2"/>
<path d="M725.632 234.849C725.302 236.769 724.552 238.524 723.382 240.114C722.242 241.674 720.697 242.934 718.747 243.894C716.797 244.824 714.532 245.289 711.952 245.289H707.587L705.697 255.999H696.832L702.457 224.274H715.642C718.972 224.274 721.507 225.039 723.247 226.569C724.987 228.069 725.857 230.094 725.857 232.644C725.857 233.274 725.782 234.009 725.632 234.849ZM712.357 238.314C714.847 238.314 716.287 237.159 716.677 234.849C716.737 234.429 716.767 234.129 716.767 233.949C716.767 233.139 716.497 232.509 715.957 232.059C715.447 231.579 714.652 231.339 713.572 231.339H710.062L708.847 238.314H712.357Z" fill="#FF00F2"/>
<path d="M735.52 249.294H745.375L744.16 255.999H725.44L731.065 224.274H739.885L735.52 249.294Z" fill="#FF00F2"/>
<path d="M760.775 231.249L759.875 236.514H770L768.785 243.219H758.66L757.625 248.979H769.1L767.885 255.999H747.545L753.17 224.274H773.465L772.25 231.249H760.775Z" fill="#FF00F2"/>
<path d="M791.728 224.274C795.058 224.274 797.593 225.024 799.333 226.524C801.073 227.994 801.943 229.959 801.943 232.419C801.943 233.169 801.883 233.844 801.763 234.444C801.403 236.604 800.488 238.509 799.018 240.159C797.548 241.779 795.598 242.934 793.168 243.624L798.118 255.999H788.308L784.078 244.299H783.133L781.063 255.999H772.198L777.823 224.274H791.728ZM784.213 238.269H788.578C790.918 238.269 792.298 237.159 792.718 234.939C792.778 234.579 792.808 234.324 792.808 234.174C792.808 233.364 792.538 232.734 791.998 232.284C791.488 231.834 790.723 231.609 789.703 231.609H785.338L784.213 238.269Z" fill="#FF00F2"/>
<g filter="url(#filter1_d_363_1274)">
<path d="M340 176C340 173.239 342.239 171 345 171H467C469.761 171 472 173.239 472 176V298C472 300.761 469.761 303 467 303H345C342.239 303 340 300.761 340 298V176Z" fill="#5AFBC4"/>
</g>
<g filter="url(#filter2_d_363_1274)">
<path d="M380.625 261.182H360V203H380.795C386.648 203 391.686 204.165 395.909 206.494C400.133 208.805 403.381 212.129 405.653 216.466C407.945 220.803 409.091 225.992 409.091 232.034C409.091 238.095 407.945 243.303 405.653 247.659C403.381 252.015 400.114 255.358 395.852 257.688C391.61 260.017 386.534 261.182 380.625 261.182ZM372.301 250.642H380.114C383.75 250.642 386.809 249.998 389.29 248.71C391.79 247.403 393.665 245.386 394.915 242.659C396.184 239.913 396.818 236.371 396.818 232.034C396.818 227.735 396.184 224.222 394.915 221.494C393.665 218.767 391.799 216.759 389.318 215.472C386.837 214.184 383.778 213.54 380.142 213.54H372.301V250.642Z" fill="white"/>
<path d="M437.862 262.034C433.374 262.034 429.51 261.125 426.271 259.307C423.052 257.47 420.571 254.875 418.828 251.523C417.086 248.152 416.214 244.165 416.214 239.562C416.214 235.074 417.086 231.134 418.828 227.744C420.571 224.354 423.023 221.712 426.186 219.818C429.368 217.924 433.099 216.977 437.379 216.977C440.258 216.977 442.938 217.441 445.419 218.369C447.919 219.278 450.097 220.652 451.953 222.489C453.828 224.326 455.286 226.636 456.328 229.42C457.37 232.186 457.891 235.424 457.891 239.136V242.46H421.044V234.96H446.499C446.499 233.218 446.12 231.674 445.362 230.33C444.605 228.985 443.554 227.934 442.209 227.176C440.883 226.4 439.339 226.011 437.578 226.011C435.741 226.011 434.112 226.438 432.692 227.29C431.29 228.123 430.192 229.25 429.396 230.67C428.601 232.072 428.194 233.634 428.175 235.358V242.489C428.175 244.648 428.572 246.513 429.368 248.085C430.182 249.657 431.328 250.869 432.805 251.722C434.283 252.574 436.035 253 438.061 253C439.406 253 440.637 252.811 441.754 252.432C442.872 252.053 443.828 251.485 444.624 250.727C445.419 249.97 446.025 249.042 446.442 247.943L457.635 248.682C457.067 251.371 455.902 253.72 454.141 255.727C452.398 257.716 450.144 259.269 447.379 260.386C444.633 261.485 441.461 262.034 437.862 262.034Z" fill="white"/>
</g>
<path d="M483.392 267V208.818H519.472V216.375H492.17V234.102H516.886V241.63H492.17V267H483.392Z" fill="#273349"/>
<path d="M529.585 267V223.363H538.08V267H529.585ZM533.875 216.63C532.398 216.63 531.129 216.138 530.068 215.153C529.027 214.149 528.506 212.956 528.506 211.574C528.506 210.172 529.027 208.979 530.068 207.994C531.129 206.99 532.398 206.488 533.875 206.488C535.352 206.488 536.612 206.99 537.653 207.994C538.714 208.979 539.244 210.172 539.244 211.574C539.244 212.956 538.714 214.149 537.653 215.153C536.612 216.138 535.352 216.63 533.875 216.63Z" fill="#273349"/>
<path d="M198.024 419.719L170.69 401.061L108.826 409.923L57.6563 417.256L63.4379 425.053L132.702 414.765L158.935 436.609L198.024 419.719Z" fill="url(#paint0_linear_363_1274)" fill-opacity="0.19"/>
<path d="M250.615 396.995L221.835 382.609L170.15 389.488L127.894 395.114L135.517 401.031L192.451 393.209L221.249 409.688L250.624 396.995L250.615 396.995Z" fill="url(#paint1_linear_363_1274)" fill-opacity="0.19"/>
<path d="M179.896 395.1L160.805 382.622L46.661 397.053L-5.58681e-05 409.762L126.637 393.228L129.098 395.114L136.764 401.03L179.888 395.1L179.896 395.1Z" fill="url(#paint2_linear_363_1274)" fill-opacity="0.19"/>
<path d="M456.065 396.943L407.659 382.573L365.438 389.447L330.927 395.068L346.629 400.979L392.799 393.168L444.07 409.625L456.057 396.949L456.065 396.943Z" fill="url(#paint3_linear_363_1274)" fill-opacity="0.19"/>
<path d="M434.578 419.659L381.973 400.884L332.232 409.798L291.069 417.178L307.382 425.027L362.63 414.664L418.479 436.676L434.578 419.653L434.578 419.659Z" fill="url(#paint4_linear_363_1274)" fill-opacity="0.19"/>
<path d="M348.658 417.157L310.912 400.901L197.973 419.741L158.514 436.792L285.194 414.692L290.365 417.176L306.652 425.025L348.658 417.157Z" fill="url(#paint5_linear_363_1274)" fill-opacity="0.19"/>
<path d="M405.219 450.691L348.037 425.069L287.661 437.116L236.844 447.261L253.243 458.22L321.776 443.793L382.416 474.808L405.227 450.691L405.219 450.691Z" fill="url(#paint6_linear_363_1274)" fill-opacity="0.19"/>
<path d="M304.618 447.23L265.798 425.099L126.03 450.825L70.1193 474.987L230.881 443.828L236.018 447.255L252.365 458.214L304.61 447.225L304.618 447.23Z" fill="#2007CD"/>
<path d="M661.159 396.885L593.187 382.531L560.405 389.394L533.62 395.009L557.376 400.909L592.817 393.11L666.493 409.545L661.159 396.885Z" fill="url(#paint7_linear_363_1274)" fill-opacity="0.19"/>
<path d="M583.644 394.996L530.687 382.546L456.062 396.944L444.076 409.621L525.446 393.13L533.026 395.011L556.756 400.911L583.653 394.996L583.644 394.996Z" fill="#FF00F2"/>
<path d="M670.779 419.721L592.534 400.939L555.011 409.86L523.958 417.246L550.992 425.102L592.043 414.738L677.946 436.757L670.771 419.727L670.779 419.721Z" fill="url(#paint8_linear_363_1274)" fill-opacity="0.19"/>
<path d="M581.492 417.221L521.548 400.959L434.43 419.806L418.296 436.858L514.707 414.751L523.268 417.235L550.276 425.091L581.501 417.216L581.492 417.221Z" fill="url(#paint9_linear_363_1274)" fill-opacity="0.19"/>
<path d="M683.769 450.557L591.689 424.973L547.858 437.004L510.972 447.133L542.299 458.07L591.025 443.67L693.903 474.631L683.76 450.563L683.769 450.557Z" fill="url(#paint10_linear_363_1274)" fill-opacity="0.19"/>
<path d="M578.602 447.096L509.624 425.003L405.22 450.691L382.409 474.809L500.339 443.711L510.148 447.133L541.432 458.07L578.594 447.102L578.602 447.096Z" fill="url(#paint11_linear_363_1274)" fill-opacity="0.19"/>
<path d="M291.219 379.451L262.043 368.1L217.938 373.56L182.239 377.979L190.86 382.585L238.794 376.487L268.529 389.252L291.21 379.451L291.219 379.451Z" fill="url(#paint12_linear_363_1274)" fill-opacity="0.19"/>
<path d="M228.226 377.968L207.551 368.107L111.158 379.485L75.1316 389.298L180.533 376.5L183.321 377.977L191.976 382.583L228.235 377.968L228.226 377.968Z" fill="url(#paint13_linear_363_1274)" fill-opacity="0.19"/>
<path d="M228.226 377.968L207.551 368.107L111.158 379.485L75.1316 389.298L180.533 376.5L183.321 377.977L191.976 382.583L228.235 377.968L228.226 377.968Z" fill="url(#paint14_linear_363_1274)" fill-opacity="0.19"/>
<path d="M472.634 379.414L427.979 368.074L391.386 373.528L361.77 377.942L376.672 382.542L416.217 376.45L463.359 389.199L472.617 379.409L472.634 379.414Z" fill="url(#paint15_linear_363_1274)" fill-opacity="0.19"/>
<path d="M406.092 377.933L372.081 368.082L291.218 379.45L268.537 389.251L356.464 376.464L361.256 377.942L376.141 382.542L406.101 377.933L406.092 377.933Z" fill="url(#paint16_linear_363_1274)" fill-opacity="0.19"/>
<path d="M406.092 377.933L372.081 368.082L291.218 379.45L268.537 389.251L356.464 376.464L361.256 377.942L376.141 382.542L406.101 377.933L406.092 377.933Z" fill="url(#paint17_linear_363_1274)" fill-opacity="0.19"/>
<path d="M378.522 395.399L344.511 385.549L263.648 396.916L240.967 406.718L328.894 393.93L333.686 395.408L348.571 400.009L378.531 395.399L378.522 395.399Z" fill="url(#paint18_linear_363_1274)" fill-opacity="0.19"/>
<path d="M653.789 379.379L593.707 368.05L564.607 373.499L541.058 377.907L562.232 382.508L593.414 376.427L657.919 389.165L653.798 379.385L653.789 379.379Z" fill="url(#paint19_linear_363_1274)" fill-opacity="0.19"/>
<path d="M585.299 377.903L537.873 368.063L472.636 379.42L463.377 389.211L533.726 376.439L540.523 377.917L561.68 382.518L585.307 377.914L585.299 377.903Z" fill="url(#paint20_linear_363_1274)" fill-opacity="0.19"/>
<path d="M585.299 377.903L537.873 368.063L472.636 379.42L463.377 389.211L533.726 376.439L540.523 377.917L561.68 382.518L585.307 377.914L585.299 377.903Z" fill="url(#paint21_linear_363_1274)" fill-opacity="0.19"/>
<path d="M323.182 365.636L294.144 356.516L255.846 360.923L225.104 364.463L234.241 368.126L275.412 363.276L305.268 373.379L323.174 365.641L323.182 365.636Z" fill="url(#paint22_linear_363_1274)" fill-opacity="0.19"/>
<path d="M266.345 364.455L244.869 356.52L161.916 365.657L133.487 373.4L223.109 363.274L226.077 364.453L235.249 368.116L266.353 364.45L266.345 364.455Z" fill="url(#paint23_linear_363_1274)" fill-opacity="0.19"/>
<path d="M266.345 364.455L244.869 356.52L161.916 365.657L133.487 373.4L223.109 363.274L226.077 364.453L235.249 368.116L266.353 364.45L266.345 364.455Z" fill="url(#paint24_linear_363_1274)" fill-opacity="0.19"/>
<path d="M485.689 365.616L444.218 356.501L411.986 360.904L386.113 364.438L400.25 368.095L434.744 363.251L478.367 373.343L485.681 365.611L485.689 365.616Z" fill="url(#paint25_linear_363_1274)" fill-opacity="0.19"/>
<path d="M647.982 365.589L594.112 356.485L567.929 360.882L546.918 364.411L566.036 368.068L593.879 363.229L651.242 373.311L647.99 365.589L647.982 365.589Z" fill="url(#paint26_linear_363_1274)" fill-opacity="0.19"/>
<path d="M586.607 364.409L543.612 356.49L485.689 365.617L478.375 373.349L540.265 363.24L546.434 364.419L565.535 368.076L586.598 364.415L586.607 364.409Z" fill="url(#paint27_linear_363_1274)" fill-opacity="0.19"/>
<path d="M586.607 364.409L543.612 356.49L485.689 365.617L478.375 373.349L540.265 363.24L546.434 364.419L565.535 368.076L586.598 364.415L586.607 364.409Z" fill="url(#paint28_linear_363_1274)" fill-opacity="0.19"/>
<path d="M349.229 354.386L320.93 346.853L287.116 350.502L260.142 353.415L269.382 356.411L305.443 352.441L334.645 360.687L349.229 354.386Z" fill="url(#paint29_linear_363_1274)" fill-opacity="0.19"/>
<path d="M297.499 353.41L275.998 346.855L203.267 354.394L180.113 360.7L257.998 352.442L261.009 353.414L270.276 356.41L297.499 353.41Z" fill="url(#paint30_linear_363_1274)" fill-opacity="0.19"/>
<path d="M297.499 353.41L275.998 346.855L203.267 354.394L180.113 360.7L257.998 352.442L261.009 353.414L270.276 356.41L297.499 353.41Z" fill="url(#paint31_linear_363_1274)" fill-opacity="0.19"/>
<path d="M496.325 354.371L457.771 346.843L428.981 350.492L406.016 353.4L419.344 356.396L449.94 352.425L490.371 360.666L496.325 354.371Z" fill="url(#paint32_linear_363_1274)" fill-opacity="0.19"/>
<path d="M442.024 353.396L411.668 346.846L349.228 354.38L334.643 360.681L401.257 352.428L405.576 353.4L418.895 356.396L442.024 353.396Z" fill="url(#paint33_linear_363_1274)" fill-opacity="0.19"/>
<path d="M442.024 353.396L411.668 346.846L349.228 354.38L334.643 360.681L401.257 352.428L405.576 353.4L418.895 356.396L442.024 353.396Z" fill="url(#paint34_linear_363_1274)" fill-opacity="0.19"/>
<path d="M422.873 364.806L392.518 358.256L330.077 365.79L315.493 372.091L382.107 363.838L386.426 364.81L399.745 367.806L422.873 364.806Z" fill="url(#paint35_linear_363_1274)" fill-opacity="0.19"/>
<path d="M643.248 354.357L594.454 346.834L570.672 350.478L551.709 353.386L569.115 356.383L594.256 352.417L645.898 360.647L643.248 354.357Z" fill="url(#paint36_linear_363_1274)" fill-opacity="0.19"/>
<path d="M587.674 353.38L548.405 346.835L496.332 354.364L490.378 360.659L545.643 352.412L551.287 353.384L568.684 356.38L587.691 353.386L587.674 353.38Z" fill="url(#paint37_linear_363_1274)" fill-opacity="0.19"/>
<path d="M587.674 353.38L548.405 346.835L496.332 354.364L490.378 360.659L545.643 352.412L551.287 353.384L568.684 356.38L587.691 353.386L587.674 353.38Z" fill="url(#paint38_linear_363_1274)" fill-opacity="0.19"/>
<path d="M370.636 345.131L343.378 338.753L313.065 341.85L289.008 344.31L298.111 346.834L330.248 343.49L358.409 350.414L370.636 345.131Z" fill="url(#paint39_linear_363_1274)" fill-opacity="0.19"/>
<path d="M323.166 344.312L302.095 338.757L237.254 345.141L217.843 350.429L286.822 343.499L289.8 344.316L298.928 346.84L323.166 344.317L323.166 344.312Z" fill="url(#paint40_linear_363_1274)" fill-opacity="0.19"/>
<path d="M323.166 344.312L302.095 338.757L237.254 345.141L217.843 350.429L286.822 343.499L289.8 344.316L298.928 346.84L323.166 344.317L323.166 344.312Z" fill="url(#paint41_linear_363_1274)" fill-opacity="0.19"/>
<path d="M505.068 345.127L469.12 338.755L443.076 341.852L422.4 344.312L434.944 346.836L462.478 343.492L500.078 350.41L505.068 345.133L505.068 345.127Z" fill="url(#paint42_linear_363_1274)" fill-opacity="0.19"/>
<path d="M455.335 344.307L426.752 338.752L370.636 345.131L358.409 350.413L417.924 343.483L422.003 344.3L434.539 346.824L455.335 344.302L455.335 344.307Z" fill="url(#paint43_linear_363_1274)" fill-opacity="0.19"/>
<path d="M455.335 344.307L426.752 338.752L370.636 345.131L358.409 350.413L417.924 343.483L422.003 344.3L434.539 346.824L455.335 344.302L455.335 344.307Z" fill="#273349"/>
<path d="M639.351 345.117L594.731 338.744L572.945 341.842L555.65 344.302L571.628 346.821L594.558 343.482L641.562 350.395L639.343 345.117L639.351 345.117Z" fill="url(#paint44_linear_363_1274)" fill-opacity="0.19"/>
<path d="M588.552 344.297L552.415 338.747L505.066 345.126L500.075 350.404L550.066 343.479L555.262 344.295L571.232 346.815L588.552 344.291L588.552 344.297Z" fill="url(#paint45_linear_363_1274)" fill-opacity="0.19"/>
<path d="M588.552 344.297L552.415 338.747L505.066 345.126L500.075 350.404L550.066 343.479L555.262 344.295L571.232 346.815L588.552 344.291L588.552 344.297Z" fill="url(#paint46_linear_363_1274)" fill-opacity="0.19"/>
<path d="M388.757 337.301L362.455 331.872L335.085 334.515L313.454 336.607L322.402 338.74L351.261 335.907L378.449 341.756L388.757 337.301Z" fill="url(#paint47_linear_363_1274)" fill-opacity="0.19"/>
<path d="M344.909 336.602L324.268 331.869L266.026 337.305L249.661 341.76L311.259 335.911L314.184 336.606L323.149 338.74L344.909 336.602Z" fill="url(#paint48_linear_363_1274)" fill-opacity="0.19"/>
<path d="M344.909 336.602L324.268 331.869L266.026 337.305L249.661 341.76L311.259 335.911L314.184 336.606L323.149 338.74L344.909 336.602Z" fill="url(#paint49_linear_363_1274)" fill-opacity="0.19"/>
<path d="M512.477 337.297L478.783 331.868L455.053 334.511L436.304 336.603L448.161 338.736L473.122 335.903L508.269 341.747L512.477 337.297Z" fill="url(#paint50_linear_363_1274)" fill-opacity="0.19"/>
<path d="M466.617 336.604L439.583 331.871L388.758 337.301L378.45 341.756L432.054 335.906L435.917 336.602L447.765 338.736L466.608 336.598L466.617 336.604Z" fill="url(#paint51_linear_363_1274)" fill-opacity="0.19"/>
<path d="M466.617 336.604L439.583 331.871L388.758 337.301L378.45 341.756L432.054 335.906L435.917 336.602L447.765 338.736L466.608 336.598L466.617 336.604Z" fill="url(#paint52_linear_363_1274)" fill-opacity="0.19"/>
<path d="M636.058 337.299L594.973 331.875L574.874 334.519L558.999 336.605L573.763 338.739L594.835 335.911L637.933 341.749L636.058 337.299Z" fill="url(#paint53_linear_363_1274)" fill-opacity="0.19"/>
<path d="M589.294 336.6L555.824 331.872L512.468 337.302L508.26 341.752L553.828 335.908L558.638 336.604L573.394 338.738L589.294 336.605L589.294 336.6Z" fill="url(#paint54_linear_363_1274)" fill-opacity="0.19"/>
<path d="M589.294 336.6L555.824 331.872L512.468 337.302L508.26 341.752L553.828 335.908L558.638 336.604L573.394 338.738L589.294 336.605L589.294 336.6Z" fill="url(#paint55_linear_363_1274)" fill-opacity="0.19"/>
<path d="M404.143 330.655L378.709 326.008L353.808 328.278L334.217 330.065L343.001 331.882L369.124 329.469L395.4 334.432L404.143 330.655Z" fill="url(#paint56_linear_363_1274)" fill-opacity="0.19"/>
<path d="M363.367 330.062L343.147 326.008L290.43 330.656L276.551 334.432L331.996 329.468L334.879 330.06L343.681 331.878L363.358 330.062L363.367 330.062Z" fill="url(#paint57_linear_363_1274)" fill-opacity="0.19"/>
<path d="M363.367 330.062L343.147 326.008L290.43 330.656L276.551 334.432L331.996 329.468L334.879 330.06L343.681 331.878L363.358 330.062L363.367 330.062Z" fill="url(#paint58_linear_363_1274)" fill-opacity="0.19"/>
<path d="M518.756 330.655L486.998 326.008L465.221 328.272L448.09 330.053L459.353 331.871L482.154 329.463L515.194 334.427L518.765 330.65L518.756 330.655Z" fill="url(#paint59_linear_363_1274)" fill-opacity="0.19"/>
<path d="M476.192 330.062L450.501 326.013L404.133 330.656L395.391 334.433L444.056 329.468L447.739 330.06L458.993 331.878L476.192 330.062Z" fill="url(#paint60_linear_363_1274)" fill-opacity="0.19"/>
<path d="M476.192 330.062L450.501 326.013L404.133 330.656L395.391 334.433L444.056 329.468L447.739 330.06L458.993 331.878L476.192 330.062Z" fill="url(#paint61_linear_363_1274)" fill-opacity="0.19"/>
<path d="M633.261 330.657L595.179 326.016L576.517 328.28L561.838 330.061L575.57 331.879L595.059 329.471L634.844 334.429L633.253 330.657L633.261 330.657Z" fill="url(#paint62_linear_363_1274)" fill-opacity="0.19"/>
<path d="M589.932 330.063L558.733 326.014L518.758 330.657L515.187 334.435L557.021 329.469L561.512 330.062L575.236 331.879L589.94 330.063L589.932 330.063Z" fill="url(#paint63_linear_363_1274)" fill-opacity="0.19"/>
<path d="M589.932 330.063L558.733 326.014L518.758 330.657L515.187 334.435L557.021 329.469L561.512 330.062L575.236 331.879L589.94 330.063L589.932 330.063Z" fill="url(#paint64_linear_363_1274)" fill-opacity="0.19"/>
<path d="M863.954 396.776L776.691 382.45L753.245 389.302L734.092 394.906L765.78 400.795L790.621 393.006L886.376 409.409L863.954 396.776Z" fill="url(#paint65_linear_363_1274)" fill-opacity="0.19"/>
<path d="M785.81 394.886L715.954 382.458L661.093 396.828L666.418 409.477L725.142 393.02L735.278 394.901L767.018 400.79L785.802 394.886L785.81 394.886Z" fill="url(#paint66_linear_363_1274)" fill-opacity="0.19"/>
<path d="M904.401 419.564L800.928 400.821L775.519 409.72L754.499 417.089L792.099 424.922L819.073 414.58L934.549 436.544L904.401 419.558L904.401 419.564Z" fill="url(#paint67_linear_363_1274)" fill-opacity="0.19"/>
<path d="M813.97 417.069L731.956 400.839L670.702 419.648L677.868 436.661L743.941 414.61L755.875 417.088L793.535 424.921L813.961 417.069L813.97 417.069Z" fill="url(#paint68_linear_363_1274)" fill-opacity="0.19"/>
<path d="M958.973 450.315L832.545 424.798L805.046 436.795L781.917 446.895L827.957 457.799L857.135 443.439L1001.57 474.304L958.982 450.309L958.973 450.315Z" fill="url(#paint69_linear_363_1274)" fill-opacity="0.19"/>
<path d="M851.801 446.863L752.846 424.826L683.685 450.447L693.81 474.492L769.081 443.484L783.536 446.9L829.662 457.803L851.793 446.863L851.801 446.863Z" fill="url(#paint70_linear_363_1274)" fill-opacity="0.19"/>
<path d="M832.935 379.302L757.624 367.989L735.933 373.426L718.38 377.829L745.741 382.419L768.645 376.343L850.264 389.059L832.935 379.296L832.935 379.302Z" fill="url(#paint71_linear_363_1274)" fill-opacity="0.19"/>
<path d="M764.155 377.82L703.376 367.997L653.738 379.332L657.859 389.106L710.663 376.357L719.465 377.829L746.86 382.419L764.164 377.82L764.155 377.82Z" fill="url(#paint72_linear_363_1274)" fill-opacity="0.19"/>
<path d="M764.155 377.82L703.376 367.997L653.738 379.332L657.859 389.106L710.663 376.357L719.465 377.829L746.86 382.419L764.164 377.82L764.155 377.82Z" fill="url(#paint73_linear_363_1274)" fill-opacity="0.19"/>
<path d="M808.502 365.537L742.396 356.443L722.202 360.835L705.992 364.364L730.023 368.016L751.275 363.182L822.182 373.253L808.493 365.543L808.502 365.537Z" fill="url(#paint74_linear_363_1274)" fill-opacity="0.19"/>
<path d="M747.051 364.356L693.31 356.448L647.923 365.558L651.175 373.274L699.178 363.181L706.947 364.36L731.013 368.012L747.051 364.356Z" fill="url(#paint75_linear_363_1274)" fill-opacity="0.19"/>
<path d="M747.051 364.356L693.31 356.448L647.923 365.558L651.175 373.274L699.178 363.181L706.947 364.36L731.013 368.012L747.051 364.356Z" fill="url(#paint76_linear_363_1274)" fill-opacity="0.19"/>
<path d="M788.582 354.313L729.678 346.801L710.861 350.439L695.855 353.342L717.288 356.332L737.026 352.372L799.733 360.592L788.582 354.307L788.582 354.313Z" fill="url(#paint77_linear_363_1274)" fill-opacity="0.19"/>
<path d="M733.113 353.345L684.956 346.805L643.234 354.329L645.884 360.619L689.817 352.382L696.769 353.349L718.228 356.339L733.113 353.345Z" fill="url(#paint78_linear_363_1274)" fill-opacity="0.19"/>
<path d="M733.113 353.345L684.956 346.805L643.234 354.329L645.884 360.619L689.817 352.382L696.769 353.349L718.228 356.339L733.113 353.345Z" fill="url(#paint79_linear_363_1274)" fill-opacity="0.19"/>
<path d="M772.211 345.084L719.029 338.722L701.45 341.815L687.503 344.269L706.87 346.788L725.258 343.449L781.554 350.357L772.202 345.09L772.211 345.084Z" fill="url(#paint80_linear_363_1274)" fill-opacity="0.19"/>
<path d="M721.592 344.266L677.926 338.721L639.345 345.089L641.564 350.361L682.039 343.447L688.346 344.264L707.731 346.783L721.592 344.266Z" fill="url(#paint81_linear_363_1274)" fill-opacity="0.19"/>
<path d="M721.592 344.266L677.926 338.721L639.345 345.089L641.564 350.361L682.039 343.447L688.346 344.264L707.731 346.783L721.592 344.266Z" fill="url(#paint82_linear_363_1274)" fill-opacity="0.19"/>
<path d="M758.341 337.27L709.968 331.851L693.465 334.489L680.43 336.576L698.068 338.71L715.285 335.882L766.23 341.715L758.341 337.27Z" fill="url(#paint83_linear_363_1274)" fill-opacity="0.19"/>
<path d="M711.831 336.578L671.943 331.856L636.054 337.281L637.93 341.731L675.453 335.892L681.209 336.588L698.865 338.722L711.84 336.59L711.831 336.578Z" fill="url(#paint84_linear_363_1274)" fill-opacity="0.19"/>
<path d="M711.831 336.578L671.943 331.856L636.054 337.281L637.93 341.731L675.453 335.892L681.209 336.588L698.865 338.722L711.84 336.59L711.831 336.578Z" fill="url(#paint85_linear_363_1274)" fill-opacity="0.19"/>
<path d="M746.57 330.64L702.251 326.004L686.677 328.268L674.425 330.05L690.6 331.861L706.811 329.453L753.264 334.412L746.57 330.64Z" fill="url(#paint86_linear_363_1274)" fill-opacity="0.19"/>
<path d="M703.54 330.046L666.852 326.002L633.261 330.64L634.853 334.411L669.863 329.452L675.155 330.044L691.339 331.856L703.548 330.04L703.54 330.046Z" fill="url(#paint87_linear_363_1274)" fill-opacity="0.19"/>
<path d="M703.54 330.046L666.852 326.002L633.261 330.64L634.853 334.411L669.863 329.452L675.155 330.044L691.339 331.856L703.548 330.04L703.54 330.046Z" fill="url(#paint88_linear_363_1274)" fill-opacity="0.19"/>
<path d="M1068.29 396.718L961.61 382.402L947.542 389.249L936.047 394.842L975.729 400.726L989.917 392.948L1107.91 409.329L1068.29 396.712L1068.29 396.718Z" fill="url(#paint89_linear_363_1274)" fill-opacity="0.19"/>
<path d="M985.881 394.836L899.307 382.418L863.943 396.772L886.365 409.405L922.77 392.969L935.435 394.844L975.091 400.728L985.873 394.83L985.881 394.836Z" fill="url(#paint90_linear_363_1274)" fill-opacity="0.19"/>
<path d="M1043.98 416.989L940.152 400.781L904.401 419.562L934.549 436.548L970.73 414.53L985.994 417.003L1034.19 424.825L1043.98 416.983L1043.98 416.989Z" fill="url(#paint91_linear_363_1274)" fill-opacity="0.19"/>
<path d="M1013.49 379.267L922.849 367.964L908.601 373.397L897.08 377.794L930.67 382.378L945.263 376.314L1044.12 389.014L1013.49 379.261L1013.49 379.267Z" fill="url(#paint92_linear_363_1274)" fill-opacity="0.19"/>
<path d="M941.186 377.791L867.191 367.973L832.937 379.297L850.265 389.06L885.767 376.322L896.548 377.794L930.112 382.378L941.177 377.785L941.186 377.791Z" fill="url(#paint93_linear_363_1274)" fill-opacity="0.19"/>
<path d="M941.186 377.791L867.191 367.973L832.937 379.297L850.265 389.06L885.767 376.322L896.548 377.794L930.112 382.378L941.177 377.785L941.186 377.791Z" fill="#5AFBC4"/>
<path d="M970.319 365.512L891.884 356.423L877.704 360.815L866.33 364.339L895.317 367.985L909.953 363.157L994.514 373.217L970.328 365.512L970.319 365.512Z" fill="url(#paint94_linear_363_1274)" fill-opacity="0.19"/>
<path d="M905.9 364.335L841.524 356.432L808.51 365.537L822.199 373.247L856.495 363.165L865.848 364.338L894.818 367.985L905.9 364.335Z" fill="url(#paint95_linear_363_1274)" fill-opacity="0.19"/>
<path d="M905.9 364.335L841.524 356.432L808.51 365.537L822.199 373.247L856.495 363.165L865.848 364.338L894.818 367.985L905.9 364.335Z" fill="url(#paint96_linear_363_1274)" fill-opacity="0.19"/>
<path d="M935.121 354.299L866.038 346.792L852.203 350.431L841.172 353.334L866.666 356.319L880.983 352.359L954.832 360.573L935.121 354.293L935.121 354.299Z" fill="url(#paint97_linear_363_1274)" fill-opacity="0.19"/>
<path d="M877.042 353.329L820.092 346.795L788.583 354.313L799.734 360.598L832.473 352.367L840.733 353.333L866.21 356.318L877.034 353.329L877.042 353.329Z" fill="url(#paint98_linear_363_1274)" fill-opacity="0.19"/>
<path d="M877.042 353.329L820.092 346.795L788.583 354.313L799.734 360.598L832.473 352.367L840.733 353.333L866.21 356.318L877.034 353.329L877.042 353.329Z" fill="url(#paint99_linear_363_1274)" fill-opacity="0.19"/>
<path d="M906.168 345.08L844.357 338.718L831.02 341.811L820.437 344.265L843.22 346.779L857.03 343.445L922.697 350.348L906.168 345.08Z" fill="url(#paint100_linear_363_1274)" fill-opacity="0.19"/>
<path d="M853.261 344.26L802.135 338.72L772.21 345.089L781.562 350.356L812.641 343.447L820.04 344.264L842.815 346.778L853.252 344.26L853.261 344.26Z" fill="url(#paint101_linear_363_1274)" fill-opacity="0.19"/>
<path d="M853.261 344.26L802.135 338.72L772.21 345.089L781.562 350.356L812.641 343.447L820.04 344.264L842.815 346.778L853.252 344.26L853.261 344.26Z" fill="url(#paint102_linear_363_1274)" fill-opacity="0.19"/>
<path d="M881.655 337.27L825.935 331.851L813.054 334.489L802.884 336.576L823.413 338.704L836.759 335.882L895.619 341.715L881.672 337.27L881.655 337.27Z" fill="url(#paint103_linear_363_1274)" fill-opacity="0.19"/>
<path d="M860.842 330.642L810.233 326.005L797.756 328.27L787.948 330.051L806.584 331.864L819.49 329.461L872.664 334.414L860.833 330.648L860.842 330.642Z" fill="url(#paint104_linear_363_1274)" fill-opacity="0.19"/>
<path d="M199.024 55.2808L171.69 73.939L109.826 65.0769L58.6563 57.7436L64.4379 49.9471L133.702 60.2346L159.935 38.3913L199.024 55.2808Z" fill="url(#paint105_linear_363_1274)" fill-opacity="0.19"/>
<path d="M251.615 78.0047L222.835 92.3912L171.15 85.5121L128.894 79.8859L136.517 73.9694L193.451 81.791L222.249 65.3117L251.624 78.0047L251.615 78.0047Z" fill="url(#paint106_linear_363_1274)" fill-opacity="0.19"/>
<path d="M180.896 79.9005L161.805 92.3777L47.661 77.9474L0.999944 65.2382L127.637 81.772L130.098 79.8861L137.764 73.9696L180.888 79.9005L180.896 79.9005Z" fill="url(#paint107_linear_363_1274)" fill-opacity="0.19"/>
<path d="M457.065 78.0569L408.659 92.4273L366.438 85.5535L331.927 79.9325L347.629 74.0213L393.799 81.8321L445.07 65.3745L457.057 78.0512L457.065 78.0569Z" fill="url(#paint108_linear_363_1274)" fill-opacity="0.19"/>
<path d="M435.578 55.3414L382.973 74.116L333.232 65.2015L292.069 57.8217L308.382 49.9728L363.63 60.3359L419.479 38.3242L435.578 55.3471L435.578 55.3414Z" fill="url(#paint109_linear_363_1274)" fill-opacity="0.19"/>
<path d="M349.658 57.8433L311.912 74.0989L198.973 55.2588L159.514 38.2084L286.194 60.3076L291.365 57.8236L307.652 49.9748L349.658 57.8433Z" fill="url(#paint110_linear_363_1274)" fill-opacity="0.19"/>
<path d="M406.219 24.3089L349.037 49.9313L288.661 37.884L237.844 27.7392L254.243 16.78L322.776 31.2071L383.416 0.191583L406.227 24.3089L406.219 24.3089Z" fill="url(#paint111_linear_363_1274)" fill-opacity="0.19"/>
<path d="M305.618 27.7697L266.798 49.9011L127.03 24.1748L71.1193 0.0133927L231.881 31.1717L237.018 27.7448L253.365 16.7856L305.61 27.7754L305.618 27.7697Z" fill="#2007CD"/>
<path d="M662.159 78.1151L594.187 92.4693L561.405 85.6064L534.62 79.9908L558.376 74.0906L593.817 81.8905L667.493 65.4547L662.159 78.1151Z" fill="url(#paint112_linear_363_1274)" fill-opacity="0.19"/>
<path d="M584.644 80.0038L531.687 92.4541L457.062 78.0561L445.076 65.3795L526.446 81.8698L534.026 79.9893L557.756 74.0892L584.653 80.0038L584.644 80.0038Z" fill="#FF00F2"/>
<path d="M671.779 55.2788L593.534 74.0606L556.011 65.1397L524.958 57.7535L551.992 49.8984L593.043 60.2622L678.946 38.243L671.771 55.2731L671.779 55.2788Z" fill="url(#paint113_linear_363_1274)" fill-opacity="0.19"/>
<path d="M582.492 57.7785L522.548 74.0411L435.43 55.1938L419.296 38.1421L515.707 60.2487L524.268 57.7645L551.276 49.9094L582.501 57.7843L582.492 57.7785Z" fill="url(#paint114_linear_363_1274)" fill-opacity="0.19"/>
<path d="M684.769 24.4426L592.689 50.0267L548.858 37.9958L511.972 27.8675L543.299 16.9304L592.025 31.3299L694.903 0.369493L684.76 24.4369L684.769 24.4426Z" fill="url(#paint115_linear_363_1274)" fill-opacity="0.19"/>
<path d="M579.602 27.9039L510.624 49.9968L406.22 24.3087L383.409 0.191404L501.339 31.2889L511.148 27.8674L542.432 16.9304L579.594 27.8981L579.602 27.9039Z" fill="url(#paint116_linear_363_1274)" fill-opacity="0.19"/>
<path d="M292.219 95.5489L263.043 106.9L218.938 101.44L183.239 97.0211L191.86 92.4154L239.794 98.5128L269.529 85.7476L292.21 95.5489L292.219 95.5489Z" fill="url(#paint117_linear_363_1274)" fill-opacity="0.19"/>
<path d="M229.226 97.0317L208.551 106.893L112.158 95.5146L76.1316 85.7025L181.533 98.5004L184.321 97.0227L192.976 92.4169L229.235 97.0317L229.226 97.0317Z" fill="url(#paint118_linear_363_1274)" fill-opacity="0.19"/>
<path d="M229.226 97.0317L208.551 106.893L112.158 95.5146L76.1316 85.7025L181.533 98.5004L184.321 97.0227L192.976 92.4169L229.235 97.0317L229.226 97.0317Z" fill="url(#paint119_linear_363_1274)" fill-opacity="0.19"/>
<path d="M473.634 95.5857L428.979 106.926L392.386 101.472L362.77 97.058L377.672 92.4577L417.217 98.5498L464.359 85.8008L473.617 95.5915L473.634 95.5857Z" fill="url(#paint120_linear_363_1274)" fill-opacity="0.19"/>
<path d="M407.092 97.0674L373.081 106.918L292.218 95.5503L269.537 85.7489L357.464 98.5363L362.256 97.0585L377.141 92.4582L407.101 97.0674L407.092 97.0674Z" fill="url(#paint121_linear_363_1274)" fill-opacity="0.19"/>
<path d="M407.092 97.0674L373.081 106.918L292.218 95.5503L269.537 85.7489L357.464 98.5363L362.256 97.0585L377.141 92.4582L407.101 97.0674L407.092 97.0674Z" fill="url(#paint122_linear_363_1274)" fill-opacity="0.19"/>
<path d="M379.522 79.6007L345.511 89.4512L264.648 78.0835L241.967 68.2821L329.894 81.0696L334.686 79.5917L349.571 74.9914L379.531 79.6007L379.522 79.6007Z" fill="url(#paint123_linear_363_1274)" fill-opacity="0.19"/>
<path d="M654.789 95.6205L594.707 106.95L565.607 101.501L542.058 97.093L563.232 92.4923L594.414 98.5734L658.919 85.8349L654.798 95.6148L654.789 95.6205Z" fill="url(#paint124_linear_363_1274)" fill-opacity="0.19"/>
<path d="M586.299 97.0974L538.873 106.937L473.636 95.5801L464.377 85.7895L534.726 98.5606L541.523 97.0827L562.68 92.482L586.307 97.0859L586.299 97.0974Z" fill="url(#paint125_linear_363_1274)" fill-opacity="0.19"/>
<path d="M586.299 97.0974L538.873 106.937L473.636 95.5801L464.377 85.7895L534.726 98.5606L541.523 97.0827L562.68 92.482L586.307 97.0859L586.299 97.0974Z" fill="url(#paint126_linear_363_1274)" fill-opacity="0.19"/>
<path d="M324.182 109.364L295.144 118.484L256.846 114.077L226.104 110.537L235.241 106.874L276.412 111.724L306.268 101.621L324.174 109.359L324.182 109.364Z" fill="url(#paint127_linear_363_1274)" fill-opacity="0.19"/>
<path d="M267.345 110.545L245.869 118.48L162.916 109.343L134.487 101.6L224.109 111.726L227.077 110.547L236.249 106.884L267.353 110.55L267.345 110.545Z" fill="url(#paint128_linear_363_1274)" fill-opacity="0.19"/>
<path d="M267.345 110.545L245.869 118.48L162.916 109.343L134.487 101.6L224.109 111.726L227.077 110.547L236.249 106.884L267.353 110.55L267.345 110.545Z" fill="url(#paint129_linear_363_1274)" fill-opacity="0.19"/>
<path d="M486.689 109.384L445.218 118.499L412.986 114.096L387.113 110.562L401.25 106.905L435.744 111.749L479.367 101.657L486.681 109.389L486.689 109.384Z" fill="url(#paint130_linear_363_1274)" fill-opacity="0.19"/>
<path d="M648.982 109.411L595.112 118.515L568.929 114.118L547.918 110.589L567.036 106.932L594.879 111.771L652.242 101.689L648.99 109.411L648.982 109.411Z" fill="url(#paint131_linear_363_1274)" fill-opacity="0.19"/>
<path d="M587.607 110.591L544.612 118.51L486.689 109.383L479.375 101.651L541.265 111.76L547.434 110.581L566.535 106.924L587.598 110.585L587.607 110.591Z" fill="url(#paint132_linear_363_1274)" fill-opacity="0.19"/>
<path d="M587.607 110.591L544.612 118.51L486.689 109.383L479.375 101.651L541.265 111.76L547.434 110.581L566.535 106.924L587.598 110.585L587.607 110.591Z" fill="url(#paint133_linear_363_1274)" fill-opacity="0.19"/>
<path d="M350.229 120.614L321.93 128.147L288.116 124.498L261.142 121.585L270.382 118.589L306.443 122.559L335.645 114.313L350.229 120.614Z" fill="url(#paint134_linear_363_1274)" fill-opacity="0.19"/>
<path d="M298.499 121.59L276.998 128.145L204.267 120.606L181.113 114.3L258.998 122.558L262.009 121.586L271.276 118.59L298.499 121.59Z" fill="url(#paint135_linear_363_1274)" fill-opacity="0.19"/>
<path d="M298.499 121.59L276.998 128.145L204.267 120.606L181.113 114.3L258.998 122.558L262.009 121.586L271.276 118.59L298.499 121.59Z" fill="url(#paint136_linear_363_1274)" fill-opacity="0.19"/>
<path d="M497.325 120.629L458.771 128.157L429.981 124.508L407.016 121.6L420.344 118.604L450.94 122.575L491.371 114.334L497.325 120.629Z" fill="url(#paint137_linear_363_1274)" fill-opacity="0.19"/>
<path d="M443.024 121.604L412.668 128.154L350.228 120.62L335.643 114.319L402.257 122.572L406.576 121.6L419.895 118.604L443.024 121.604Z" fill="url(#paint138_linear_363_1274)" fill-opacity="0.19"/>
<path d="M443.024 121.604L412.668 128.154L350.228 120.62L335.643 114.319L402.257 122.572L406.576 121.6L419.895 118.604L443.024 121.604Z" fill="url(#paint139_linear_363_1274)" fill-opacity="0.19"/>
<path d="M423.873 110.194L393.518 116.744L331.077 109.21L316.493 102.909L383.107 111.162L387.426 110.19L400.745 107.194L423.873 110.194Z" fill="url(#paint140_linear_363_1274)" fill-opacity="0.19"/>
<path d="M644.248 120.643L595.454 128.166L571.672 124.522L552.709 121.614L570.115 118.617L595.256 122.583L646.898 114.353L644.248 120.643Z" fill="url(#paint141_linear_363_1274)" fill-opacity="0.19"/>
<path d="M588.674 121.62L549.405 128.165L497.332 120.636L491.378 114.341L546.643 122.588L552.287 121.616L569.684 118.62L588.691 121.614L588.674 121.62Z" fill="url(#paint142_linear_363_1274)" fill-opacity="0.19"/>
<path d="M588.674 121.62L549.405 128.165L497.332 120.636L491.378 114.341L546.643 122.588L552.287 121.616L569.684 118.62L588.691 121.614L588.674 121.62Z" fill="url(#paint143_linear_363_1274)" fill-opacity="0.19"/>
<path d="M371.636 129.869L344.378 136.247L314.065 133.15L290.008 130.69L299.111 128.166L331.248 131.51L359.409 124.586L371.636 129.869Z" fill="url(#paint144_linear_363_1274)" fill-opacity="0.19"/>
<path d="M324.166 130.688L303.095 136.243L238.254 129.859L218.843 124.571L287.822 131.501L290.8 130.684L299.928 128.16L324.166 130.683L324.166 130.688Z" fill="url(#paint145_linear_363_1274)" fill-opacity="0.19"/>
<path d="M324.166 130.688L303.095 136.243L238.254 129.859L218.843 124.571L287.822 131.501L290.8 130.684L299.928 128.16L324.166 130.683L324.166 130.688Z" fill="url(#paint146_linear_363_1274)" fill-opacity="0.19"/>
<path d="M506.068 129.873L470.12 136.245L444.076 133.148L423.4 130.688L435.944 128.164L463.478 131.508L501.078 124.59L506.068 129.867L506.068 129.873Z" fill="url(#paint147_linear_363_1274)" fill-opacity="0.19"/>
<path d="M456.335 130.693L427.752 136.248L371.636 129.869L359.409 124.587L418.924 131.517L423.003 130.7L435.539 128.176L456.335 130.698L456.335 130.693Z" fill="url(#paint148_linear_363_1274)" fill-opacity="0.19"/>
<path d="M456.335 130.693L427.752 136.248L371.636 129.869L359.409 124.587L418.924 131.517L423.003 130.7L435.539 128.176L456.335 130.698L456.335 130.693Z" fill="#273349"/>
<path d="M640.351 129.883L595.731 136.256L573.945 133.158L556.65 130.698L572.628 128.179L595.558 131.518L642.562 124.605L640.343 129.883L640.351 129.883Z" fill="url(#paint149_linear_363_1274)" fill-opacity="0.19"/>
<path d="M589.552 130.703L553.415 136.253L506.066 129.874L501.075 124.596L551.066 131.521L556.262 130.705L572.232 128.185L589.552 130.709L589.552 130.703Z" fill="url(#paint150_linear_363_1274)" fill-opacity="0.19"/>
<path d="M589.552 130.703L553.415 136.253L506.066 129.874L501.075 124.596L551.066 131.521L556.262 130.705L572.232 128.185L589.552 130.709L589.552 130.703Z" fill="url(#paint151_linear_363_1274)" fill-opacity="0.19"/>
<path d="M389.757 137.699L363.455 143.128L336.085 140.485L314.454 138.393L323.402 136.26L352.261 139.093L379.449 133.244L389.757 137.699Z" fill="url(#paint152_linear_363_1274)" fill-opacity="0.19"/>
<path d="M345.909 138.398L325.268 143.131L267.026 137.695L250.661 133.24L312.259 139.089L315.184 138.394L324.149 136.26L345.909 138.398Z" fill="url(#paint153_linear_363_1274)" fill-opacity="0.19"/>
<path d="M345.909 138.398L325.268 143.131L267.026 137.695L250.661 133.24L312.259 139.089L315.184 138.394L324.149 136.26L345.909 138.398Z" fill="url(#paint154_linear_363_1274)" fill-opacity="0.19"/>
<path d="M513.477 137.703L479.783 143.132L456.053 140.489L437.304 138.397L449.161 136.264L474.122 139.097L509.269 133.253L513.477 137.703Z" fill="url(#paint155_linear_363_1274)" fill-opacity="0.19"/>
<path d="M467.617 138.396L440.583 143.129L389.758 137.699L379.45 133.244L433.054 139.094L436.917 138.398L448.765 136.264L467.608 138.402L467.617 138.396Z" fill="url(#paint156_linear_363_1274)" fill-opacity="0.19"/>
<path d="M467.617 138.396L440.583 143.129L389.758 137.699L379.45 133.244L433.054 139.094L436.917 138.398L448.765 136.264L467.608 138.402L467.617 138.396Z" fill="url(#paint157_linear_363_1274)" fill-opacity="0.19"/>
<path d="M637.058 137.701L595.973 143.125L575.874 140.481L559.999 138.395L574.763 136.261L595.835 139.089L638.933 133.251L637.058 137.701Z" fill="url(#paint158_linear_363_1274)" fill-opacity="0.19"/>
<path d="M590.294 138.4L556.824 143.128L513.468 137.698L509.26 133.248L554.828 139.092L559.638 138.396L574.394 136.262L590.294 138.395L590.294 138.4Z" fill="url(#paint159_linear_363_1274)" fill-opacity="0.19"/>
<path d="M590.294 138.4L556.824 143.128L513.468 137.698L509.26 133.248L554.828 139.092L559.638 138.396L574.394 136.262L590.294 138.395L590.294 138.4Z" fill="url(#paint160_linear_363_1274)" fill-opacity="0.19"/>
<path d="M405.143 144.345L379.709 148.992L354.808 146.722L335.217 144.935L344.001 143.118L370.124 145.531L396.4 140.568L405.143 144.345Z" fill="url(#paint161_linear_363_1274)" fill-opacity="0.19"/>
<path d="M364.367 144.938L344.147 148.992L291.43 144.344L277.551 140.568L332.996 145.532L335.879 144.94L344.681 143.122L364.358 144.938L364.367 144.938Z" fill="url(#paint162_linear_363_1274)" fill-opacity="0.19"/>
<path d="M364.367 144.938L344.147 148.992L291.43 144.344L277.551 140.568L332.996 145.532L335.879 144.94L344.681 143.122L364.358 144.938L364.367 144.938Z" fill="url(#paint163_linear_363_1274)" fill-opacity="0.19"/>
<path d="M519.756 144.345L487.998 148.992L466.221 146.728L449.09 144.947L460.353 143.129L483.154 145.537L516.194 140.573L519.765 144.35L519.756 144.345Z" fill="url(#paint164_linear_363_1274)" fill-opacity="0.19"/>
<path d="M477.192 144.938L451.501 148.987L405.133 144.344L396.391 140.567L445.056 145.532L448.739 144.94L459.993 143.122L477.192 144.938Z" fill="url(#paint165_linear_363_1274)" fill-opacity="0.19"/>
<path d="M477.192 144.938L451.501 148.987L405.133 144.344L396.391 140.567L445.056 145.532L448.739 144.94L459.993 143.122L477.192 144.938Z" fill="url(#paint166_linear_363_1274)" fill-opacity="0.19"/>
<path d="M634.261 144.343L596.179 148.984L577.517 146.72L562.838 144.939L576.57 143.121L596.059 145.529L635.844 140.571L634.253 144.343L634.261 144.343Z" fill="url(#paint167_linear_363_1274)" fill-opacity="0.19"/>
<path d="M590.932 144.937L559.733 148.986L519.758 144.343L516.187 140.565L558.021 145.531L562.512 144.938L576.236 143.121L590.94 144.937L590.932 144.937Z" fill="url(#paint168_linear_363_1274)" fill-opacity="0.19"/>
<path d="M590.932 144.937L559.733 148.986L519.758 144.343L516.187 140.565L558.021 145.531L562.512 144.938L576.236 143.121L590.94 144.937L590.932 144.937Z" fill="url(#paint169_linear_363_1274)" fill-opacity="0.19"/>
<path d="M864.954 78.2238L777.691 92.5503L754.245 85.6984L735.092 80.0938L766.78 74.2047L791.621 81.9937L887.376 65.5912L864.954 78.2238Z" fill="url(#paint170_linear_363_1274)" fill-opacity="0.19"/>
<path d="M786.81 80.1136L716.954 92.5418L662.093 78.1715L667.418 65.5226L726.142 81.9798L736.278 80.0991L768.018 74.21L786.802 80.1136L786.81 80.1136Z" fill="url(#paint171_linear_363_1274)" fill-opacity="0.19"/>
<path d="M905.401 55.436L801.928 74.179L776.519 65.2804L755.499 57.9109L793.099 50.0782L820.073 60.4198L935.549 38.4565L905.401 55.4418L905.401 55.436Z" fill="url(#paint172_linear_363_1274)" fill-opacity="0.19"/>
<path d="M814.97 57.9313L732.956 74.1606L671.702 55.3522L678.868 38.3394L744.941 60.3903L756.875 57.9116L794.535 50.0788L814.961 57.9313L814.97 57.9313Z" fill="url(#paint173_linear_363_1274)" fill-opacity="0.19"/>
<path d="M959.973 24.6852L833.545 50.2022L806.046 38.2049L782.917 28.1045L828.957 17.2011L858.135 31.5614L1002.57 0.696465L959.982 24.691L959.973 24.6852Z" fill="url(#paint174_linear_363_1274)" fill-opacity="0.19"/>
<path d="M852.801 28.1367L753.846 50.1739L684.685 24.5528L694.81 0.508398L770.081 31.5163L784.536 28.1003L830.662 17.1969L852.793 28.1367L852.801 28.1367Z" fill="url(#paint175_linear_363_1274)" fill-opacity="0.19"/>
<path d="M833.935 95.6983L758.624 107.011L736.933 101.574L719.38 97.1708L746.741 92.5812L769.645 98.657L851.264 85.9406L833.935 95.704L833.935 95.6983Z" fill="url(#paint176_linear_363_1274)" fill-opacity="0.19"/>
<path d="M765.155 97.1798L704.376 107.003L654.738 95.6681L658.859 85.894L711.663 98.6431L720.465 97.1708L747.86 92.5813L765.164 97.1798L765.155 97.1798Z" fill="url(#paint177_linear_363_1274)" fill-opacity="0.19"/>
<path d="M765.155 97.1798L704.376 107.003L654.738 95.6681L658.859 85.894L711.663 98.6431L720.465 97.1708L747.86 92.5813L765.164 97.1798L765.155 97.1798Z" fill="url(#paint178_linear_363_1274)" fill-opacity="0.19"/>
<path d="M809.502 109.463L743.396 118.557L723.202 114.165L706.992 110.636L731.023 106.984L752.275 111.818L823.182 101.747L809.493 109.457L809.502 109.463Z" fill="url(#paint179_linear_363_1274)" fill-opacity="0.19"/>
<path d="M748.051 110.644L694.31 118.552L648.923 109.442L652.175 101.726L700.178 111.819L707.947 110.64L732.013 106.988L748.051 110.644Z" fill="url(#paint180_linear_363_1274)" fill-opacity="0.19"/>
<path d="M748.051 110.644L694.31 118.552L648.923 109.442L652.175 101.726L700.178 111.819L707.947 110.64L732.013 106.988L748.051 110.644Z" fill="url(#paint181_linear_363_1274)" fill-opacity="0.19"/>
<path d="M789.582 120.687L730.678 128.199L711.861 124.561L696.855 121.658L718.288 118.668L738.026 122.628L800.733 114.408L789.582 120.693L789.582 120.687Z" fill="url(#paint182_linear_363_1274)" fill-opacity="0.19"/>
<path d="M734.113 121.655L685.956 128.195L644.234 120.671L646.884 114.381L690.817 122.618L697.769 121.651L719.228 118.661L734.113 121.655Z" fill="url(#paint183_linear_363_1274)" fill-opacity="0.19"/>
<path d="M734.113 121.655L685.956 128.195L644.234 120.671L646.884 114.381L690.817 122.618L697.769 121.651L719.228 118.661L734.113 121.655Z" fill="url(#paint184_linear_363_1274)" fill-opacity="0.19"/>
<path d="M773.211 129.916L720.029 136.278L702.45 133.185L688.503 130.731L707.87 128.212L726.258 131.551L782.554 124.643L773.202 129.91L773.211 129.916Z" fill="url(#paint185_linear_363_1274)" fill-opacity="0.19"/>
<path d="M722.592 130.734L678.926 136.279L640.345 129.911L642.564 124.639L683.039 131.553L689.346 130.736L708.731 128.217L722.592 130.734Z" fill="url(#paint186_linear_363_1274)" fill-opacity="0.19"/>
<path d="M722.592 130.734L678.926 136.279L640.345 129.911L642.564 124.639L683.039 131.553L689.346 130.736L708.731 128.217L722.592 130.734Z" fill="url(#paint187_linear_363_1274)" fill-opacity="0.19"/>
<path d="M759.341 137.73L710.968 143.149L694.465 140.511L681.43 138.424L699.068 136.29L716.285 139.118L767.23 133.285L759.341 137.73Z" fill="url(#paint188_linear_363_1274)" fill-opacity="0.19"/>
<path d="M712.831 138.422L672.943 143.144L637.054 137.719L638.93 133.269L676.453 139.108L682.209 138.412L699.865 136.278L712.84 138.41L712.831 138.422Z" fill="url(#paint189_linear_363_1274)" fill-opacity="0.19"/>
<path d="M712.831 138.422L672.943 143.144L637.054 137.719L638.93 133.269L676.453 139.108L682.209 138.412L699.865 136.278L712.84 138.41L712.831 138.422Z" fill="url(#paint190_linear_363_1274)" fill-opacity="0.19"/>
<path d="M747.57 144.36L703.251 148.996L687.677 146.732L675.425 144.95L691.6 143.139L707.811 145.547L754.264 140.588L747.57 144.36Z" fill="url(#paint191_linear_363_1274)" fill-opacity="0.19"/>
<path d="M704.54 144.954L667.852 148.998L634.261 144.36L635.853 140.589L670.863 145.548L676.155 144.956L692.339 143.144L704.548 144.96L704.54 144.954Z" fill="url(#paint192_linear_363_1274)" fill-opacity="0.19"/>
<path d="M704.54 144.954L667.852 148.998L634.261 144.36L635.853 140.589L670.863 145.548L676.155 144.956L692.339 143.144L704.548 144.96L704.54 144.954Z" fill="url(#paint193_linear_363_1274)" fill-opacity="0.19"/>
<path d="M1069.29 78.282L962.61 92.5982L948.542 85.7515L937.047 80.158L976.729 74.2742L990.917 82.0522L1108.91 65.6714L1069.29 78.2878L1069.29 78.282Z" fill="url(#paint194_linear_363_1274)" fill-opacity="0.19"/>
<path d="M986.881 80.1643L900.307 92.582L864.943 78.2278L887.365 65.5952L923.77 82.0306L936.435 80.1556L976.091 74.2718L986.873 80.17L986.881 80.1643Z" fill="url(#paint195_linear_363_1274)" fill-opacity="0.19"/>
<path d="M1044.98 58.0112L941.152 74.2187L905.401 55.4375L935.549 38.4522L971.73 60.4703L986.994 57.9972L1035.19 50.1753L1044.98 58.0169L1044.98 58.0112Z" fill="url(#paint196_linear_363_1274)" fill-opacity="0.19"/>
<path d="M1014.49 95.7331L923.849 107.036L909.601 101.603L898.08 97.2057L931.67 92.6216L946.263 98.6863L1045.12 85.9862L1014.49 95.7388L1014.49 95.7331Z" fill="url(#paint197_linear_363_1274)" fill-opacity="0.19"/>
<path d="M942.186 97.2091L868.191 107.027L833.937 95.7031L851.265 85.9397L886.767 98.6783L897.548 97.2058L931.112 92.6217L942.177 97.2148L942.186 97.2091Z" fill="url(#paint198_linear_363_1274)" fill-opacity="0.19"/>
<path d="M942.186 97.2091L868.191 107.027L833.937 95.7031L851.265 85.9397L886.767 98.6783L897.548 97.2058L931.112 92.6217L942.177 97.2148L942.186 97.2091Z" fill="#5AFBC4"/>
<path d="M971.319 109.488L892.884 118.577L878.704 114.185L867.33 110.661L896.317 107.015L910.953 111.843L995.514 101.783L971.328 109.488L971.319 109.488Z" fill="url(#paint199_linear_363_1274)" fill-opacity="0.19"/>
<path d="M906.9 110.665L842.524 118.568L809.51 109.463L823.199 101.753L857.495 111.835L866.848 110.662L895.818 107.015L906.9 110.665Z" fill="url(#paint200_linear_363_1274)" fill-opacity="0.19"/>
<path d="M906.9 110.665L842.524 118.568L809.51 109.463L823.199 101.753L857.495 111.835L866.848 110.662L895.818 107.015L906.9 110.665Z" fill="url(#paint201_linear_363_1274)" fill-opacity="0.19"/>
<path d="M936.121 120.701L867.038 128.208L853.203 124.569L842.172 121.666L867.666 118.681L881.983 122.641L955.832 114.427L936.121 120.707L936.121 120.701Z" fill="url(#paint202_linear_363_1274)" fill-opacity="0.19"/>
<path d="M878.042 121.671L821.092 128.205L789.583 120.687L800.734 114.402L833.473 122.633L841.733 121.667L867.21 118.682L878.034 121.671L878.042 121.671Z" fill="url(#paint203_linear_363_1274)" fill-opacity="0.19"/>
<path d="M878.042 121.671L821.092 128.205L789.583 120.687L800.734 114.402L833.473 122.633L841.733 121.667L867.21 118.682L878.034 121.671L878.042 121.671Z" fill="url(#paint204_linear_363_1274)" fill-opacity="0.19"/>
<path d="M907.168 129.92L845.357 136.282L832.02 133.189L821.437 130.735L844.22 128.221L858.03 131.555L923.697 124.652L907.168 129.92Z" fill="url(#paint205_linear_363_1274)" fill-opacity="0.19"/>
<path d="M854.261 130.74L803.135 136.28L773.21 129.911L782.562 124.644L813.641 131.553L821.04 130.736L843.815 128.222L854.252 130.74L854.261 130.74Z" fill="url(#paint206_linear_363_1274)" fill-opacity="0.19"/>
<path d="M854.261 130.74L803.135 136.28L773.21 129.911L782.562 124.644L813.641 131.553L821.04 130.736L843.815 128.222L854.252 130.74L854.261 130.74Z" fill="url(#paint207_linear_363_1274)" fill-opacity="0.19"/>
<path d="M882.655 137.73L826.935 143.149L814.054 140.511L803.884 138.424L824.413 136.296L837.759 139.118L896.619 133.285L882.672 137.73L882.655 137.73Z" fill="url(#paint208_linear_363_1274)" fill-opacity="0.19"/>
<path d="M861.842 144.358L811.233 148.995L798.756 146.73L788.948 144.949L807.584 143.136L820.49 145.539L873.664 140.586L861.833 144.352L861.842 144.358Z" fill="url(#paint209_linear_363_1274)" fill-opacity="0.19"/>
<defs>
<filter id="filter0_d_363_1274" x="245" y="75" width="677" height="333" filterUnits="userSpaceOnUse" color-interpolation-filters="sRGB">
<feFlood flood-opacity="0" result="BackgroundImageFix"/>
<feColorMatrix in="SourceAlpha" type="matrix" values="0 0 0 0 0 0 0 0 0 0 0 0 0 0 0 0 0 0 127 0" result="hardAlpha"/>
<feMorphology radius="11" operator="dilate" in="SourceAlpha" result="effect1_dropShadow_363_1274"/>
<feOffset/>
<feGaussianBlur stdDeviation="20"/>
<feComposite in2="hardAlpha" operator="out"/>
<feColorMatrix type="matrix" values="0 0 0 0 0 0 0 0 0 0 0 0 0 0 0 0 0 0 0.07 0"/>
<feBlend mode="normal" in2="BackgroundImageFix" result="effect1_dropShadow_363_1274"/>
<feBlend mode="normal" in="SourceGraphic" in2="effect1_dropShadow_363_1274" result="shape"/>
</filter>
<filter id="filter1_d_363_1274" x="330" y="161" width="152" height="152" filterUnits="userSpaceOnUse" color-interpolation-filters="sRGB">
<feFlood flood-opacity="0" result="BackgroundImageFix"/>
<feColorMatrix in="SourceAlpha" type="matrix" values="0 0 0 0 0 0 0 0 0 0 0 0 0 0 0 0 0 0 127 0" result="hardAlpha"/>
<feOffset/>
<feGaussianBlur stdDeviation="5"/>
<feComposite in2="hardAlpha" operator="out"/>
<feColorMatrix type="matrix" values="0 0 0 0 0.116667 0 0 0 0 0.116667 0 0 0 0 0.116667 0 0 0 0.2 0"/>
<feBlend mode="normal" in2="BackgroundImageFix" result="effect1_dropShadow_363_1274"/>
<feBlend mode="normal" in="SourceGraphic" in2="effect1_dropShadow_363_1274" result="shape"/>
</filter>
<filter id="filter2_d_363_1274" x="356" y="201" width="105.891" height="67.0332" filterUnits="userSpaceOnUse" color-interpolation-filters="sRGB">
<feFlood flood-opacity="0" result="BackgroundImageFix"/>
<feColorMatrix in="SourceAlpha" type="matrix" values="0 0 0 0 0 0 0 0 0 0 0 0 0 0 0 0 0 0 127 0" result="hardAlpha"/>
<feOffset dy="2"/>
<feGaussianBlur stdDeviation="2"/>
<feComposite in2="hardAlpha" operator="out"/>
<feColorMatrix type="matrix" values="0 0 0 0 0 0 0 0 0 0 0 0 0 0 0 0 0 0 0.25 0"/>
<feBlend mode="normal" in2="BackgroundImageFix" result="effect1_dropShadow_363_1274"/>
<feBlend mode="normal" in="SourceGraphic" in2="effect1_dropShadow_363_1274" result="shape"/>
</filter>
<linearGradient id="paint0_linear_363_1274" x1="57.6562" y1="418.826" x2="198.024" y2="418.834" gradientUnits="userSpaceOnUse">
<stop stop-color="white"/>
<stop offset="1"/>
</linearGradient>
<linearGradient id="paint1_linear_363_1274" x1="127.886" y1="396.143" x2="250.615" y2="396.15" gradientUnits="userSpaceOnUse">
<stop stop-color="white"/>
<stop offset="1"/>
</linearGradient>
<linearGradient id="paint2_linear_363_1274" x1="-0.00789935" y1="396.182" x2="179.888" y2="396.192" gradientUnits="userSpaceOnUse">
<stop stop-color="white"/>
<stop offset="1"/>
</linearGradient>
<linearGradient id="paint3_linear_363_1274" x1="330.926" y1="396.085" x2="456.057" y2="396.092" gradientUnits="userSpaceOnUse">
<stop stop-color="white"/>
<stop offset="1"/>
</linearGradient>
<linearGradient id="paint4_linear_363_1274" x1="291.061" y1="418.771" x2="434.569" y2="418.779" gradientUnits="userSpaceOnUse">
<stop stop-color="white"/>
<stop offset="1"/>
</linearGradient>
<linearGradient id="paint5_linear_363_1274" x1="158.515" y1="418.836" x2="348.658" y2="418.847" gradientUnits="userSpaceOnUse">
<stop stop-color="white"/>
<stop offset="1"/>
</linearGradient>
<linearGradient id="paint6_linear_363_1274" x1="236.844" y1="449.929" x2="405.219" y2="449.938" gradientUnits="userSpaceOnUse">
<stop stop-color="white"/>
<stop offset="1"/>
</linearGradient>
<linearGradient id="paint7_linear_363_1274" x1="533.62" y1="396.033" x2="666.494" y2="396.04" gradientUnits="userSpaceOnUse">
<stop stop-color="white"/>
<stop offset="1"/>
</linearGradient>
<linearGradient id="paint8_linear_363_1274" x1="523.958" y1="418.833" x2="677.955" y2="418.842" gradientUnits="userSpaceOnUse">
<stop stop-color="white"/>
<stop offset="1"/>
</linearGradient>
<linearGradient id="paint9_linear_363_1274" x1="418.297" y1="418.908" x2="581.492" y2="418.918" gradientUnits="userSpaceOnUse">
<stop stop-color="white"/>
<stop offset="1"/>
</linearGradient>
<linearGradient id="paint10_linear_363_1274" x1="510.972" y1="449.789" x2="693.905" y2="449.799" gradientUnits="userSpaceOnUse">
<stop stop-color="white"/>
<stop offset="1"/>
</linearGradient>
<linearGradient id="paint11_linear_363_1274" x1="382.41" y1="449.897" x2="578.602" y2="449.908" gradientUnits="userSpaceOnUse">
<stop stop-color="white"/>
<stop offset="1"/>
</linearGradient>
<linearGradient id="paint12_linear_363_1274" x1="182.239" y1="378.669" x2="291.219" y2="378.675" gradientUnits="userSpaceOnUse">
<stop stop-color="white"/>
<stop offset="1"/>
</linearGradient>
<linearGradient id="paint13_linear_363_1274" x1="75.1236" y1="378.696" x2="228.217" y2="378.704" gradientUnits="userSpaceOnUse">
<stop stop-color="white"/>
<stop offset="1"/>
</linearGradient>
<linearGradient id="paint14_linear_363_1274" x1="75.1236" y1="378.696" x2="228.217" y2="378.704" gradientUnits="userSpaceOnUse">
<stop stop-color="white"/>
<stop offset="1"/>
</linearGradient>
<linearGradient id="paint15_linear_363_1274" x1="361.779" y1="378.632" x2="472.634" y2="378.638" gradientUnits="userSpaceOnUse">
<stop stop-color="white"/>
<stop offset="1"/>
</linearGradient>
<linearGradient id="paint16_linear_363_1274" x1="268.529" y1="378.661" x2="406.092" y2="378.668" gradientUnits="userSpaceOnUse">
<stop stop-color="white"/>
<stop offset="1"/>
</linearGradient>
<linearGradient id="paint17_linear_363_1274" x1="268.529" y1="378.661" x2="406.092" y2="378.668" gradientUnits="userSpaceOnUse">
<stop stop-color="white"/>
<stop offset="1"/>
</linearGradient>
<linearGradient id="paint18_linear_363_1274" x1="240.959" y1="396.128" x2="378.522" y2="396.135" gradientUnits="userSpaceOnUse">
<stop stop-color="white"/>
<stop offset="1"/>
</linearGradient>
<linearGradient id="paint19_linear_363_1274" x1="541.049" y1="378.597" x2="657.911" y2="378.604" gradientUnits="userSpaceOnUse">
<stop stop-color="white"/>
<stop offset="1"/>
</linearGradient>
<linearGradient id="paint20_linear_363_1274" x1="463.378" y1="378.626" x2="585.299" y2="378.633" gradientUnits="userSpaceOnUse">
<stop stop-color="white"/>
<stop offset="1"/>
</linearGradient>
<linearGradient id="paint21_linear_363_1274" x1="463.378" y1="378.626" x2="585.299" y2="378.633" gradientUnits="userSpaceOnUse">
<stop stop-color="white"/>
<stop offset="1"/>
</linearGradient>
<linearGradient id="paint22_linear_363_1274" x1="225.104" y1="364.94" x2="323.182" y2="364.946" gradientUnits="userSpaceOnUse">
<stop stop-color="white"/>
<stop offset="1"/>
</linearGradient>
<linearGradient id="paint23_linear_363_1274" x1="133.479" y1="364.959" x2="266.345" y2="364.967" gradientUnits="userSpaceOnUse">
<stop stop-color="white"/>
<stop offset="1"/>
</linearGradient>
<linearGradient id="paint24_linear_363_1274" x1="133.479" y1="364.959" x2="266.345" y2="364.967" gradientUnits="userSpaceOnUse">
<stop stop-color="white"/>
<stop offset="1"/>
</linearGradient>
<linearGradient id="paint25_linear_363_1274" x1="386.113" y1="364.915" x2="485.689" y2="364.921" gradientUnits="userSpaceOnUse">
<stop stop-color="white"/>
<stop offset="1"/>
</linearGradient>
<linearGradient id="paint26_linear_363_1274" x1="546.917" y1="364.894" x2="651.234" y2="364.9" gradientUnits="userSpaceOnUse">
<stop stop-color="white"/>
<stop offset="1"/>
</linearGradient>
<linearGradient id="paint27_linear_363_1274" x1="478.375" y1="364.915" x2="586.607" y2="364.921" gradientUnits="userSpaceOnUse">
<stop stop-color="white"/>
<stop offset="1"/>
</linearGradient>
<linearGradient id="paint28_linear_363_1274" x1="478.375" y1="364.915" x2="586.607" y2="364.921" gradientUnits="userSpaceOnUse">
<stop stop-color="white"/>
<stop offset="1"/>
</linearGradient>
<linearGradient id="paint29_linear_363_1274" x1="260.142" y1="353.76" x2="349.229" y2="353.765" gradientUnits="userSpaceOnUse">
<stop stop-color="white"/>
<stop offset="1"/>
</linearGradient>
<linearGradient id="paint30_linear_363_1274" x1="180.113" y1="353.772" x2="297.499" y2="353.778" gradientUnits="userSpaceOnUse">
<stop stop-color="white"/>
<stop offset="1"/>
</linearGradient>
<linearGradient id="paint31_linear_363_1274" x1="180.113" y1="353.772" x2="297.499" y2="353.778" gradientUnits="userSpaceOnUse">
<stop stop-color="white"/>
<stop offset="1"/>
</linearGradient>
<linearGradient id="paint32_linear_363_1274" x1="406.008" y1="353.751" x2="496.325" y2="353.756" gradientUnits="userSpaceOnUse">
<stop stop-color="white"/>
<stop offset="1"/>
</linearGradient>
<linearGradient id="paint33_linear_363_1274" x1="334.644" y1="353.758" x2="442.024" y2="353.764" gradientUnits="userSpaceOnUse">
<stop stop-color="white"/>
<stop offset="1"/>
</linearGradient>
<linearGradient id="paint34_linear_363_1274" x1="334.644" y1="353.758" x2="442.024" y2="353.764" gradientUnits="userSpaceOnUse">
<stop stop-color="white"/>
<stop offset="1"/>
</linearGradient>
<linearGradient id="paint35_linear_363_1274" x1="315.493" y1="365.168" x2="422.873" y2="365.174" gradientUnits="userSpaceOnUse">
<stop stop-color="white"/>
<stop offset="1"/>
</linearGradient>
<linearGradient id="paint36_linear_363_1274" x1="551.7" y1="353.737" x2="645.89" y2="353.742" gradientUnits="userSpaceOnUse">
<stop stop-color="white"/>
<stop offset="1"/>
</linearGradient>
<linearGradient id="paint37_linear_363_1274" x1="490.369" y1="353.749" x2="587.674" y2="353.754" gradientUnits="userSpaceOnUse">
<stop stop-color="white"/>
<stop offset="1"/>
</linearGradient>
<linearGradient id="paint38_linear_363_1274" x1="490.369" y1="353.749" x2="587.674" y2="353.754" gradientUnits="userSpaceOnUse">
<stop stop-color="white"/>
<stop offset="1"/>
</linearGradient>
<linearGradient id="paint39_linear_363_1274" x1="288.999" y1="344.58" x2="370.636" y2="344.584" gradientUnits="userSpaceOnUse">
<stop stop-color="white"/>
<stop offset="1"/>
</linearGradient>
<linearGradient id="paint40_linear_363_1274" x1="217.843" y1="344.588" x2="323.166" y2="344.593" gradientUnits="userSpaceOnUse">
<stop stop-color="white"/>
<stop offset="1"/>
</linearGradient>
<linearGradient id="paint41_linear_363_1274" x1="217.843" y1="344.588" x2="323.166" y2="344.593" gradientUnits="userSpaceOnUse">
<stop stop-color="white"/>
<stop offset="1"/>
</linearGradient>
<linearGradient id="paint42_linear_363_1274" x1="422.4" y1="344.57" x2="505.068" y2="344.575" gradientUnits="userSpaceOnUse">
<stop stop-color="white"/>
<stop offset="1"/>
</linearGradient>
<linearGradient id="paint43_linear_363_1274" x1="358.409" y1="344.578" x2="455.335" y2="344.583" gradientUnits="userSpaceOnUse">
<stop stop-color="white"/>
<stop offset="1"/>
</linearGradient>
<linearGradient id="paint44_linear_363_1274" x1="555.65" y1="344.566" x2="641.571" y2="344.571" gradientUnits="userSpaceOnUse">
<stop stop-color="white"/>
<stop offset="1"/>
</linearGradient>
<linearGradient id="paint45_linear_363_1274" x1="500.075" y1="344.574" x2="588.552" y2="344.579" gradientUnits="userSpaceOnUse">
<stop stop-color="white"/>
<stop offset="1"/>
</linearGradient>
<linearGradient id="paint46_linear_363_1274" x1="500.075" y1="344.574" x2="588.552" y2="344.579" gradientUnits="userSpaceOnUse">
<stop stop-color="white"/>
<stop offset="1"/>
</linearGradient>
<linearGradient id="paint47_linear_363_1274" x1="313.454" y1="336.808" x2="388.757" y2="336.812" gradientUnits="userSpaceOnUse">
<stop stop-color="white"/>
<stop offset="1"/>
</linearGradient>
<linearGradient id="paint48_linear_363_1274" x1="249.661" y1="336.81" x2="344.909" y2="336.815" gradientUnits="userSpaceOnUse">
<stop stop-color="white"/>
<stop offset="1"/>
</linearGradient>
<linearGradient id="paint49_linear_363_1274" x1="249.661" y1="336.81" x2="344.909" y2="336.815" gradientUnits="userSpaceOnUse">
<stop stop-color="white"/>
<stop offset="1"/>
</linearGradient>
<linearGradient id="paint50_linear_363_1274" x1="436.287" y1="336.804" x2="512.468" y2="336.808" gradientUnits="userSpaceOnUse">
<stop stop-color="white"/>
<stop offset="1"/>
</linearGradient>
<linearGradient id="paint51_linear_363_1274" x1="378.45" y1="336.812" x2="466.617" y2="336.817" gradientUnits="userSpaceOnUse">
<stop stop-color="white"/>
<stop offset="1"/>
</linearGradient>
<linearGradient id="paint52_linear_363_1274" x1="378.45" y1="336.812" x2="466.617" y2="336.817" gradientUnits="userSpaceOnUse">
<stop stop-color="white"/>
<stop offset="1"/>
</linearGradient>
<linearGradient id="paint53_linear_363_1274" x1="558.999" y1="336.806" x2="637.933" y2="336.81" gradientUnits="userSpaceOnUse">
<stop stop-color="white"/>
<stop offset="1"/>
</linearGradient>
<linearGradient id="paint54_linear_363_1274" x1="508.26" y1="336.808" x2="589.294" y2="336.812" gradientUnits="userSpaceOnUse">
<stop stop-color="white"/>
<stop offset="1"/>
</linearGradient>
<linearGradient id="paint55_linear_363_1274" x1="508.26" y1="336.808" x2="589.294" y2="336.812" gradientUnits="userSpaceOnUse">
<stop stop-color="white"/>
<stop offset="1"/>
</linearGradient>
<linearGradient id="paint56_linear_363_1274" x1="334.208" y1="330.214" x2="404.134" y2="330.218" gradientUnits="userSpaceOnUse">
<stop stop-color="white"/>
<stop offset="1"/>
</linearGradient>
<linearGradient id="paint57_linear_363_1274" x1="276.56" y1="330.218" x2="363.367" y2="330.223" gradientUnits="userSpaceOnUse">
<stop stop-color="white"/>
<stop offset="1"/>
</linearGradient>
<linearGradient id="paint58_linear_363_1274" x1="276.56" y1="330.218" x2="363.367" y2="330.223" gradientUnits="userSpaceOnUse">
<stop stop-color="white"/>
<stop offset="1"/>
</linearGradient>
<linearGradient id="paint59_linear_363_1274" x1="448.073" y1="330.214" x2="518.747" y2="330.218" gradientUnits="userSpaceOnUse">
<stop stop-color="white"/>
<stop offset="1"/>
</linearGradient>
<linearGradient id="paint60_linear_363_1274" x1="395.391" y1="330.218" x2="476.192" y2="330.223" gradientUnits="userSpaceOnUse">
<stop stop-color="white"/>
<stop offset="1"/>
</linearGradient>
<linearGradient id="paint61_linear_363_1274" x1="395.391" y1="330.218" x2="476.192" y2="330.223" gradientUnits="userSpaceOnUse">
<stop stop-color="white"/>
<stop offset="1"/>
</linearGradient>
<linearGradient id="paint62_linear_363_1274" x1="561.838" y1="330.216" x2="634.853" y2="330.221" gradientUnits="userSpaceOnUse">
<stop stop-color="white"/>
<stop offset="1"/>
</linearGradient>
<linearGradient id="paint63_linear_363_1274" x1="515.179" y1="330.22" x2="589.932" y2="330.224" gradientUnits="userSpaceOnUse">
<stop stop-color="white"/>
<stop offset="1"/>
</linearGradient>
<linearGradient id="paint64_linear_363_1274" x1="515.179" y1="330.22" x2="589.932" y2="330.224" gradientUnits="userSpaceOnUse">
<stop stop-color="white"/>
<stop offset="1"/>
</linearGradient>
<linearGradient id="paint65_linear_363_1274" x1="734.083" y1="395.918" x2="886.376" y2="395.927" gradientUnits="userSpaceOnUse">
<stop stop-color="white"/>
<stop offset="1"/>
</linearGradient>
<linearGradient id="paint66_linear_363_1274" x1="661.093" y1="395.966" x2="785.81" y2="395.973" gradientUnits="userSpaceOnUse">
<stop stop-color="white"/>
<stop offset="1"/>
</linearGradient>
<linearGradient id="paint67_linear_363_1274" x1="754.499" y1="418.676" x2="934.55" y2="418.686" gradientUnits="userSpaceOnUse">
<stop stop-color="white"/>
<stop offset="1"/>
</linearGradient>
<linearGradient id="paint68_linear_363_1274" x1="670.702" y1="418.745" x2="813.97" y2="418.753" gradientUnits="userSpaceOnUse">
<stop stop-color="white"/>
<stop offset="1"/>
</linearGradient>
<linearGradient id="paint69_linear_363_1274" x1="781.917" y1="449.546" x2="1001.56" y2="449.558" gradientUnits="userSpaceOnUse">
<stop stop-color="white"/>
<stop offset="1"/>
</linearGradient>
<linearGradient id="paint70_linear_363_1274" x1="683.685" y1="449.654" x2="851.801" y2="449.663" gradientUnits="userSpaceOnUse">
<stop stop-color="white"/>
<stop offset="1"/>
</linearGradient>
<linearGradient id="paint71_linear_363_1274" x1="718.38" y1="378.519" x2="850.264" y2="378.527" gradientUnits="userSpaceOnUse">
<stop stop-color="white"/>
<stop offset="1"/>
</linearGradient>
<linearGradient id="paint72_linear_363_1274" x1="653.729" y1="378.55" x2="764.146" y2="378.556" gradientUnits="userSpaceOnUse">
<stop stop-color="white"/>
<stop offset="1"/>
</linearGradient>
<linearGradient id="paint73_linear_363_1274" x1="653.729" y1="378.55" x2="764.146" y2="378.556" gradientUnits="userSpaceOnUse">
<stop stop-color="white"/>
<stop offset="1"/>
</linearGradient>
<linearGradient id="paint74_linear_363_1274" x1="705.992" y1="364.835" x2="822.191" y2="364.842" gradientUnits="userSpaceOnUse">
<stop stop-color="white"/>
<stop offset="1"/>
</linearGradient>
<linearGradient id="paint75_linear_363_1274" x1="647.923" y1="364.857" x2="747.051" y2="364.862" gradientUnits="userSpaceOnUse">
<stop stop-color="white"/>
<stop offset="1"/>
</linearGradient>
<linearGradient id="paint76_linear_363_1274" x1="647.923" y1="364.857" x2="747.051" y2="364.862" gradientUnits="userSpaceOnUse">
<stop stop-color="white"/>
<stop offset="1"/>
</linearGradient>
<linearGradient id="paint77_linear_363_1274" x1="695.855" y1="353.692" x2="799.733" y2="353.698" gradientUnits="userSpaceOnUse">
<stop stop-color="white"/>
<stop offset="1"/>
</linearGradient>
<linearGradient id="paint78_linear_363_1274" x1="643.234" y1="353.708" x2="733.113" y2="353.713" gradientUnits="userSpaceOnUse">
<stop stop-color="white"/>
<stop offset="1"/>
</linearGradient>
<linearGradient id="paint79_linear_363_1274" x1="643.234" y1="353.708" x2="733.113" y2="353.713" gradientUnits="userSpaceOnUse">
<stop stop-color="white"/>
<stop offset="1"/>
</linearGradient>
<linearGradient id="paint80_linear_363_1274" x1="687.511" y1="344.533" x2="781.563" y2="344.539" gradientUnits="userSpaceOnUse">
<stop stop-color="white"/>
<stop offset="1"/>
</linearGradient>
<linearGradient id="paint81_linear_363_1274" x1="639.345" y1="344.543" x2="721.592" y2="344.547" gradientUnits="userSpaceOnUse">
<stop stop-color="white"/>
<stop offset="1"/>
</linearGradient>
<linearGradient id="paint82_linear_363_1274" x1="639.345" y1="344.543" x2="721.592" y2="344.547" gradientUnits="userSpaceOnUse">
<stop stop-color="white"/>
<stop offset="1"/>
</linearGradient>
<linearGradient id="paint83_linear_363_1274" x1="680.43" y1="336.777" x2="766.231" y2="336.782" gradientUnits="userSpaceOnUse">
<stop stop-color="white"/>
<stop offset="1"/>
</linearGradient>
<linearGradient id="paint84_linear_363_1274" x1="636.046" y1="336.786" x2="711.823" y2="336.791" gradientUnits="userSpaceOnUse">
<stop stop-color="white"/>
<stop offset="1"/>
</linearGradient>
<linearGradient id="paint85_linear_363_1274" x1="636.046" y1="336.786" x2="711.823" y2="336.791" gradientUnits="userSpaceOnUse">
<stop stop-color="white"/>
<stop offset="1"/>
</linearGradient>
<linearGradient id="paint86_linear_363_1274" x1="674.425" y1="330.199" x2="753.264" y2="330.203" gradientUnits="userSpaceOnUse">
<stop stop-color="white"/>
<stop offset="1"/>
</linearGradient>
<linearGradient id="paint87_linear_363_1274" x1="633.252" y1="330.203" x2="703.54" y2="330.207" gradientUnits="userSpaceOnUse">
<stop stop-color="white"/>
<stop offset="1"/>
</linearGradient>
<linearGradient id="paint88_linear_363_1274" x1="633.252" y1="330.203" x2="703.54" y2="330.207" gradientUnits="userSpaceOnUse">
<stop stop-color="white"/>
<stop offset="1"/>
</linearGradient>
<linearGradient id="paint89_linear_363_1274" x1="936.038" y1="395.865" x2="1107.91" y2="395.875" gradientUnits="userSpaceOnUse">
<stop stop-color="white"/>
<stop offset="1"/>
</linearGradient>
<linearGradient id="paint90_linear_363_1274" x1="863.952" y1="395.91" x2="985.881" y2="395.917" gradientUnits="userSpaceOnUse">
<stop stop-color="white"/>
<stop offset="1"/>
</linearGradient>
<linearGradient id="paint91_linear_363_1274" x1="904.401" y1="418.66" x2="1043.97" y2="418.668" gradientUnits="userSpaceOnUse">
<stop stop-color="white"/>
<stop offset="1"/>
</linearGradient>
<linearGradient id="paint92_linear_363_1274" x1="897.071" y1="378.484" x2="1044.11" y2="378.492" gradientUnits="userSpaceOnUse">
<stop stop-color="white"/>
<stop offset="1"/>
</linearGradient>
<linearGradient id="paint93_linear_363_1274" x1="832.937" y1="378.515" x2="941.177" y2="378.521" gradientUnits="userSpaceOnUse">
<stop stop-color="white"/>
<stop offset="1"/>
</linearGradient>
<linearGradient id="paint94_linear_363_1274" x1="866.321" y1="364.816" x2="994.506" y2="364.823" gradientUnits="userSpaceOnUse">
<stop stop-color="white"/>
<stop offset="1"/>
</linearGradient>
<linearGradient id="paint95_linear_363_1274" x1="808.501" y1="364.835" x2="905.892" y2="364.841" gradientUnits="userSpaceOnUse">
<stop stop-color="white"/>
<stop offset="1"/>
</linearGradient>
<linearGradient id="paint96_linear_363_1274" x1="808.501" y1="364.835" x2="905.892" y2="364.841" gradientUnits="userSpaceOnUse">
<stop stop-color="white"/>
<stop offset="1"/>
</linearGradient>
<linearGradient id="paint97_linear_363_1274" x1="841.172" y1="353.679" x2="954.824" y2="353.685" gradientUnits="userSpaceOnUse">
<stop stop-color="white"/>
<stop offset="1"/>
</linearGradient>
<linearGradient id="paint98_linear_363_1274" x1="788.583" y1="353.692" x2="877.042" y2="353.697" gradientUnits="userSpaceOnUse">
<stop stop-color="white"/>
<stop offset="1"/>
</linearGradient>
<linearGradient id="paint99_linear_363_1274" x1="788.583" y1="353.692" x2="877.042" y2="353.697" gradientUnits="userSpaceOnUse">
<stop stop-color="white"/>
<stop offset="1"/>
</linearGradient>
<linearGradient id="paint100_linear_363_1274" x1="820.437" y1="344.524" x2="922.706" y2="344.529" gradientUnits="userSpaceOnUse">
<stop stop-color="white"/>
<stop offset="1"/>
</linearGradient>
<linearGradient id="paint101_linear_363_1274" x1="772.21" y1="344.531" x2="853.261" y2="344.536" gradientUnits="userSpaceOnUse">
<stop stop-color="white"/>
<stop offset="1"/>
</linearGradient>
<linearGradient id="paint102_linear_363_1274" x1="772.21" y1="344.531" x2="853.261" y2="344.536" gradientUnits="userSpaceOnUse">
<stop stop-color="white"/>
<stop offset="1"/>
</linearGradient>
<linearGradient id="paint103_linear_363_1274" x1="802.875" y1="336.777" x2="895.602" y2="336.782" gradientUnits="userSpaceOnUse">
<stop stop-color="white"/>
<stop offset="1"/>
</linearGradient>
<linearGradient id="paint104_linear_363_1274" x1="787.956" y1="330.201" x2="872.673" y2="330.206" gradientUnits="userSpaceOnUse">
<stop stop-color="white"/>
<stop offset="1"/>
</linearGradient>
<linearGradient id="paint105_linear_363_1274" x1="58.6562" y1="56.174" x2="199.024" y2="56.1661" gradientUnits="userSpaceOnUse">
<stop stop-color="white"/>
<stop offset="1"/>
</linearGradient>
<linearGradient id="paint106_linear_363_1274" x1="128.886" y1="78.8567" x2="251.615" y2="78.8498" gradientUnits="userSpaceOnUse">
<stop stop-color="white"/>
<stop offset="1"/>
</linearGradient>
<linearGradient id="paint107_linear_363_1274" x1="0.992101" y1="78.8182" x2="180.888" y2="78.8081" gradientUnits="userSpaceOnUse">
<stop stop-color="white"/>
<stop offset="1"/>
</linearGradient>
<linearGradient id="paint108_linear_363_1274" x1="331.926" y1="78.9149" x2="457.057" y2="78.9078" gradientUnits="userSpaceOnUse">
<stop stop-color="white"/>
<stop offset="1"/>
</linearGradient>
<linearGradient id="paint109_linear_363_1274" x1="292.061" y1="56.2291" x2="435.569" y2="56.221" gradientUnits="userSpaceOnUse">
<stop stop-color="white"/>
<stop offset="1"/>
</linearGradient>
<linearGradient id="paint110_linear_363_1274" x1="159.515" y1="56.1637" x2="349.658" y2="56.153" gradientUnits="userSpaceOnUse">
<stop stop-color="white"/>
<stop offset="1"/>
</linearGradient>
<linearGradient id="paint111_linear_363_1274" x1="237.844" y1="25.0715" x2="406.219" y2="25.062" gradientUnits="userSpaceOnUse">
<stop stop-color="white"/>
<stop offset="1"/>
</linearGradient>
<linearGradient id="paint112_linear_363_1274" x1="534.62" y1="78.9674" x2="667.494" y2="78.9599" gradientUnits="userSpaceOnUse">
<stop stop-color="white"/>
<stop offset="1"/>
</linearGradient>
<linearGradient id="paint113_linear_363_1274" x1="524.958" y1="56.1667" x2="678.955" y2="56.158" gradientUnits="userSpaceOnUse">
<stop stop-color="white"/>
<stop offset="1"/>
</linearGradient>
<linearGradient id="paint114_linear_363_1274" x1="419.297" y1="56.0916" x2="582.492" y2="56.0824" gradientUnits="userSpaceOnUse">
<stop stop-color="white"/>
<stop offset="1"/>
</linearGradient>
<linearGradient id="paint115_linear_363_1274" x1="511.972" y1="25.2113" x2="694.905" y2="25.201" gradientUnits="userSpaceOnUse">
<stop stop-color="white"/>
<stop offset="1"/>
</linearGradient>
<linearGradient id="paint116_linear_363_1274" x1="383.41" y1="25.1034" x2="579.602" y2="25.0924" gradientUnits="userSpaceOnUse">
<stop stop-color="white"/>
<stop offset="1"/>
</linearGradient>
<linearGradient id="paint117_linear_363_1274" x1="183.239" y1="96.3312" x2="292.219" y2="96.3251" gradientUnits="userSpaceOnUse">
<stop stop-color="white"/>
<stop offset="1"/>
</linearGradient>
<linearGradient id="paint118_linear_363_1274" x1="76.1236" y1="96.3043" x2="229.217" y2="96.2957" gradientUnits="userSpaceOnUse">
<stop stop-color="white"/>
<stop offset="1"/>
</linearGradient>
<linearGradient id="paint119_linear_363_1274" x1="76.1236" y1="96.3043" x2="229.217" y2="96.2957" gradientUnits="userSpaceOnUse">
<stop stop-color="white"/>
<stop offset="1"/>
</linearGradient>
<linearGradient id="paint120_linear_363_1274" x1="362.779" y1="96.3681" x2="473.634" y2="96.3619" gradientUnits="userSpaceOnUse">
<stop stop-color="white"/>
<stop offset="1"/>
</linearGradient>
<linearGradient id="paint121_linear_363_1274" x1="269.529" y1="96.3393" x2="407.092" y2="96.3315" gradientUnits="userSpaceOnUse">
<stop stop-color="white"/>
<stop offset="1"/>
</linearGradient>
<linearGradient id="paint122_linear_363_1274" x1="269.529" y1="96.3393" x2="407.092" y2="96.3315" gradientUnits="userSpaceOnUse">
<stop stop-color="white"/>
<stop offset="1"/>
</linearGradient>
<linearGradient id="paint123_linear_363_1274" x1="241.959" y1="78.8725" x2="379.522" y2="78.8647" gradientUnits="userSpaceOnUse">
<stop stop-color="white"/>
<stop offset="1"/>
</linearGradient>
<linearGradient id="paint124_linear_363_1274" x1="542.049" y1="96.403" x2="658.911" y2="96.3965" gradientUnits="userSpaceOnUse">
<stop stop-color="white"/>
<stop offset="1"/>
</linearGradient>
<linearGradient id="paint125_linear_363_1274" x1="464.378" y1="96.3741" x2="586.299" y2="96.3672" gradientUnits="userSpaceOnUse">
<stop stop-color="white"/>
<stop offset="1"/>
</linearGradient>
<linearGradient id="paint126_linear_363_1274" x1="464.378" y1="96.3741" x2="586.299" y2="96.3672" gradientUnits="userSpaceOnUse">
<stop stop-color="white"/>
<stop offset="1"/>
</linearGradient>
<linearGradient id="paint127_linear_363_1274" x1="226.104" y1="110.06" x2="324.182" y2="110.054" gradientUnits="userSpaceOnUse">
<stop stop-color="white"/>
<stop offset="1"/>
</linearGradient>
<linearGradient id="paint128_linear_363_1274" x1="134.479" y1="110.041" x2="267.345" y2="110.033" gradientUnits="userSpaceOnUse">
<stop stop-color="white"/>
<stop offset="1"/>
</linearGradient>
<linearGradient id="paint129_linear_363_1274" x1="134.479" y1="110.041" x2="267.345" y2="110.033" gradientUnits="userSpaceOnUse">
<stop stop-color="white"/>
<stop offset="1"/>
</linearGradient>
<linearGradient id="paint130_linear_363_1274" x1="387.113" y1="110.085" x2="486.689" y2="110.079" gradientUnits="userSpaceOnUse">
<stop stop-color="white"/>
<stop offset="1"/>
</linearGradient>
<linearGradient id="paint131_linear_363_1274" x1="547.917" y1="110.106" x2="652.234" y2="110.1" gradientUnits="userSpaceOnUse">
<stop stop-color="white"/>
<stop offset="1"/>
</linearGradient>
<linearGradient id="paint132_linear_363_1274" x1="479.375" y1="110.085" x2="587.607" y2="110.079" gradientUnits="userSpaceOnUse">
<stop stop-color="white"/>
<stop offset="1"/>
</linearGradient>
<linearGradient id="paint133_linear_363_1274" x1="479.375" y1="110.085" x2="587.607" y2="110.079" gradientUnits="userSpaceOnUse">
<stop stop-color="white"/>
<stop offset="1"/>
</linearGradient>
<linearGradient id="paint134_linear_363_1274" x1="261.142" y1="121.24" x2="350.229" y2="121.235" gradientUnits="userSpaceOnUse">
<stop stop-color="white"/>
<stop offset="1"/>
</linearGradient>
<linearGradient id="paint135_linear_363_1274" x1="181.113" y1="121.228" x2="298.499" y2="121.222" gradientUnits="userSpaceOnUse">
<stop stop-color="white"/>
<stop offset="1"/>
</linearGradient>
<linearGradient id="paint136_linear_363_1274" x1="181.113" y1="121.228" x2="298.499" y2="121.222" gradientUnits="userSpaceOnUse">
<stop stop-color="white"/>
<stop offset="1"/>
</linearGradient>
<linearGradient id="paint137_linear_363_1274" x1="407.008" y1="121.249" x2="497.325" y2="121.244" gradientUnits="userSpaceOnUse">
<stop stop-color="white"/>
<stop offset="1"/>
</linearGradient>
<linearGradient id="paint138_linear_363_1274" x1="335.644" y1="121.242" x2="443.024" y2="121.236" gradientUnits="userSpaceOnUse">
<stop stop-color="white"/>
<stop offset="1"/>
</linearGradient>
<linearGradient id="paint139_linear_363_1274" x1="335.644" y1="121.242" x2="443.024" y2="121.236" gradientUnits="userSpaceOnUse">
<stop stop-color="white"/>
<stop offset="1"/>
</linearGradient>
<linearGradient id="paint140_linear_363_1274" x1="316.493" y1="109.832" x2="423.873" y2="109.826" gradientUnits="userSpaceOnUse">
<stop stop-color="white"/>
<stop offset="1"/>
</linearGradient>
<linearGradient id="paint141_linear_363_1274" x1="552.7" y1="121.263" x2="646.89" y2="121.258" gradientUnits="userSpaceOnUse">
<stop stop-color="white"/>
<stop offset="1"/>
</linearGradient>
<linearGradient id="paint142_linear_363_1274" x1="491.369" y1="121.251" x2="588.674" y2="121.246" gradientUnits="userSpaceOnUse">
<stop stop-color="white"/>
<stop offset="1"/>
</linearGradient>
<linearGradient id="paint143_linear_363_1274" x1="491.369" y1="121.251" x2="588.674" y2="121.246" gradientUnits="userSpaceOnUse">
<stop stop-color="white"/>
<stop offset="1"/>
</linearGradient>
<linearGradient id="paint144_linear_363_1274" x1="289.999" y1="130.42" x2="371.636" y2="130.416" gradientUnits="userSpaceOnUse">
<stop stop-color="white"/>
<stop offset="1"/>
</linearGradient>
<linearGradient id="paint145_linear_363_1274" x1="218.843" y1="130.412" x2="324.166" y2="130.407" gradientUnits="userSpaceOnUse">
<stop stop-color="white"/>
<stop offset="1"/>
</linearGradient>
<linearGradient id="paint146_linear_363_1274" x1="218.843" y1="130.412" x2="324.166" y2="130.407" gradientUnits="userSpaceOnUse">
<stop stop-color="white"/>
<stop offset="1"/>
</linearGradient>
<linearGradient id="paint147_linear_363_1274" x1="423.4" y1="130.43" x2="506.068" y2="130.425" gradientUnits="userSpaceOnUse">
<stop stop-color="white"/>
<stop offset="1"/>
</linearGradient>
<linearGradient id="paint148_linear_363_1274" x1="359.409" y1="130.422" x2="456.335" y2="130.417" gradientUnits="userSpaceOnUse">
<stop stop-color="white"/>
<stop offset="1"/>
</linearGradient>
<linearGradient id="paint149_linear_363_1274" x1="556.65" y1="130.434" x2="642.571" y2="130.429" gradientUnits="userSpaceOnUse">
<stop stop-color="white"/>
<stop offset="1"/>
</linearGradient>
<linearGradient id="paint150_linear_363_1274" x1="501.075" y1="130.426" x2="589.552" y2="130.421" gradientUnits="userSpaceOnUse">
<stop stop-color="white"/>
<stop offset="1"/>
</linearGradient>
<linearGradient id="paint151_linear_363_1274" x1="501.075" y1="130.426" x2="589.552" y2="130.421" gradientUnits="userSpaceOnUse">
<stop stop-color="white"/>
<stop offset="1"/>
</linearGradient>
<linearGradient id="paint152_linear_363_1274" x1="314.454" y1="138.192" x2="389.757" y2="138.188" gradientUnits="userSpaceOnUse">
<stop stop-color="white"/>
<stop offset="1"/>
</linearGradient>
<linearGradient id="paint153_linear_363_1274" x1="250.661" y1="138.19" x2="345.909" y2="138.185" gradientUnits="userSpaceOnUse">
<stop stop-color="white"/>
<stop offset="1"/>
</linearGradient>
<linearGradient id="paint154_linear_363_1274" x1="250.661" y1="138.19" x2="345.909" y2="138.185" gradientUnits="userSpaceOnUse">
<stop stop-color="white"/>
<stop offset="1"/>
</linearGradient>
<linearGradient id="paint155_linear_363_1274" x1="437.287" y1="138.196" x2="513.468" y2="138.192" gradientUnits="userSpaceOnUse">
<stop stop-color="white"/>
<stop offset="1"/>
</linearGradient>
<linearGradient id="paint156_linear_363_1274" x1="379.45" y1="138.188" x2="467.617" y2="138.183" gradientUnits="userSpaceOnUse">
<stop stop-color="white"/>
<stop offset="1"/>
</linearGradient>
<linearGradient id="paint157_linear_363_1274" x1="379.45" y1="138.188" x2="467.617" y2="138.183" gradientUnits="userSpaceOnUse">
<stop stop-color="white"/>
<stop offset="1"/>
</linearGradient>
<linearGradient id="paint158_linear_363_1274" x1="559.999" y1="138.194" x2="638.933" y2="138.19" gradientUnits="userSpaceOnUse">
<stop stop-color="white"/>
<stop offset="1"/>
</linearGradient>
<linearGradient id="paint159_linear_363_1274" x1="509.26" y1="138.192" x2="590.294" y2="138.188" gradientUnits="userSpaceOnUse">
<stop stop-color="white"/>
<stop offset="1"/>
</linearGradient>
<linearGradient id="paint160_linear_363_1274" x1="509.26" y1="138.192" x2="590.294" y2="138.188" gradientUnits="userSpaceOnUse">
<stop stop-color="white"/>
<stop offset="1"/>
</linearGradient>
<linearGradient id="paint161_linear_363_1274" x1="335.208" y1="144.786" x2="405.134" y2="144.782" gradientUnits="userSpaceOnUse">
<stop stop-color="white"/>
<stop offset="1"/>
</linearGradient>
<linearGradient id="paint162_linear_363_1274" x1="277.56" y1="144.782" x2="364.367" y2="144.777" gradientUnits="userSpaceOnUse">
<stop stop-color="white"/>
<stop offset="1"/>
</linearGradient>
<linearGradient id="paint163_linear_363_1274" x1="277.56" y1="144.782" x2="364.367" y2="144.777" gradientUnits="userSpaceOnUse">
<stop stop-color="white"/>
<stop offset="1"/>
</linearGradient>
<linearGradient id="paint164_linear_363_1274" x1="449.073" y1="144.786" x2="519.747" y2="144.782" gradientUnits="userSpaceOnUse">
<stop stop-color="white"/>
<stop offset="1"/>
</linearGradient>
<linearGradient id="paint165_linear_363_1274" x1="396.391" y1="144.782" x2="477.192" y2="144.777" gradientUnits="userSpaceOnUse">
<stop stop-color="white"/>
<stop offset="1"/>
</linearGradient>
<linearGradient id="paint166_linear_363_1274" x1="396.391" y1="144.782" x2="477.192" y2="144.777" gradientUnits="userSpaceOnUse">
<stop stop-color="white"/>
<stop offset="1"/>
</linearGradient>
<linearGradient id="paint167_linear_363_1274" x1="562.838" y1="144.784" x2="635.853" y2="144.779" gradientUnits="userSpaceOnUse">
<stop stop-color="white"/>
<stop offset="1"/>
</linearGradient>
<linearGradient id="paint168_linear_363_1274" x1="516.179" y1="144.78" x2="590.932" y2="144.776" gradientUnits="userSpaceOnUse">
<stop stop-color="white"/>
<stop offset="1"/>
</linearGradient>
<linearGradient id="paint169_linear_363_1274" x1="516.179" y1="144.78" x2="590.932" y2="144.776" gradientUnits="userSpaceOnUse">
<stop stop-color="white"/>
<stop offset="1"/>
</linearGradient>
<linearGradient id="paint170_linear_363_1274" x1="735.083" y1="79.082" x2="887.376" y2="79.0734" gradientUnits="userSpaceOnUse">
<stop stop-color="white"/>
<stop offset="1"/>
</linearGradient>
<linearGradient id="paint171_linear_363_1274" x1="662.093" y1="79.0339" x2="786.81" y2="79.0269" gradientUnits="userSpaceOnUse">
<stop stop-color="white"/>
<stop offset="1"/>
</linearGradient>
<linearGradient id="paint172_linear_363_1274" x1="755.499" y1="56.3241" x2="935.55" y2="56.314" gradientUnits="userSpaceOnUse">
<stop stop-color="white"/>
<stop offset="1"/>
</linearGradient>
<linearGradient id="paint173_linear_363_1274" x1="671.702" y1="56.2548" x2="814.97" y2="56.2467" gradientUnits="userSpaceOnUse">
<stop stop-color="white"/>
<stop offset="1"/>
</linearGradient>
<linearGradient id="paint174_linear_363_1274" x1="782.917" y1="25.4541" x2="1002.56" y2="25.4417" gradientUnits="userSpaceOnUse">
<stop stop-color="white"/>
<stop offset="1"/>
</linearGradient>
<linearGradient id="paint175_linear_363_1274" x1="684.685" y1="25.3462" x2="852.801" y2="25.3368" gradientUnits="userSpaceOnUse">
<stop stop-color="white"/>
<stop offset="1"/>
</linearGradient>
<linearGradient id="paint176_linear_363_1274" x1="719.38" y1="96.4808" x2="851.264" y2="96.4734" gradientUnits="userSpaceOnUse">
<stop stop-color="white"/>
<stop offset="1"/>
</linearGradient>
<linearGradient id="paint177_linear_363_1274" x1="654.729" y1="96.45" x2="765.146" y2="96.4438" gradientUnits="userSpaceOnUse">
<stop stop-color="white"/>
<stop offset="1"/>
</linearGradient>
<linearGradient id="paint178_linear_363_1274" x1="654.729" y1="96.45" x2="765.146" y2="96.4438" gradientUnits="userSpaceOnUse">
<stop stop-color="white"/>
<stop offset="1"/>
</linearGradient>
<linearGradient id="paint179_linear_363_1274" x1="706.992" y1="110.165" x2="823.191" y2="110.158" gradientUnits="userSpaceOnUse">
<stop stop-color="white"/>
<stop offset="1"/>
</linearGradient>
<linearGradient id="paint180_linear_363_1274" x1="648.923" y1="110.143" x2="748.051" y2="110.138" gradientUnits="userSpaceOnUse">
<stop stop-color="white"/>
<stop offset="1"/>
</linearGradient>
<linearGradient id="paint181_linear_363_1274" x1="648.923" y1="110.143" x2="748.051" y2="110.138" gradientUnits="userSpaceOnUse">
<stop stop-color="white"/>
<stop offset="1"/>
</linearGradient>
<linearGradient id="paint182_linear_363_1274" x1="696.855" y1="121.308" x2="800.733" y2="121.302" gradientUnits="userSpaceOnUse">
<stop stop-color="white"/>
<stop offset="1"/>
</linearGradient>
<linearGradient id="paint183_linear_363_1274" x1="644.234" y1="121.292" x2="734.113" y2="121.287" gradientUnits="userSpaceOnUse">
<stop stop-color="white"/>
<stop offset="1"/>
</linearGradient>
<linearGradient id="paint184_linear_363_1274" x1="644.234" y1="121.292" x2="734.113" y2="121.287" gradientUnits="userSpaceOnUse">
<stop stop-color="white"/>
<stop offset="1"/>
</linearGradient>
<linearGradient id="paint185_linear_363_1274" x1="688.511" y1="130.467" x2="782.563" y2="130.461" gradientUnits="userSpaceOnUse">
<stop stop-color="white"/>
<stop offset="1"/>
</linearGradient>
<linearGradient id="paint186_linear_363_1274" x1="640.345" y1="130.457" x2="722.592" y2="130.453" gradientUnits="userSpaceOnUse">
<stop stop-color="white"/>
<stop offset="1"/>
</linearGradient>
<linearGradient id="paint187_linear_363_1274" x1="640.345" y1="130.457" x2="722.592" y2="130.453" gradientUnits="userSpaceOnUse">
<stop stop-color="white"/>
<stop offset="1"/>
</linearGradient>
<linearGradient id="paint188_linear_363_1274" x1="681.43" y1="138.223" x2="767.231" y2="138.218" gradientUnits="userSpaceOnUse">
<stop stop-color="white"/>
<stop offset="1"/>
</linearGradient>
<linearGradient id="paint189_linear_363_1274" x1="637.046" y1="138.214" x2="712.823" y2="138.209" gradientUnits="userSpaceOnUse">
<stop stop-color="white"/>
<stop offset="1"/>
</linearGradient>
<linearGradient id="paint190_linear_363_1274" x1="637.046" y1="138.214" x2="712.823" y2="138.209" gradientUnits="userSpaceOnUse">
<stop stop-color="white"/>
<stop offset="1"/>
</linearGradient>
<linearGradient id="paint191_linear_363_1274" x1="675.425" y1="144.801" x2="754.264" y2="144.797" gradientUnits="userSpaceOnUse">
<stop stop-color="white"/>
<stop offset="1"/>
</linearGradient>
<linearGradient id="paint192_linear_363_1274" x1="634.252" y1="144.797" x2="704.54" y2="144.793" gradientUnits="userSpaceOnUse">
<stop stop-color="white"/>
<stop offset="1"/>
</linearGradient>
<linearGradient id="paint193_linear_363_1274" x1="634.252" y1="144.797" x2="704.54" y2="144.793" gradientUnits="userSpaceOnUse">
<stop stop-color="white"/>
<stop offset="1"/>
</linearGradient>
<linearGradient id="paint194_linear_363_1274" x1="937.038" y1="79.1346" x2="1108.91" y2="79.1249" gradientUnits="userSpaceOnUse">
<stop stop-color="white"/>
<stop offset="1"/>
</linearGradient>
<linearGradient id="paint195_linear_363_1274" x1="864.952" y1="79.0902" x2="986.881" y2="79.0834" gradientUnits="userSpaceOnUse">
<stop stop-color="white"/>
<stop offset="1"/>
</linearGradient>
<linearGradient id="paint196_linear_363_1274" x1="905.401" y1="56.3402" x2="1044.97" y2="56.3323" gradientUnits="userSpaceOnUse">
<stop stop-color="white"/>
<stop offset="1"/>
</linearGradient>
<linearGradient id="paint197_linear_363_1274" x1="898.071" y1="96.5158" x2="1045.11" y2="96.5075" gradientUnits="userSpaceOnUse">
<stop stop-color="white"/>
<stop offset="1"/>
</linearGradient>
<linearGradient id="paint198_linear_363_1274" x1="833.937" y1="96.485" x2="942.177" y2="96.4789" gradientUnits="userSpaceOnUse">
<stop stop-color="white"/>
<stop offset="1"/>
</linearGradient>
<linearGradient id="paint199_linear_363_1274" x1="867.321" y1="110.184" x2="995.506" y2="110.177" gradientUnits="userSpaceOnUse">
<stop stop-color="white"/>
<stop offset="1"/>
</linearGradient>
<linearGradient id="paint200_linear_363_1274" x1="809.501" y1="110.165" x2="906.892" y2="110.159" gradientUnits="userSpaceOnUse">
<stop stop-color="white"/>
<stop offset="1"/>
</linearGradient>
<linearGradient id="paint201_linear_363_1274" x1="809.501" y1="110.165" x2="906.892" y2="110.159" gradientUnits="userSpaceOnUse">
<stop stop-color="white"/>
<stop offset="1"/>
</linearGradient>
<linearGradient id="paint202_linear_363_1274" x1="842.172" y1="121.321" x2="955.824" y2="121.315" gradientUnits="userSpaceOnUse">
<stop stop-color="white"/>
<stop offset="1"/>
</linearGradient>
<linearGradient id="paint203_linear_363_1274" x1="789.583" y1="121.308" x2="878.042" y2="121.303" gradientUnits="userSpaceOnUse">
<stop stop-color="white"/>
<stop offset="1"/>
</linearGradient>
<linearGradient id="paint204_linear_363_1274" x1="789.583" y1="121.308" x2="878.042" y2="121.303" gradientUnits="userSpaceOnUse">
<stop stop-color="white"/>
<stop offset="1"/>
</linearGradient>
<linearGradient id="paint205_linear_363_1274" x1="821.437" y1="130.476" x2="923.706" y2="130.471" gradientUnits="userSpaceOnUse">
<stop stop-color="white"/>
<stop offset="1"/>
</linearGradient>
<linearGradient id="paint206_linear_363_1274" x1="773.21" y1="130.469" x2="854.261" y2="130.464" gradientUnits="userSpaceOnUse">
<stop stop-color="white"/>
<stop offset="1"/>
</linearGradient>
<linearGradient id="paint207_linear_363_1274" x1="773.21" y1="130.469" x2="854.261" y2="130.464" gradientUnits="userSpaceOnUse">
<stop stop-color="white"/>
<stop offset="1"/>
</linearGradient>
<linearGradient id="paint208_linear_363_1274" x1="803.875" y1="138.223" x2="896.602" y2="138.218" gradientUnits="userSpaceOnUse">
<stop stop-color="white"/>
<stop offset="1"/>
</linearGradient>
<linearGradient id="paint209_linear_363_1274" x1="788.956" y1="144.799" x2="873.673" y2="144.794" gradientUnits="userSpaceOnUse">
<stop stop-color="white"/>
<stop offset="1"/>
</linearGradient>
</defs>
</svg>
