<svg width="1122" height="400" viewBox="0 0 1122 400" fill="none" xmlns="http://www.w3.org/2000/svg">
<g filter="url(#filter0_d_270_450)">
<rect x="296" y="51" width="575" height="231" rx="10" fill="#FBFCFF"/>
</g>
<g filter="url(#filter1_d_270_450)">
<path d="M617.404 110.14L616.009 118.06H603.499L602.734 122.47H611.734L610.384 129.985H601.384L599.269 142H589.279L594.904 110.14H617.404Z" fill="#2007CD"/>
<path d="M636.448 137.185H625.828L623.398 142H612.913L630.193 110.14H641.713L647.698 142H637.168L636.448 137.185ZM635.368 129.67L634.063 120.805L629.608 129.67H635.368Z" fill="#2007CD"/>
<path d="M663.648 142.315C659.748 142.315 656.628 141.535 654.288 139.975C651.978 138.415 650.823 136.135 650.823 133.135C650.823 132.835 650.853 132.385 650.913 131.785H661.533C661.443 132.715 661.578 133.405 661.938 133.855C662.328 134.305 662.958 134.53 663.828 134.53C664.368 134.53 664.818 134.395 665.178 134.125C665.538 133.855 665.718 133.465 665.718 132.955C665.718 132.235 665.358 131.635 664.638 131.155C663.948 130.675 662.823 130.105 661.263 129.445C659.553 128.725 658.143 128.035 657.033 127.375C655.953 126.715 655.008 125.815 654.198 124.675C653.388 123.535 652.983 122.11 652.983 120.4C652.983 118.15 653.538 116.215 654.648 114.595C655.788 112.945 657.363 111.7 659.373 110.86C661.383 110.02 663.678 109.6 666.258 109.6C668.568 109.6 670.623 109.96 672.423 110.68C674.253 111.4 675.678 112.45 676.698 113.83C677.748 115.18 678.273 116.785 678.273 118.645C678.273 118.885 678.243 119.305 678.183 119.905H667.428C667.488 119.545 667.518 119.305 667.518 119.185C667.518 118.615 667.353 118.18 667.023 117.88C666.693 117.55 666.243 117.385 665.673 117.385C665.163 117.385 664.743 117.535 664.413 117.835C664.083 118.135 663.918 118.525 663.918 119.005C663.918 119.665 664.263 120.25 664.953 120.76C665.643 121.24 666.738 121.84 668.238 122.56C669.948 123.37 671.358 124.135 672.468 124.855C673.608 125.575 674.583 126.535 675.393 127.735C676.203 128.905 676.608 130.345 676.608 132.055C676.608 134.005 676.083 135.76 675.033 137.32C674.013 138.88 672.528 140.11 670.578 141.01C668.628 141.88 666.318 142.315 663.648 142.315Z" fill="#2007CD"/>
<path d="M709.485 110.14L708.09 118.06H699.63L695.4 142H685.41L689.64 118.06H681.27L682.665 110.14H709.485Z" fill="#2007CD"/>
<path d="M720.789 118.06L720.114 122.02H730.014L728.664 129.535H718.764L717.954 134.035H729.204L727.809 142H706.569L712.194 110.14H733.434L732.039 118.06H720.789Z" fill="#2007CD"/>
<path d="M752.049 110.14C755.469 110.14 758.064 110.905 759.834 112.435C761.604 113.965 762.489 116.005 762.489 118.555C762.489 119.305 762.429 119.98 762.309 120.58C761.919 122.74 760.989 124.645 759.519 126.295C758.049 127.915 756.144 129.085 753.804 129.805L758.574 142H747.594L743.589 130.57L741.564 142H731.574L737.199 110.14H752.049ZM744.759 123.91H748.719C749.679 123.91 750.429 123.7 750.969 123.28C751.539 122.83 751.914 122.14 752.094 121.21C752.124 121.06 752.139 120.865 752.139 120.625C752.139 119.965 751.929 119.455 751.509 119.095C751.089 118.705 750.474 118.51 749.664 118.51H745.704L744.759 123.91Z" fill="#2007CD"/>
</g>
<g filter="url(#filter2_d_270_450)">
<path d="M696.849 219.314C693.189 219.314 690.234 218.564 687.984 217.064C685.764 215.534 684.654 213.314 684.654 210.404C684.654 210.164 684.684 209.744 684.744 209.144H694.059C693.969 210.164 694.179 210.959 694.689 211.529C695.199 212.099 695.979 212.384 697.029 212.384C697.899 212.384 698.589 212.189 699.099 211.799C699.639 211.409 699.909 210.854 699.909 210.134C699.909 209.294 699.519 208.604 698.739 208.064C697.989 207.524 696.759 206.894 695.049 206.174C693.339 205.454 691.929 204.779 690.819 204.149C689.709 203.489 688.749 202.604 687.939 201.494C687.129 200.354 686.724 198.944 686.724 197.264C686.724 195.074 687.264 193.199 688.344 191.639C689.424 190.049 690.924 188.849 692.844 188.039C694.794 187.199 697.014 186.779 699.504 186.779C701.754 186.779 703.749 187.139 705.489 187.859C707.229 188.549 708.579 189.554 709.539 190.874C710.529 192.194 711.024 193.754 711.024 195.554C711.024 196.034 711.009 196.394 710.979 196.634H701.484C701.514 196.484 701.529 196.274 701.529 196.004C701.529 195.284 701.304 194.729 700.854 194.339C700.404 193.919 699.789 193.709 699.009 193.709C698.199 193.709 697.539 193.919 697.029 194.339C696.549 194.729 696.309 195.284 696.309 196.004C696.309 196.784 696.684 197.459 697.434 198.029C698.214 198.569 699.414 199.214 701.034 199.964C702.774 200.774 704.199 201.539 705.309 202.259C706.449 202.949 707.424 203.879 708.234 205.049C709.044 206.219 709.449 207.659 709.449 209.369C709.449 211.259 708.939 212.969 707.919 214.499C706.899 215.999 705.444 217.184 703.554 218.054C701.664 218.894 699.429 219.314 696.849 219.314Z" fill="#5AFBC4"/>
<path d="M733.157 213.824H721.907L719.297 218.999H710.027L727.172 187.274H737.342L743.282 218.999H733.967L733.157 213.824ZM732.122 207.119L730.547 196.814L725.327 207.119H732.122Z" fill="#5AFBC4"/>
<path d="M773.247 187.274L772.032 194.294H759.342L758.352 199.874H767.667L766.497 206.579H757.182L754.977 218.999H746.112L751.737 187.274H773.247Z" fill="#5AFBC4"/>
<path d="M784.566 194.249L783.666 199.514H793.791L792.576 206.219H782.451L781.416 211.979H792.891L791.676 218.999H771.336L776.961 187.274H797.256L796.041 194.249H784.566Z" fill="#5AFBC4"/>
<path d="M815.52 187.274C818.85 187.274 821.385 188.024 823.125 189.524C824.865 190.994 825.735 192.959 825.735 195.419C825.735 196.169 825.675 196.844 825.555 197.444C825.195 199.604 824.28 201.509 822.81 203.159C821.34 204.779 819.39 205.934 816.96 206.624L821.91 218.999H812.1L807.87 207.299H806.925L804.855 218.999H795.99L801.615 187.274H815.52ZM808.005 201.269H812.37C814.71 201.269 816.09 200.159 816.51 197.939C816.57 197.579 816.6 197.324 816.6 197.174C816.6 196.364 816.33 195.734 815.79 195.284C815.28 194.834 814.515 194.609 813.495 194.609H809.13L808.005 201.269Z" fill="#5AFBC4"/>
</g>
<g filter="url(#filter3_d_270_450)">
<path d="M625.641 181.314C621.981 181.314 619.026 180.564 616.776 179.064C614.556 177.534 613.446 175.314 613.446 172.404C613.446 172.164 613.476 171.744 613.536 171.144H622.851C622.761 172.164 622.971 172.959 623.481 173.529C623.991 174.099 624.771 174.384 625.821 174.384C626.691 174.384 627.381 174.189 627.891 173.799C628.431 173.409 628.701 172.854 628.701 172.134C628.701 171.294 628.311 170.604 627.531 170.064C626.781 169.524 625.551 168.894 623.841 168.174C622.131 167.454 620.721 166.779 619.611 166.149C618.501 165.489 617.541 164.604 616.731 163.494C615.921 162.354 615.516 160.944 615.516 159.264C615.516 157.074 616.056 155.199 617.136 153.639C618.216 152.049 619.716 150.849 621.636 150.039C623.586 149.199 625.806 148.779 628.296 148.779C630.546 148.779 632.541 149.139 634.281 149.859C636.021 150.549 637.371 151.554 638.331 152.874C639.321 154.194 639.816 155.754 639.816 157.554C639.816 158.034 639.801 158.394 639.771 158.634H630.276C630.306 158.484 630.321 158.274 630.321 158.004C630.321 157.284 630.096 156.729 629.646 156.339C629.196 155.919 628.581 155.709 627.801 155.709C626.991 155.709 626.331 155.919 625.821 156.339C625.341 156.729 625.101 157.284 625.101 158.004C625.101 158.784 625.476 159.459 626.226 160.029C627.006 160.569 628.206 161.214 629.826 161.964C631.566 162.774 632.991 163.539 634.101 164.259C635.241 164.949 636.216 165.879 637.026 167.049C637.836 168.219 638.241 169.659 638.241 171.369C638.241 173.259 637.731 174.969 636.711 176.499C635.691 177.999 634.236 179.184 632.346 180.054C630.456 180.894 628.221 181.314 625.641 181.314Z" fill="#FF00F2"/>
<path d="M655.378 149.274L649.798 180.999H640.933L646.558 149.274H655.378Z" fill="#FF00F2"/>
<path d="M697.436 149.274L691.811 180.999H683.036L686.141 163.449L677.006 180.999H669.626L666.746 163.359L663.641 180.999H654.776L660.401 149.274H671.066L675.431 169.839L686.816 149.274H697.436Z" fill="#FF00F2"/>
<path d="M725.632 159.849C725.302 161.769 724.552 163.524 723.382 165.114C722.242 166.674 720.697 167.934 718.747 168.894C716.797 169.824 714.532 170.289 711.952 170.289H707.587L705.697 180.999H696.832L702.457 149.274H715.642C718.972 149.274 721.507 150.039 723.247 151.569C724.987 153.069 725.857 155.094 725.857 157.644C725.857 158.274 725.782 159.009 725.632 159.849ZM712.357 163.314C714.847 163.314 716.287 162.159 716.677 159.849C716.737 159.429 716.767 159.129 716.767 158.949C716.767 158.139 716.497 157.509 715.957 157.059C715.447 156.579 714.652 156.339 713.572 156.339H710.062L708.847 163.314H712.357Z" fill="#FF00F2"/>
<path d="M735.52 174.294H745.375L744.16 180.999H725.44L731.065 149.274H739.885L735.52 174.294Z" fill="#FF00F2"/>
<path d="M760.775 156.249L759.875 161.514H770L768.785 168.219H758.66L757.625 173.979H769.1L767.885 180.999H747.545L753.17 149.274H773.465L772.25 156.249H760.775Z" fill="#FF00F2"/>
<path d="M791.728 149.274C795.058 149.274 797.593 150.024 799.333 151.524C801.073 152.994 801.943 154.959 801.943 157.419C801.943 158.169 801.883 158.844 801.763 159.444C801.403 161.604 800.488 163.509 799.018 165.159C797.548 166.779 795.598 167.934 793.168 168.624L798.118 180.999H788.308L784.078 169.299H783.133L781.063 180.999H772.198L777.823 149.274H791.728ZM784.213 163.269H788.578C790.918 163.269 792.298 162.159 792.718 159.939C792.778 159.579 792.808 159.324 792.808 159.174C792.808 158.364 792.538 157.734 791.998 157.284C791.488 156.834 790.723 156.609 789.703 156.609H785.338L784.213 163.269Z" fill="#FF00F2"/>
</g>
<g filter="url(#filter4_d_270_450)">
<rect x="341" y="17" width="132" height="220" rx="5" fill="#5AFBC4"/>
</g>
<g filter="url(#filter5_d_270_450)">
<path d="M380.625 186.182H360V128H380.795C386.648 128 391.686 129.165 395.909 131.494C400.133 133.805 403.381 137.129 405.653 141.466C407.945 145.803 409.091 150.992 409.091 157.034C409.091 163.095 407.945 168.303 405.653 172.659C403.381 177.015 400.114 180.358 395.852 182.688C391.61 185.017 386.534 186.182 380.625 186.182ZM372.301 175.642H380.114C383.75 175.642 386.809 174.998 389.29 173.71C391.79 172.403 393.665 170.386 394.915 167.659C396.184 164.913 396.818 161.371 396.818 157.034C396.818 152.735 396.184 149.222 394.915 146.494C393.665 143.767 391.799 141.759 389.318 140.472C386.837 139.184 383.778 138.54 380.142 138.54H372.301V175.642Z" fill="white"/>
<path d="M437.862 187.034C433.374 187.034 429.51 186.125 426.271 184.307C423.052 182.47 420.571 179.875 418.828 176.523C417.086 173.152 416.214 169.165 416.214 164.562C416.214 160.074 417.086 156.134 418.828 152.744C420.571 149.354 423.023 146.712 426.186 144.818C429.368 142.924 433.099 141.977 437.379 141.977C440.258 141.977 442.938 142.441 445.419 143.369C447.919 144.278 450.097 145.652 451.953 147.489C453.828 149.326 455.286 151.636 456.328 154.42C457.37 157.186 457.891 160.424 457.891 164.136V167.46H421.044V159.96H446.499C446.499 158.218 446.12 156.674 445.362 155.33C444.605 153.985 443.554 152.934 442.209 152.176C440.883 151.4 439.339 151.011 437.578 151.011C435.741 151.011 434.112 151.438 432.692 152.29C431.29 153.123 430.192 154.25 429.396 155.67C428.601 157.072 428.194 158.634 428.175 160.358V167.489C428.175 169.648 428.572 171.513 429.368 173.085C430.182 174.657 431.328 175.869 432.805 176.722C434.283 177.574 436.035 178 438.061 178C439.406 178 440.637 177.811 441.754 177.432C442.872 177.053 443.828 176.485 444.624 175.727C445.419 174.97 446.025 174.042 446.442 172.943L457.635 173.682C457.067 176.371 455.902 178.72 454.141 180.727C452.398 182.716 450.144 184.269 447.379 185.386C444.633 186.485 441.461 187.034 437.862 187.034Z" fill="white"/>
</g>
<path d="M483.392 192V133.818H519.472V141.375H492.17V159.102H516.886V166.63H492.17V192H483.392Z" fill="#273349"/>
<path d="M529.585 192V148.363H538.08V192H529.585ZM533.875 141.63C532.398 141.63 531.129 141.138 530.068 140.153C529.027 139.149 528.506 137.956 528.506 136.574C528.506 135.172 529.027 133.979 530.068 132.994C531.129 131.99 532.398 131.488 533.875 131.488C535.352 131.488 536.612 131.99 537.653 132.994C538.714 133.979 539.244 135.172 539.244 136.574C539.244 137.956 538.714 139.149 537.653 140.153C536.612 141.138 535.352 141.63 533.875 141.63Z" fill="#273349"/>
<path d="M198.024 344.719L170.69 326.061L108.826 334.923L57.6563 342.256L63.4379 350.053L132.702 339.765L158.935 361.609L198.024 344.719Z" fill="url(#paint0_linear_270_450)" fill-opacity="0.19"/>
<path d="M250.615 321.995L221.835 307.609L170.149 314.488L127.894 320.114L135.517 326.031L192.451 318.209L221.248 334.688L250.624 321.995L250.615 321.995Z" fill="url(#paint1_linear_270_450)" fill-opacity="0.19"/>
<path d="M179.896 320.1L160.805 307.622L46.661 322.053L-5.58681e-05 334.762L126.637 318.228L129.098 320.114L136.764 326.03L179.888 320.1L179.896 320.1Z" fill="url(#paint2_linear_270_450)" fill-opacity="0.19"/>
<path d="M456.065 321.943L407.659 307.573L365.438 314.447L330.927 320.068L346.629 325.979L392.799 318.168L444.07 334.625L456.057 321.949L456.065 321.943Z" fill="url(#paint3_linear_270_450)" fill-opacity="0.19"/>
<path d="M434.578 344.659L381.973 325.884L332.232 334.798L291.069 342.178L307.382 350.027L362.63 339.664L418.479 361.676L434.578 344.653L434.578 344.659Z" fill="url(#paint4_linear_270_450)" fill-opacity="0.19"/>
<path d="M348.658 342.157L310.912 325.901L197.973 344.741L158.513 361.792L285.194 339.692L290.365 342.176L306.652 350.025L348.658 342.157Z" fill="url(#paint5_linear_270_450)" fill-opacity="0.19"/>
<path d="M405.219 375.691L348.037 350.069L287.661 362.116L236.844 372.261L253.243 383.22L321.776 368.793L382.416 399.808L405.227 375.691L405.219 375.691Z" fill="url(#paint6_linear_270_450)" fill-opacity="0.19"/>
<path d="M304.618 372.23L265.798 350.099L126.03 375.825L70.119 399.987L230.881 368.828L236.017 372.255L252.365 383.214L304.61 372.225L304.618 372.23Z" fill="#2007CD"/>
<path d="M661.159 321.885L593.187 307.531L560.405 314.394L533.62 320.009L557.376 325.909L592.817 318.11L666.493 334.545L661.159 321.885Z" fill="url(#paint7_linear_270_450)" fill-opacity="0.19"/>
<path d="M583.644 319.996L530.687 307.546L456.062 321.944L444.076 334.621L525.446 318.13L533.026 320.011L556.756 325.911L583.653 319.996L583.644 319.996Z" fill="#FF00F2"/>
<path d="M670.779 344.721L592.534 325.939L555.011 334.86L523.958 342.246L550.992 350.102L592.043 339.738L677.946 361.757L670.771 344.727L670.779 344.721Z" fill="url(#paint8_linear_270_450)" fill-opacity="0.19"/>
<path d="M581.492 342.221L521.548 325.959L434.43 344.806L418.296 361.858L514.707 339.751L523.268 342.235L550.276 350.091L581.501 342.216L581.492 342.221Z" fill="url(#paint9_linear_270_450)" fill-opacity="0.19"/>
<path d="M683.769 375.557L591.689 349.973L547.858 362.004L510.972 372.133L542.299 383.07L591.025 368.67L693.903 399.631L683.76 375.563L683.769 375.557Z" fill="url(#paint10_linear_270_450)" fill-opacity="0.19"/>
<path d="M578.603 372.096L509.624 350.003L405.22 375.691L382.409 399.809L500.339 368.711L510.148 372.133L541.432 383.07L578.594 372.102L578.603 372.096Z" fill="url(#paint11_linear_270_450)" fill-opacity="0.19"/>
<path d="M291.219 304.451L262.043 293.1L217.937 298.56L182.238 302.979L190.86 307.585L238.794 301.487L268.529 314.252L291.21 304.451L291.219 304.451Z" fill="url(#paint12_linear_270_450)" fill-opacity="0.19"/>
<path d="M228.226 302.968L207.551 293.107L111.158 304.485L75.1316 314.298L180.533 301.5L183.321 302.977L191.976 307.583L228.235 302.968L228.226 302.968Z" fill="url(#paint13_linear_270_450)" fill-opacity="0.19"/>
<path d="M228.226 302.968L207.551 293.107L111.158 304.485L75.1316 314.298L180.533 301.5L183.321 302.977L191.976 307.583L228.235 302.968L228.226 302.968Z" fill="url(#paint14_linear_270_450)" fill-opacity="0.19"/>
<path d="M472.635 304.414L427.98 293.074L391.386 298.528L361.77 302.942L376.672 307.542L416.217 301.45L463.359 314.199L472.617 304.409L472.635 304.414Z" fill="url(#paint15_linear_270_450)" fill-opacity="0.19"/>
<path d="M406.092 302.933L372.081 293.082L291.218 304.45L268.537 314.251L356.464 301.464L361.256 302.942L376.141 307.542L406.101 302.933L406.092 302.933Z" fill="url(#paint16_linear_270_450)" fill-opacity="0.19"/>
<path d="M406.092 302.933L372.081 293.082L291.218 304.45L268.537 314.251L356.464 301.464L361.256 302.942L376.141 307.542L406.101 302.933L406.092 302.933Z" fill="url(#paint17_linear_270_450)" fill-opacity="0.19"/>
<path d="M378.522 320.399L344.511 310.549L263.648 321.916L240.967 331.718L328.894 318.93L333.686 320.408L348.571 325.009L378.531 320.399L378.522 320.399Z" fill="url(#paint18_linear_270_450)" fill-opacity="0.19"/>
<path d="M653.789 304.379L593.707 293.05L564.608 298.499L541.058 302.907L562.232 307.508L593.414 301.427L657.919 314.165L653.798 304.385L653.789 304.379Z" fill="url(#paint19_linear_270_450)" fill-opacity="0.19"/>
<path d="M585.299 302.903L537.873 293.063L472.636 304.42L463.377 314.211L533.726 301.439L540.523 302.917L561.68 307.518L585.308 302.914L585.299 302.903Z" fill="url(#paint20_linear_270_450)" fill-opacity="0.19"/>
<path d="M585.299 302.903L537.873 293.063L472.636 304.42L463.377 314.211L533.726 301.439L540.523 302.917L561.68 307.518L585.308 302.914L585.299 302.903Z" fill="url(#paint21_linear_270_450)" fill-opacity="0.19"/>
<path d="M323.182 290.636L294.144 281.516L255.846 285.923L225.104 289.463L234.241 293.126L275.412 288.276L305.268 298.379L323.174 290.641L323.182 290.636Z" fill="url(#paint22_linear_270_450)" fill-opacity="0.19"/>
<path d="M266.345 289.455L244.869 281.52L161.916 290.657L133.487 298.4L223.109 288.274L226.077 289.453L235.249 293.116L266.353 289.45L266.345 289.455Z" fill="url(#paint23_linear_270_450)" fill-opacity="0.19"/>
<path d="M266.345 289.455L244.869 281.52L161.916 290.657L133.487 298.4L223.109 288.274L226.077 289.453L235.249 293.116L266.353 289.45L266.345 289.455Z" fill="url(#paint24_linear_270_450)" fill-opacity="0.19"/>
<path d="M485.689 290.616L444.218 281.501L411.986 285.904L386.113 289.438L400.25 293.095L434.744 288.251L478.367 298.343L485.681 290.611L485.689 290.616Z" fill="url(#paint25_linear_270_450)" fill-opacity="0.19"/>
<path d="M647.982 290.589L594.112 281.485L567.929 285.882L546.918 289.411L566.036 293.068L593.879 288.229L651.242 298.311L647.99 290.589L647.982 290.589Z" fill="url(#paint26_linear_270_450)" fill-opacity="0.19"/>
<path d="M586.607 289.409L543.612 281.49L485.689 290.617L478.375 298.349L540.265 288.24L546.434 289.419L565.535 293.076L586.598 289.415L586.607 289.409Z" fill="url(#paint27_linear_270_450)" fill-opacity="0.19"/>
<path d="M586.607 289.409L543.612 281.49L485.689 290.617L478.375 298.349L540.265 288.24L546.434 289.419L565.535 293.076L586.598 289.415L586.607 289.409Z" fill="url(#paint28_linear_270_450)" fill-opacity="0.19"/>
<path d="M349.229 279.386L320.93 271.853L287.116 275.502L260.141 278.415L269.382 281.411L305.442 277.441L334.644 285.687L349.229 279.386Z" fill="url(#paint29_linear_270_450)" fill-opacity="0.19"/>
<path d="M297.499 278.41L275.998 271.855L203.266 279.394L180.112 285.7L257.998 277.442L261.009 278.414L270.275 281.41L297.499 278.41Z" fill="url(#paint30_linear_270_450)" fill-opacity="0.19"/>
<path d="M297.499 278.41L275.998 271.855L203.266 279.394L180.112 285.7L257.998 277.442L261.009 278.414L270.275 281.41L297.499 278.41Z" fill="url(#paint31_linear_270_450)" fill-opacity="0.19"/>
<path d="M496.325 279.371L457.771 271.843L428.981 275.492L406.016 278.4L419.344 281.396L449.94 277.425L490.371 285.666L496.325 279.371Z" fill="url(#paint32_linear_270_450)" fill-opacity="0.19"/>
<path d="M442.024 278.396L411.668 271.846L349.228 279.38L334.643 285.681L401.257 277.428L405.576 278.4L418.895 281.396L442.024 278.396Z" fill="url(#paint33_linear_270_450)" fill-opacity="0.19"/>
<path d="M442.024 278.396L411.668 271.846L349.228 279.38L334.643 285.681L401.257 277.428L405.576 278.4L418.895 281.396L442.024 278.396Z" fill="url(#paint34_linear_270_450)" fill-opacity="0.19"/>
<path d="M422.873 289.806L392.518 283.256L330.077 290.79L315.493 297.091L382.107 288.838L386.426 289.81L399.745 292.806L422.873 289.806Z" fill="url(#paint35_linear_270_450)" fill-opacity="0.19"/>
<path d="M643.248 279.357L594.454 271.834L570.672 275.478L551.709 278.386L569.115 281.383L594.256 277.417L645.898 285.647L643.248 279.357Z" fill="url(#paint36_linear_270_450)" fill-opacity="0.19"/>
<path d="M587.674 278.38L548.405 271.835L496.332 279.364L490.378 285.659L545.643 277.412L551.287 278.384L568.684 281.38L587.691 278.386L587.674 278.38Z" fill="url(#paint37_linear_270_450)" fill-opacity="0.19"/>
<path d="M587.674 278.38L548.405 271.835L496.332 279.364L490.378 285.659L545.643 277.412L551.287 278.384L568.684 281.38L587.691 278.386L587.674 278.38Z" fill="url(#paint38_linear_270_450)" fill-opacity="0.19"/>
<path d="M370.635 270.131L343.378 263.753L313.065 266.85L289.008 269.31L298.111 271.834L330.248 268.49L358.409 275.414L370.635 270.131Z" fill="url(#paint39_linear_270_450)" fill-opacity="0.19"/>
<path d="M323.167 269.312L302.095 263.757L237.254 270.141L217.843 275.429L286.823 268.499L289.8 269.316L298.929 271.84L323.167 269.317L323.167 269.312Z" fill="url(#paint40_linear_270_450)" fill-opacity="0.19"/>
<path d="M323.167 269.312L302.095 263.757L237.254 270.141L217.843 275.429L286.823 268.499L289.8 269.316L298.929 271.84L323.167 269.317L323.167 269.312Z" fill="url(#paint41_linear_270_450)" fill-opacity="0.19"/>
<path d="M505.068 270.127L469.12 263.755L443.076 266.852L422.4 269.312L434.944 271.836L462.478 268.492L500.078 275.41L505.068 270.133L505.068 270.127Z" fill="url(#paint42_linear_270_450)" fill-opacity="0.19"/>
<path d="M455.335 269.307L426.752 263.752L370.636 270.131L358.409 275.413L417.924 268.483L422.003 269.3L434.539 271.824L455.335 269.302L455.335 269.307Z" fill="url(#paint43_linear_270_450)" fill-opacity="0.19"/>
<path d="M455.335 269.307L426.752 263.752L370.636 270.131L358.409 275.413L417.924 268.483L422.003 269.3L434.539 271.824L455.335 269.302L455.335 269.307Z" fill="#273349"/>
<path d="M639.351 270.117L594.731 263.744L572.945 266.842L555.65 269.302L571.628 271.821L594.558 268.482L641.562 275.395L639.343 270.117L639.351 270.117Z" fill="url(#paint44_linear_270_450)" fill-opacity="0.19"/>
<path d="M588.552 269.297L552.415 263.747L505.065 270.126L500.075 275.404L550.065 268.479L555.262 269.295L571.231 271.815L588.552 269.291L588.552 269.297Z" fill="url(#paint45_linear_270_450)" fill-opacity="0.19"/>
<path d="M588.552 269.297L552.415 263.747L505.065 270.126L500.075 275.404L550.065 268.479L555.262 269.295L571.231 271.815L588.552 269.291L588.552 269.297Z" fill="url(#paint46_linear_270_450)" fill-opacity="0.19"/>
<path d="M388.758 262.301L362.455 256.872L335.085 259.515L313.454 261.607L322.402 263.74L351.261 260.907L378.45 266.756L388.758 262.301Z" fill="url(#paint47_linear_270_450)" fill-opacity="0.19"/>
<path d="M344.909 261.602L324.268 256.869L266.026 262.305L249.661 266.76L311.259 260.911L314.184 261.606L323.149 263.74L344.909 261.602Z" fill="url(#paint48_linear_270_450)" fill-opacity="0.19"/>
<path d="M344.909 261.602L324.268 256.869L266.026 262.305L249.661 266.76L311.259 260.911L314.184 261.606L323.149 263.74L344.909 261.602Z" fill="url(#paint49_linear_270_450)" fill-opacity="0.19"/>
<path d="M512.477 262.297L478.783 256.868L455.053 259.511L436.304 261.603L448.161 263.736L473.122 260.903L508.269 266.747L512.477 262.297Z" fill="url(#paint50_linear_270_450)" fill-opacity="0.19"/>
<path d="M466.617 261.604L439.583 256.871L388.758 262.301L378.45 266.756L432.054 260.906L435.917 261.602L447.765 263.736L466.608 261.598L466.617 261.604Z" fill="url(#paint51_linear_270_450)" fill-opacity="0.19"/>
<path d="M466.617 261.604L439.583 256.871L388.758 262.301L378.45 266.756L432.054 260.906L435.917 261.602L447.765 263.736L466.608 261.598L466.617 261.604Z" fill="url(#paint52_linear_270_450)" fill-opacity="0.19"/>
<path d="M636.058 262.299L594.973 256.875L574.874 259.519L558.999 261.605L573.764 263.739L594.835 260.911L637.933 266.749L636.058 262.299Z" fill="url(#paint53_linear_270_450)" fill-opacity="0.19"/>
<path d="M589.294 261.6L555.824 256.872L512.468 262.302L508.26 266.752L553.828 260.908L558.638 261.604L573.394 263.738L589.294 261.605L589.294 261.6Z" fill="url(#paint54_linear_270_450)" fill-opacity="0.19"/>
<path d="M589.294 261.6L555.824 256.872L512.468 262.302L508.26 266.752L553.828 260.908L558.638 261.604L573.394 263.738L589.294 261.605L589.294 261.6Z" fill="url(#paint55_linear_270_450)" fill-opacity="0.19"/>
<path d="M404.142 255.655L378.709 251.008L353.808 253.278L334.216 255.065L343.001 256.882L369.123 254.469L395.4 259.432L404.142 255.655Z" fill="url(#paint56_linear_270_450)" fill-opacity="0.19"/>
<path d="M363.367 255.062L343.147 251.008L290.43 255.656L276.551 259.432L331.996 254.468L334.879 255.06L343.681 256.878L363.358 255.062L363.367 255.062Z" fill="url(#paint57_linear_270_450)" fill-opacity="0.19"/>
<path d="M363.367 255.062L343.147 251.008L290.43 255.656L276.551 259.432L331.996 254.468L334.879 255.06L343.681 256.878L363.358 255.062L363.367 255.062Z" fill="url(#paint58_linear_270_450)" fill-opacity="0.19"/>
<path d="M518.756 255.655L486.998 251.008L465.221 253.272L448.09 255.053L459.353 256.871L482.154 254.463L515.193 259.427L518.764 255.65L518.756 255.655Z" fill="url(#paint59_linear_270_450)" fill-opacity="0.19"/>
<path d="M476.192 255.062L450.501 251.013L404.133 255.656L395.391 259.433L444.056 254.468L447.739 255.06L458.993 256.878L476.192 255.062Z" fill="url(#paint60_linear_270_450)" fill-opacity="0.19"/>
<path d="M476.192 255.062L450.501 251.013L404.133 255.656L395.391 259.433L444.056 254.468L447.739 255.06L458.993 256.878L476.192 255.062Z" fill="url(#paint61_linear_270_450)" fill-opacity="0.19"/>
<path d="M633.261 255.657L595.179 251.016L576.517 253.28L561.838 255.061L575.57 256.879L595.059 254.471L634.844 259.429L633.253 255.657L633.261 255.657Z" fill="url(#paint62_linear_270_450)" fill-opacity="0.19"/>
<path d="M589.932 255.063L558.733 251.014L518.758 255.657L515.187 259.435L557.021 254.469L561.512 255.062L575.236 256.879L589.94 255.063L589.932 255.063Z" fill="url(#paint63_linear_270_450)" fill-opacity="0.19"/>
<path d="M589.932 255.063L558.733 251.014L518.758 255.657L515.187 259.435L557.021 254.469L561.512 255.062L575.236 256.879L589.94 255.063L589.932 255.063Z" fill="url(#paint64_linear_270_450)" fill-opacity="0.19"/>
<path d="M863.954 321.776L776.691 307.45L753.245 314.302L734.092 319.906L765.78 325.795L790.621 318.006L886.376 334.409L863.954 321.776Z" fill="url(#paint65_linear_270_450)" fill-opacity="0.19"/>
<path d="M785.81 319.886L715.954 307.458L661.093 321.828L666.418 334.477L725.142 318.02L735.278 319.901L767.018 325.79L785.801 319.886L785.81 319.886Z" fill="url(#paint66_linear_270_450)" fill-opacity="0.19"/>
<path d="M904.401 344.564L800.928 325.821L775.519 334.72L754.499 342.089L792.099 349.922L819.073 339.58L934.549 361.544L904.401 344.558L904.401 344.564Z" fill="url(#paint67_linear_270_450)" fill-opacity="0.19"/>
<path d="M813.97 342.069L731.956 325.839L670.702 344.648L677.868 361.661L743.941 339.61L755.875 342.088L793.535 349.921L813.961 342.069L813.97 342.069Z" fill="url(#paint68_linear_270_450)" fill-opacity="0.19"/>
<path d="M958.974 375.315L832.546 349.798L805.046 361.795L781.917 371.895L827.958 382.799L857.135 368.439L1001.57 399.304L958.982 375.309L958.974 375.315Z" fill="url(#paint69_linear_270_450)" fill-opacity="0.19"/>
<path d="M851.801 371.863L752.846 349.826L683.685 375.447L693.81 399.492L769.081 368.484L783.536 371.9L829.662 382.803L851.793 371.863L851.801 371.863Z" fill="url(#paint70_linear_270_450)" fill-opacity="0.19"/>
<path d="M832.935 304.302L757.624 292.989L735.933 298.426L718.38 302.829L745.741 307.419L768.645 301.343L850.264 314.059L832.935 304.296L832.935 304.302Z" fill="url(#paint71_linear_270_450)" fill-opacity="0.19"/>
<path d="M764.155 302.82L703.376 292.997L653.738 304.332L657.859 314.106L710.663 301.357L719.465 302.829L746.86 307.419L764.164 302.82L764.155 302.82Z" fill="url(#paint72_linear_270_450)" fill-opacity="0.19"/>
<path d="M764.155 302.82L703.376 292.997L653.738 304.332L657.859 314.106L710.663 301.357L719.465 302.829L746.86 307.419L764.164 302.82L764.155 302.82Z" fill="url(#paint73_linear_270_450)" fill-opacity="0.19"/>
<path d="M808.502 290.537L742.396 281.443L722.202 285.835L705.992 289.364L730.023 293.016L751.275 288.182L822.182 298.253L808.493 290.543L808.502 290.537Z" fill="url(#paint74_linear_270_450)" fill-opacity="0.19"/>
<path d="M747.051 289.356L693.31 281.448L647.923 290.558L651.175 298.274L699.178 288.181L706.947 289.36L731.013 293.012L747.051 289.356Z" fill="url(#paint75_linear_270_450)" fill-opacity="0.19"/>
<path d="M747.051 289.356L693.31 281.448L647.923 290.558L651.175 298.274L699.178 288.181L706.947 289.36L731.013 293.012L747.051 289.356Z" fill="url(#paint76_linear_270_450)" fill-opacity="0.19"/>
<path d="M788.582 279.313L729.678 271.801L710.861 275.439L695.855 278.342L717.288 281.332L737.026 277.372L799.733 285.592L788.582 279.307L788.582 279.313Z" fill="url(#paint77_linear_270_450)" fill-opacity="0.19"/>
<path d="M733.113 278.345L684.956 271.805L643.234 279.329L645.884 285.619L689.817 277.382L696.769 278.349L718.228 281.339L733.113 278.345Z" fill="url(#paint78_linear_270_450)" fill-opacity="0.19"/>
<path d="M733.113 278.345L684.956 271.805L643.234 279.329L645.884 285.619L689.817 277.382L696.769 278.349L718.228 281.339L733.113 278.345Z" fill="url(#paint79_linear_270_450)" fill-opacity="0.19"/>
<path d="M772.211 270.084L719.029 263.722L701.45 266.815L687.503 269.269L706.87 271.788L725.258 268.449L781.554 275.357L772.202 270.09L772.211 270.084Z" fill="url(#paint80_linear_270_450)" fill-opacity="0.19"/>
<path d="M721.592 269.266L677.926 263.721L639.345 270.089L641.564 275.361L682.039 268.447L688.345 269.264L707.73 271.783L721.592 269.266Z" fill="url(#paint81_linear_270_450)" fill-opacity="0.19"/>
<path d="M721.592 269.266L677.926 263.721L639.345 270.089L641.564 275.361L682.039 268.447L688.345 269.264L707.73 271.783L721.592 269.266Z" fill="url(#paint82_linear_270_450)" fill-opacity="0.19"/>
<path d="M758.341 262.27L709.968 256.851L693.465 259.489L680.43 261.576L698.068 263.71L715.285 260.882L766.23 266.715L758.341 262.27Z" fill="url(#paint83_linear_270_450)" fill-opacity="0.19"/>
<path d="M711.831 261.578L671.943 256.856L636.054 262.281L637.93 266.731L675.453 260.892L681.209 261.588L698.865 263.722L711.84 261.59L711.831 261.578Z" fill="url(#paint84_linear_270_450)" fill-opacity="0.19"/>
<path d="M711.831 261.578L671.943 256.856L636.054 262.281L637.93 266.731L675.453 260.892L681.209 261.588L698.865 263.722L711.84 261.59L711.831 261.578Z" fill="url(#paint85_linear_270_450)" fill-opacity="0.19"/>
<path d="M746.57 255.64L702.25 251.004L686.677 253.268L674.424 255.05L690.6 256.861L706.81 254.453L753.264 259.412L746.57 255.64Z" fill="url(#paint86_linear_270_450)" fill-opacity="0.19"/>
<path d="M703.54 255.046L666.852 251.002L633.261 255.64L634.853 259.411L669.863 254.452L675.155 255.044L691.339 256.856L703.549 255.04L703.54 255.046Z" fill="url(#paint87_linear_270_450)" fill-opacity="0.19"/>
<path d="M703.54 255.046L666.852 251.002L633.261 255.64L634.853 259.411L669.863 254.452L675.155 255.044L691.339 256.856L703.549 255.04L703.54 255.046Z" fill="url(#paint88_linear_270_450)" fill-opacity="0.19"/>
<path d="M1068.29 321.718L961.611 307.402L947.542 314.249L936.047 319.842L975.729 325.726L989.918 317.948L1107.91 334.329L1068.29 321.712L1068.29 321.718Z" fill="url(#paint89_linear_270_450)" fill-opacity="0.19"/>
<path d="M985.881 319.836L899.307 307.418L863.943 321.772L886.364 334.405L922.77 317.969L935.435 319.844L975.091 325.728L985.872 319.83L985.881 319.836Z" fill="url(#paint90_linear_270_450)" fill-opacity="0.19"/>
<path d="M1043.98 341.989L940.152 325.781L904.401 344.562L934.549 361.548L970.731 339.53L985.994 342.003L1034.19 349.825L1043.98 341.983L1043.98 341.989Z" fill="url(#paint91_linear_270_450)" fill-opacity="0.19"/>
<path d="M1013.49 304.267L922.85 292.964L908.601 298.397L897.08 302.794L930.67 307.378L945.263 301.314L1044.12 314.014L1013.49 304.261L1013.49 304.267Z" fill="url(#paint92_linear_270_450)" fill-opacity="0.19"/>
<path d="M941.186 302.791L867.19 292.973L832.937 304.297L850.265 314.06L885.766 301.322L896.547 302.794L930.112 307.378L941.177 302.785L941.186 302.791Z" fill="url(#paint93_linear_270_450)" fill-opacity="0.19"/>
<path d="M941.186 302.791L867.19 292.973L832.937 304.297L850.265 314.06L885.766 301.322L896.547 302.794L930.112 307.378L941.177 302.785L941.186 302.791Z" fill="#5AFBC4"/>
<path d="M970.319 290.512L891.884 281.423L877.704 285.815L866.33 289.339L895.317 292.985L909.953 288.157L994.514 298.217L970.328 290.512L970.319 290.512Z" fill="url(#paint94_linear_270_450)" fill-opacity="0.19"/>
<path d="M905.9 289.335L841.524 281.432L808.51 290.537L822.199 298.247L856.495 288.165L865.848 289.338L894.818 292.985L905.9 289.335Z" fill="url(#paint95_linear_270_450)" fill-opacity="0.19"/>
<path d="M905.9 289.335L841.524 281.432L808.51 290.537L822.199 298.247L856.495 288.165L865.848 289.338L894.818 292.985L905.9 289.335Z" fill="url(#paint96_linear_270_450)" fill-opacity="0.19"/>
<path d="M935.121 279.299L866.038 271.792L852.203 275.431L841.172 278.334L866.666 281.319L880.983 277.359L954.832 285.573L935.121 279.293L935.121 279.299Z" fill="url(#paint97_linear_270_450)" fill-opacity="0.19"/>
<path d="M877.042 278.329L820.092 271.795L788.583 279.313L799.734 285.598L832.473 277.367L840.733 278.333L866.21 281.318L877.034 278.329L877.042 278.329Z" fill="url(#paint98_linear_270_450)" fill-opacity="0.19"/>
<path d="M877.042 278.329L820.092 271.795L788.583 279.313L799.734 285.598L832.473 277.367L840.733 278.333L866.21 281.318L877.034 278.329L877.042 278.329Z" fill="url(#paint99_linear_270_450)" fill-opacity="0.19"/>
<path d="M906.168 270.08L844.357 263.718L831.02 266.811L820.437 269.265L843.22 271.779L857.03 268.445L922.697 275.348L906.168 270.08Z" fill="url(#paint100_linear_270_450)" fill-opacity="0.19"/>
<path d="M853.261 269.26L802.135 263.72L772.21 270.089L781.562 275.356L812.641 268.447L820.04 269.264L842.815 271.778L853.252 269.26L853.261 269.26Z" fill="url(#paint101_linear_270_450)" fill-opacity="0.19"/>
<path d="M853.261 269.26L802.135 263.72L772.21 270.089L781.562 275.356L812.641 268.447L820.04 269.264L842.815 271.778L853.252 269.26L853.261 269.26Z" fill="url(#paint102_linear_270_450)" fill-opacity="0.19"/>
<path d="M881.655 262.27L825.935 256.851L813.054 259.489L802.884 261.576L823.413 263.704L836.759 260.882L895.619 266.715L881.672 262.27L881.655 262.27Z" fill="url(#paint103_linear_270_450)" fill-opacity="0.19"/>
<path d="M860.842 255.642L810.233 251.005L797.756 253.27L787.948 255.051L806.584 256.864L819.49 254.461L872.664 259.414L860.833 255.648L860.842 255.642Z" fill="url(#paint104_linear_270_450)" fill-opacity="0.19"/>
<defs>
<filter id="filter0_d_270_450" x="245" y="0" width="677" height="333" filterUnits="userSpaceOnUse" color-interpolation-filters="sRGB">
<feFlood flood-opacity="0" result="BackgroundImageFix"/>
<feColorMatrix in="SourceAlpha" type="matrix" values="0 0 0 0 0 0 0 0 0 0 0 0 0 0 0 0 0 0 127 0" result="hardAlpha"/>
<feMorphology radius="11" operator="dilate" in="SourceAlpha" result="effect1_dropShadow_270_450"/>
<feOffset/>
<feGaussianBlur stdDeviation="20"/>
<feComposite in2="hardAlpha" operator="out"/>
<feColorMatrix type="matrix" values="0 0 0 0 0 0 0 0 0 0 0 0 0 0 0 0 0 0 0.07 0"/>
<feBlend mode="normal" in2="BackgroundImageFix" result="effect1_dropShadow_270_450"/>
<feBlend mode="normal" in="SourceGraphic" in2="effect1_dropShadow_270_450" result="shape"/>
</filter>
<filter id="filter1_d_270_450" x="588.279" y="109.6" width="175.21" height="35.7148" filterUnits="userSpaceOnUse" color-interpolation-filters="sRGB">
<feFlood flood-opacity="0" result="BackgroundImageFix"/>
<feColorMatrix in="SourceAlpha" type="matrix" values="0 0 0 0 0 0 0 0 0 0 0 0 0 0 0 0 0 0 127 0" result="hardAlpha"/>
<feOffset dy="2"/>
<feGaussianBlur stdDeviation="0.5"/>
<feComposite in2="hardAlpha" operator="out"/>
<feColorMatrix type="matrix" values="0 0 0 0 0 0 0 0 0 0 0 0 0 0 0 0 0 0 0.25 0"/>
<feBlend mode="normal" in2="BackgroundImageFix" result="effect1_dropShadow_270_450"/>
<feBlend mode="normal" in="SourceGraphic" in2="effect1_dropShadow_270_450" result="shape"/>
</filter>
<filter id="filter2_d_270_450" x="683.654" y="186.779" width="143.08" height="35.5352" filterUnits="userSpaceOnUse" color-interpolation-filters="sRGB">
<feFlood flood-opacity="0" result="BackgroundImageFix"/>
<feColorMatrix in="SourceAlpha" type="matrix" values="0 0 0 0 0 0 0 0 0 0 0 0 0 0 0 0 0 0 127 0" result="hardAlpha"/>
<feOffset dy="2"/>
<feGaussianBlur stdDeviation="0.5"/>
<feComposite in2="hardAlpha" operator="out"/>
<feColorMatrix type="matrix" values="0 0 0 0 0 0 0 0 0 0 0 0 0 0 0 0 0 0 0.25 0"/>
<feBlend mode="normal" in2="BackgroundImageFix" result="effect1_dropShadow_270_450"/>
<feBlend mode="normal" in="SourceGraphic" in2="effect1_dropShadow_270_450" result="shape"/>
</filter>
<filter id="filter3_d_270_450" x="612.446" y="148.779" width="190.497" height="35.5352" filterUnits="userSpaceOnUse" color-interpolation-filters="sRGB">
<feFlood flood-opacity="0" result="BackgroundImageFix"/>
<feColorMatrix in="SourceAlpha" type="matrix" values="0 0 0 0 0 0 0 0 0 0 0 0 0 0 0 0 0 0 127 0" result="hardAlpha"/>
<feOffset dy="2"/>
<feGaussianBlur stdDeviation="0.5"/>
<feComposite in2="hardAlpha" operator="out"/>
<feColorMatrix type="matrix" values="0 0 0 0 0 0 0 0 0 0 0 0 0 0 0 0 0 0 0.25 0"/>
<feBlend mode="normal" in2="BackgroundImageFix" result="effect1_dropShadow_270_450"/>
<feBlend mode="normal" in="SourceGraphic" in2="effect1_dropShadow_270_450" result="shape"/>
</filter>
<filter id="filter4_d_270_450" x="331" y="7" width="152" height="240" filterUnits="userSpaceOnUse" color-interpolation-filters="sRGB">
<feFlood flood-opacity="0" result="BackgroundImageFix"/>
<feColorMatrix in="SourceAlpha" type="matrix" values="0 0 0 0 0 0 0 0 0 0 0 0 0 0 0 0 0 0 127 0" result="hardAlpha"/>
<feOffset/>
<feGaussianBlur stdDeviation="5"/>
<feComposite in2="hardAlpha" operator="out"/>
<feColorMatrix type="matrix" values="0 0 0 0 0.116667 0 0 0 0 0.116667 0 0 0 0 0.116667 0 0 0 0.2 0"/>
<feBlend mode="normal" in2="BackgroundImageFix" result="effect1_dropShadow_270_450"/>
<feBlend mode="normal" in="SourceGraphic" in2="effect1_dropShadow_270_450" result="shape"/>
</filter>
<filter id="filter5_d_270_450" x="356" y="126" width="105.891" height="67.0332" filterUnits="userSpaceOnUse" color-interpolation-filters="sRGB">
<feFlood flood-opacity="0" result="BackgroundImageFix"/>
<feColorMatrix in="SourceAlpha" type="matrix" values="0 0 0 0 0 0 0 0 0 0 0 0 0 0 0 0 0 0 127 0" result="hardAlpha"/>
<feOffset dy="2"/>
<feGaussianBlur stdDeviation="2"/>
<feComposite in2="hardAlpha" operator="out"/>
<feColorMatrix type="matrix" values="0 0 0 0 0 0 0 0 0 0 0 0 0 0 0 0 0 0 0.25 0"/>
<feBlend mode="normal" in2="BackgroundImageFix" result="effect1_dropShadow_270_450"/>
<feBlend mode="normal" in="SourceGraphic" in2="effect1_dropShadow_270_450" result="shape"/>
</filter>
<linearGradient id="paint0_linear_270_450" x1="57.6562" y1="343.826" x2="198.024" y2="343.834" gradientUnits="userSpaceOnUse">
<stop stop-color="white"/>
<stop offset="1"/>
</linearGradient>
<linearGradient id="paint1_linear_270_450" x1="127.885" y1="321.143" x2="250.615" y2="321.15" gradientUnits="userSpaceOnUse">
<stop stop-color="white"/>
<stop offset="1"/>
</linearGradient>
<linearGradient id="paint2_linear_270_450" x1="-0.00789935" y1="321.182" x2="179.888" y2="321.192" gradientUnits="userSpaceOnUse">
<stop stop-color="white"/>
<stop offset="1"/>
</linearGradient>
<linearGradient id="paint3_linear_270_450" x1="330.926" y1="321.085" x2="456.057" y2="321.092" gradientUnits="userSpaceOnUse">
<stop stop-color="white"/>
<stop offset="1"/>
</linearGradient>
<linearGradient id="paint4_linear_270_450" x1="291.061" y1="343.771" x2="434.569" y2="343.779" gradientUnits="userSpaceOnUse">
<stop stop-color="white"/>
<stop offset="1"/>
</linearGradient>
<linearGradient id="paint5_linear_270_450" x1="158.514" y1="343.836" x2="348.658" y2="343.847" gradientUnits="userSpaceOnUse">
<stop stop-color="white"/>
<stop offset="1"/>
</linearGradient>
<linearGradient id="paint6_linear_270_450" x1="236.844" y1="374.929" x2="405.219" y2="374.938" gradientUnits="userSpaceOnUse">
<stop stop-color="white"/>
<stop offset="1"/>
</linearGradient>
<linearGradient id="paint7_linear_270_450" x1="533.62" y1="321.033" x2="666.494" y2="321.04" gradientUnits="userSpaceOnUse">
<stop stop-color="white"/>
<stop offset="1"/>
</linearGradient>
<linearGradient id="paint8_linear_270_450" x1="523.958" y1="343.833" x2="677.955" y2="343.842" gradientUnits="userSpaceOnUse">
<stop stop-color="white"/>
<stop offset="1"/>
</linearGradient>
<linearGradient id="paint9_linear_270_450" x1="418.297" y1="343.908" x2="581.492" y2="343.918" gradientUnits="userSpaceOnUse">
<stop stop-color="white"/>
<stop offset="1"/>
</linearGradient>
<linearGradient id="paint10_linear_270_450" x1="510.972" y1="374.789" x2="693.905" y2="374.799" gradientUnits="userSpaceOnUse">
<stop stop-color="white"/>
<stop offset="1"/>
</linearGradient>
<linearGradient id="paint11_linear_270_450" x1="382.41" y1="374.897" x2="578.602" y2="374.908" gradientUnits="userSpaceOnUse">
<stop stop-color="white"/>
<stop offset="1"/>
</linearGradient>
<linearGradient id="paint12_linear_270_450" x1="182.238" y1="303.669" x2="291.219" y2="303.675" gradientUnits="userSpaceOnUse">
<stop stop-color="white"/>
<stop offset="1"/>
</linearGradient>
<linearGradient id="paint13_linear_270_450" x1="75.1236" y1="303.696" x2="228.217" y2="303.704" gradientUnits="userSpaceOnUse">
<stop stop-color="white"/>
<stop offset="1"/>
</linearGradient>
<linearGradient id="paint14_linear_270_450" x1="75.1236" y1="303.696" x2="228.217" y2="303.704" gradientUnits="userSpaceOnUse">
<stop stop-color="white"/>
<stop offset="1"/>
</linearGradient>
<linearGradient id="paint15_linear_270_450" x1="361.779" y1="303.632" x2="472.635" y2="303.638" gradientUnits="userSpaceOnUse">
<stop stop-color="white"/>
<stop offset="1"/>
</linearGradient>
<linearGradient id="paint16_linear_270_450" x1="268.529" y1="303.661" x2="406.092" y2="303.668" gradientUnits="userSpaceOnUse">
<stop stop-color="white"/>
<stop offset="1"/>
</linearGradient>
<linearGradient id="paint17_linear_270_450" x1="268.529" y1="303.661" x2="406.092" y2="303.668" gradientUnits="userSpaceOnUse">
<stop stop-color="white"/>
<stop offset="1"/>
</linearGradient>
<linearGradient id="paint18_linear_270_450" x1="240.959" y1="321.128" x2="378.522" y2="321.135" gradientUnits="userSpaceOnUse">
<stop stop-color="white"/>
<stop offset="1"/>
</linearGradient>
<linearGradient id="paint19_linear_270_450" x1="541.049" y1="303.597" x2="657.911" y2="303.604" gradientUnits="userSpaceOnUse">
<stop stop-color="white"/>
<stop offset="1"/>
</linearGradient>
<linearGradient id="paint20_linear_270_450" x1="463.378" y1="303.626" x2="585.299" y2="303.633" gradientUnits="userSpaceOnUse">
<stop stop-color="white"/>
<stop offset="1"/>
</linearGradient>
<linearGradient id="paint21_linear_270_450" x1="463.378" y1="303.626" x2="585.299" y2="303.633" gradientUnits="userSpaceOnUse">
<stop stop-color="white"/>
<stop offset="1"/>
</linearGradient>
<linearGradient id="paint22_linear_270_450" x1="225.104" y1="289.94" x2="323.182" y2="289.946" gradientUnits="userSpaceOnUse">
<stop stop-color="white"/>
<stop offset="1"/>
</linearGradient>
<linearGradient id="paint23_linear_270_450" x1="133.479" y1="289.959" x2="266.345" y2="289.967" gradientUnits="userSpaceOnUse">
<stop stop-color="white"/>
<stop offset="1"/>
</linearGradient>
<linearGradient id="paint24_linear_270_450" x1="133.479" y1="289.959" x2="266.345" y2="289.967" gradientUnits="userSpaceOnUse">
<stop stop-color="white"/>
<stop offset="1"/>
</linearGradient>
<linearGradient id="paint25_linear_270_450" x1="386.113" y1="289.915" x2="485.689" y2="289.921" gradientUnits="userSpaceOnUse">
<stop stop-color="white"/>
<stop offset="1"/>
</linearGradient>
<linearGradient id="paint26_linear_270_450" x1="546.917" y1="289.894" x2="651.234" y2="289.9" gradientUnits="userSpaceOnUse">
<stop stop-color="white"/>
<stop offset="1"/>
</linearGradient>
<linearGradient id="paint27_linear_270_450" x1="478.375" y1="289.915" x2="586.607" y2="289.921" gradientUnits="userSpaceOnUse">
<stop stop-color="white"/>
<stop offset="1"/>
</linearGradient>
<linearGradient id="paint28_linear_270_450" x1="478.375" y1="289.915" x2="586.607" y2="289.921" gradientUnits="userSpaceOnUse">
<stop stop-color="white"/>
<stop offset="1"/>
</linearGradient>
<linearGradient id="paint29_linear_270_450" x1="260.141" y1="278.76" x2="349.229" y2="278.765" gradientUnits="userSpaceOnUse">
<stop stop-color="white"/>
<stop offset="1"/>
</linearGradient>
<linearGradient id="paint30_linear_270_450" x1="180.113" y1="278.772" x2="297.499" y2="278.778" gradientUnits="userSpaceOnUse">
<stop stop-color="white"/>
<stop offset="1"/>
</linearGradient>
<linearGradient id="paint31_linear_270_450" x1="180.113" y1="278.772" x2="297.499" y2="278.778" gradientUnits="userSpaceOnUse">
<stop stop-color="white"/>
<stop offset="1"/>
</linearGradient>
<linearGradient id="paint32_linear_270_450" x1="406.008" y1="278.751" x2="496.325" y2="278.756" gradientUnits="userSpaceOnUse">
<stop stop-color="white"/>
<stop offset="1"/>
</linearGradient>
<linearGradient id="paint33_linear_270_450" x1="334.644" y1="278.758" x2="442.024" y2="278.764" gradientUnits="userSpaceOnUse">
<stop stop-color="white"/>
<stop offset="1"/>
</linearGradient>
<linearGradient id="paint34_linear_270_450" x1="334.644" y1="278.758" x2="442.024" y2="278.764" gradientUnits="userSpaceOnUse">
<stop stop-color="white"/>
<stop offset="1"/>
</linearGradient>
<linearGradient id="paint35_linear_270_450" x1="315.493" y1="290.168" x2="422.873" y2="290.174" gradientUnits="userSpaceOnUse">
<stop stop-color="white"/>
<stop offset="1"/>
</linearGradient>
<linearGradient id="paint36_linear_270_450" x1="551.7" y1="278.737" x2="645.89" y2="278.742" gradientUnits="userSpaceOnUse">
<stop stop-color="white"/>
<stop offset="1"/>
</linearGradient>
<linearGradient id="paint37_linear_270_450" x1="490.369" y1="278.749" x2="587.674" y2="278.754" gradientUnits="userSpaceOnUse">
<stop stop-color="white"/>
<stop offset="1"/>
</linearGradient>
<linearGradient id="paint38_linear_270_450" x1="490.369" y1="278.749" x2="587.674" y2="278.754" gradientUnits="userSpaceOnUse">
<stop stop-color="white"/>
<stop offset="1"/>
</linearGradient>
<linearGradient id="paint39_linear_270_450" x1="288.999" y1="269.58" x2="370.635" y2="269.584" gradientUnits="userSpaceOnUse">
<stop stop-color="white"/>
<stop offset="1"/>
</linearGradient>
<linearGradient id="paint40_linear_270_450" x1="217.843" y1="269.588" x2="323.167" y2="269.593" gradientUnits="userSpaceOnUse">
<stop stop-color="white"/>
<stop offset="1"/>
</linearGradient>
<linearGradient id="paint41_linear_270_450" x1="217.843" y1="269.588" x2="323.167" y2="269.593" gradientUnits="userSpaceOnUse">
<stop stop-color="white"/>
<stop offset="1"/>
</linearGradient>
<linearGradient id="paint42_linear_270_450" x1="422.4" y1="269.57" x2="505.068" y2="269.575" gradientUnits="userSpaceOnUse">
<stop stop-color="white"/>
<stop offset="1"/>
</linearGradient>
<linearGradient id="paint43_linear_270_450" x1="358.409" y1="269.578" x2="455.335" y2="269.583" gradientUnits="userSpaceOnUse">
<stop stop-color="white"/>
<stop offset="1"/>
</linearGradient>
<linearGradient id="paint44_linear_270_450" x1="555.65" y1="269.566" x2="641.571" y2="269.571" gradientUnits="userSpaceOnUse">
<stop stop-color="white"/>
<stop offset="1"/>
</linearGradient>
<linearGradient id="paint45_linear_270_450" x1="500.075" y1="269.574" x2="588.552" y2="269.579" gradientUnits="userSpaceOnUse">
<stop stop-color="white"/>
<stop offset="1"/>
</linearGradient>
<linearGradient id="paint46_linear_270_450" x1="500.075" y1="269.574" x2="588.552" y2="269.579" gradientUnits="userSpaceOnUse">
<stop stop-color="white"/>
<stop offset="1"/>
</linearGradient>
<linearGradient id="paint47_linear_270_450" x1="313.454" y1="261.808" x2="388.758" y2="261.812" gradientUnits="userSpaceOnUse">
<stop stop-color="white"/>
<stop offset="1"/>
</linearGradient>
<linearGradient id="paint48_linear_270_450" x1="249.661" y1="261.81" x2="344.909" y2="261.815" gradientUnits="userSpaceOnUse">
<stop stop-color="white"/>
<stop offset="1"/>
</linearGradient>
<linearGradient id="paint49_linear_270_450" x1="249.661" y1="261.81" x2="344.909" y2="261.815" gradientUnits="userSpaceOnUse">
<stop stop-color="white"/>
<stop offset="1"/>
</linearGradient>
<linearGradient id="paint50_linear_270_450" x1="436.287" y1="261.804" x2="512.468" y2="261.808" gradientUnits="userSpaceOnUse">
<stop stop-color="white"/>
<stop offset="1"/>
</linearGradient>
<linearGradient id="paint51_linear_270_450" x1="378.45" y1="261.812" x2="466.617" y2="261.817" gradientUnits="userSpaceOnUse">
<stop stop-color="white"/>
<stop offset="1"/>
</linearGradient>
<linearGradient id="paint52_linear_270_450" x1="378.45" y1="261.812" x2="466.617" y2="261.817" gradientUnits="userSpaceOnUse">
<stop stop-color="white"/>
<stop offset="1"/>
</linearGradient>
<linearGradient id="paint53_linear_270_450" x1="558.999" y1="261.806" x2="637.934" y2="261.81" gradientUnits="userSpaceOnUse">
<stop stop-color="white"/>
<stop offset="1"/>
</linearGradient>
<linearGradient id="paint54_linear_270_450" x1="508.26" y1="261.808" x2="589.294" y2="261.812" gradientUnits="userSpaceOnUse">
<stop stop-color="white"/>
<stop offset="1"/>
</linearGradient>
<linearGradient id="paint55_linear_270_450" x1="508.26" y1="261.808" x2="589.294" y2="261.812" gradientUnits="userSpaceOnUse">
<stop stop-color="white"/>
<stop offset="1"/>
</linearGradient>
<linearGradient id="paint56_linear_270_450" x1="334.208" y1="255.214" x2="404.134" y2="255.218" gradientUnits="userSpaceOnUse">
<stop stop-color="white"/>
<stop offset="1"/>
</linearGradient>
<linearGradient id="paint57_linear_270_450" x1="276.56" y1="255.218" x2="363.367" y2="255.223" gradientUnits="userSpaceOnUse">
<stop stop-color="white"/>
<stop offset="1"/>
</linearGradient>
<linearGradient id="paint58_linear_270_450" x1="276.56" y1="255.218" x2="363.367" y2="255.223" gradientUnits="userSpaceOnUse">
<stop stop-color="white"/>
<stop offset="1"/>
</linearGradient>
<linearGradient id="paint59_linear_270_450" x1="448.073" y1="255.214" x2="518.747" y2="255.218" gradientUnits="userSpaceOnUse">
<stop stop-color="white"/>
<stop offset="1"/>
</linearGradient>
<linearGradient id="paint60_linear_270_450" x1="395.391" y1="255.218" x2="476.192" y2="255.223" gradientUnits="userSpaceOnUse">
<stop stop-color="white"/>
<stop offset="1"/>
</linearGradient>
<linearGradient id="paint61_linear_270_450" x1="395.391" y1="255.218" x2="476.192" y2="255.223" gradientUnits="userSpaceOnUse">
<stop stop-color="white"/>
<stop offset="1"/>
</linearGradient>
<linearGradient id="paint62_linear_270_450" x1="561.838" y1="255.216" x2="634.853" y2="255.221" gradientUnits="userSpaceOnUse">
<stop stop-color="white"/>
<stop offset="1"/>
</linearGradient>
<linearGradient id="paint63_linear_270_450" x1="515.179" y1="255.22" x2="589.932" y2="255.224" gradientUnits="userSpaceOnUse">
<stop stop-color="white"/>
<stop offset="1"/>
</linearGradient>
<linearGradient id="paint64_linear_270_450" x1="515.179" y1="255.22" x2="589.932" y2="255.224" gradientUnits="userSpaceOnUse">
<stop stop-color="white"/>
<stop offset="1"/>
</linearGradient>
<linearGradient id="paint65_linear_270_450" x1="734.083" y1="320.918" x2="886.376" y2="320.927" gradientUnits="userSpaceOnUse">
<stop stop-color="white"/>
<stop offset="1"/>
</linearGradient>
<linearGradient id="paint66_linear_270_450" x1="661.093" y1="320.966" x2="785.81" y2="320.973" gradientUnits="userSpaceOnUse">
<stop stop-color="white"/>
<stop offset="1"/>
</linearGradient>
<linearGradient id="paint67_linear_270_450" x1="754.499" y1="343.676" x2="934.55" y2="343.686" gradientUnits="userSpaceOnUse">
<stop stop-color="white"/>
<stop offset="1"/>
</linearGradient>
<linearGradient id="paint68_linear_270_450" x1="670.702" y1="343.745" x2="813.97" y2="343.753" gradientUnits="userSpaceOnUse">
<stop stop-color="white"/>
<stop offset="1"/>
</linearGradient>
<linearGradient id="paint69_linear_270_450" x1="781.917" y1="374.546" x2="1001.56" y2="374.558" gradientUnits="userSpaceOnUse">
<stop stop-color="white"/>
<stop offset="1"/>
</linearGradient>
<linearGradient id="paint70_linear_270_450" x1="683.685" y1="374.654" x2="851.801" y2="374.663" gradientUnits="userSpaceOnUse">
<stop stop-color="white"/>
<stop offset="1"/>
</linearGradient>
<linearGradient id="paint71_linear_270_450" x1="718.38" y1="303.519" x2="850.264" y2="303.527" gradientUnits="userSpaceOnUse">
<stop stop-color="white"/>
<stop offset="1"/>
</linearGradient>
<linearGradient id="paint72_linear_270_450" x1="653.729" y1="303.55" x2="764.146" y2="303.556" gradientUnits="userSpaceOnUse">
<stop stop-color="white"/>
<stop offset="1"/>
</linearGradient>
<linearGradient id="paint73_linear_270_450" x1="653.729" y1="303.55" x2="764.146" y2="303.556" gradientUnits="userSpaceOnUse">
<stop stop-color="white"/>
<stop offset="1"/>
</linearGradient>
<linearGradient id="paint74_linear_270_450" x1="705.992" y1="289.835" x2="822.191" y2="289.842" gradientUnits="userSpaceOnUse">
<stop stop-color="white"/>
<stop offset="1"/>
</linearGradient>
<linearGradient id="paint75_linear_270_450" x1="647.923" y1="289.857" x2="747.051" y2="289.862" gradientUnits="userSpaceOnUse">
<stop stop-color="white"/>
<stop offset="1"/>
</linearGradient>
<linearGradient id="paint76_linear_270_450" x1="647.923" y1="289.857" x2="747.051" y2="289.862" gradientUnits="userSpaceOnUse">
<stop stop-color="white"/>
<stop offset="1"/>
</linearGradient>
<linearGradient id="paint77_linear_270_450" x1="695.855" y1="278.692" x2="799.733" y2="278.698" gradientUnits="userSpaceOnUse">
<stop stop-color="white"/>
<stop offset="1"/>
</linearGradient>
<linearGradient id="paint78_linear_270_450" x1="643.234" y1="278.708" x2="733.113" y2="278.713" gradientUnits="userSpaceOnUse">
<stop stop-color="white"/>
<stop offset="1"/>
</linearGradient>
<linearGradient id="paint79_linear_270_450" x1="643.234" y1="278.708" x2="733.113" y2="278.713" gradientUnits="userSpaceOnUse">
<stop stop-color="white"/>
<stop offset="1"/>
</linearGradient>
<linearGradient id="paint80_linear_270_450" x1="687.511" y1="269.533" x2="781.563" y2="269.539" gradientUnits="userSpaceOnUse">
<stop stop-color="white"/>
<stop offset="1"/>
</linearGradient>
<linearGradient id="paint81_linear_270_450" x1="639.345" y1="269.543" x2="721.592" y2="269.547" gradientUnits="userSpaceOnUse">
<stop stop-color="white"/>
<stop offset="1"/>
</linearGradient>
<linearGradient id="paint82_linear_270_450" x1="639.345" y1="269.543" x2="721.592" y2="269.547" gradientUnits="userSpaceOnUse">
<stop stop-color="white"/>
<stop offset="1"/>
</linearGradient>
<linearGradient id="paint83_linear_270_450" x1="680.43" y1="261.777" x2="766.231" y2="261.782" gradientUnits="userSpaceOnUse">
<stop stop-color="white"/>
<stop offset="1"/>
</linearGradient>
<linearGradient id="paint84_linear_270_450" x1="636.046" y1="261.786" x2="711.823" y2="261.791" gradientUnits="userSpaceOnUse">
<stop stop-color="white"/>
<stop offset="1"/>
</linearGradient>
<linearGradient id="paint85_linear_270_450" x1="636.046" y1="261.786" x2="711.823" y2="261.791" gradientUnits="userSpaceOnUse">
<stop stop-color="white"/>
<stop offset="1"/>
</linearGradient>
<linearGradient id="paint86_linear_270_450" x1="674.424" y1="255.199" x2="753.264" y2="255.203" gradientUnits="userSpaceOnUse">
<stop stop-color="white"/>
<stop offset="1"/>
</linearGradient>
<linearGradient id="paint87_linear_270_450" x1="633.253" y1="255.203" x2="703.54" y2="255.207" gradientUnits="userSpaceOnUse">
<stop stop-color="white"/>
<stop offset="1"/>
</linearGradient>
<linearGradient id="paint88_linear_270_450" x1="633.253" y1="255.203" x2="703.54" y2="255.207" gradientUnits="userSpaceOnUse">
<stop stop-color="white"/>
<stop offset="1"/>
</linearGradient>
<linearGradient id="paint89_linear_270_450" x1="936.038" y1="320.865" x2="1107.91" y2="320.875" gradientUnits="userSpaceOnUse">
<stop stop-color="white"/>
<stop offset="1"/>
</linearGradient>
<linearGradient id="paint90_linear_270_450" x1="863.951" y1="320.91" x2="985.881" y2="320.917" gradientUnits="userSpaceOnUse">
<stop stop-color="white"/>
<stop offset="1"/>
</linearGradient>
<linearGradient id="paint91_linear_270_450" x1="904.401" y1="343.66" x2="1043.97" y2="343.668" gradientUnits="userSpaceOnUse">
<stop stop-color="white"/>
<stop offset="1"/>
</linearGradient>
<linearGradient id="paint92_linear_270_450" x1="897.071" y1="303.484" x2="1044.11" y2="303.492" gradientUnits="userSpaceOnUse">
<stop stop-color="white"/>
<stop offset="1"/>
</linearGradient>
<linearGradient id="paint93_linear_270_450" x1="832.937" y1="303.515" x2="941.177" y2="303.521" gradientUnits="userSpaceOnUse">
<stop stop-color="white"/>
<stop offset="1"/>
</linearGradient>
<linearGradient id="paint94_linear_270_450" x1="866.321" y1="289.816" x2="994.506" y2="289.823" gradientUnits="userSpaceOnUse">
<stop stop-color="white"/>
<stop offset="1"/>
</linearGradient>
<linearGradient id="paint95_linear_270_450" x1="808.501" y1="289.835" x2="905.892" y2="289.841" gradientUnits="userSpaceOnUse">
<stop stop-color="white"/>
<stop offset="1"/>
</linearGradient>
<linearGradient id="paint96_linear_270_450" x1="808.501" y1="289.835" x2="905.892" y2="289.841" gradientUnits="userSpaceOnUse">
<stop stop-color="white"/>
<stop offset="1"/>
</linearGradient>
<linearGradient id="paint97_linear_270_450" x1="841.172" y1="278.679" x2="954.824" y2="278.685" gradientUnits="userSpaceOnUse">
<stop stop-color="white"/>
<stop offset="1"/>
</linearGradient>
<linearGradient id="paint98_linear_270_450" x1="788.583" y1="278.692" x2="877.042" y2="278.697" gradientUnits="userSpaceOnUse">
<stop stop-color="white"/>
<stop offset="1"/>
</linearGradient>
<linearGradient id="paint99_linear_270_450" x1="788.583" y1="278.692" x2="877.042" y2="278.697" gradientUnits="userSpaceOnUse">
<stop stop-color="white"/>
<stop offset="1"/>
</linearGradient>
<linearGradient id="paint100_linear_270_450" x1="820.437" y1="269.524" x2="922.706" y2="269.529" gradientUnits="userSpaceOnUse">
<stop stop-color="white"/>
<stop offset="1"/>
</linearGradient>
<linearGradient id="paint101_linear_270_450" x1="772.21" y1="269.531" x2="853.261" y2="269.536" gradientUnits="userSpaceOnUse">
<stop stop-color="white"/>
<stop offset="1"/>
</linearGradient>
<linearGradient id="paint102_linear_270_450" x1="772.21" y1="269.531" x2="853.261" y2="269.536" gradientUnits="userSpaceOnUse">
<stop stop-color="white"/>
<stop offset="1"/>
</linearGradient>
<linearGradient id="paint103_linear_270_450" x1="802.875" y1="261.777" x2="895.602" y2="261.782" gradientUnits="userSpaceOnUse">
<stop stop-color="white"/>
<stop offset="1"/>
</linearGradient>
<linearGradient id="paint104_linear_270_450" x1="787.956" y1="255.201" x2="872.673" y2="255.206" gradientUnits="userSpaceOnUse">
<stop stop-color="white"/>
<stop offset="1"/>
</linearGradient>
</defs>
</svg>
